<svg xmlns="http://www.w3.org/2000/svg" viewBox="0 0 321.7 94.9"><path d="M74.9 61.5h-7.5c-.3 0-.7.2-.8.5-2.1 3.9-6.2 6.5-10.9 6.4-6.2-.1-11.5-5.2-11.7-11.5-.3-6.8 5.2-12.5 12-12.5 4.6 0 8.6 2.6 10.6 6.4.2.3.5.5.8.5H75c.6 0 1.1-.6.9-1.2-2.9-9.2-12.1-15.6-22.5-14.3-9.4 1.2-17 8.8-18.1 18.3-1.4 12.4 8.4 23.1 20.7 23.1 9.3 0 17.1-6.1 19.8-14.5.2-.6-.2-1.2-.9-1.2z"></path><path d="M56 17.7c-21.3 0-38.6 17.3-38.6 38.6 0 21 16.8 38.1 37.6 38.6.5 0 1-.4 1-.9v-7c0-.5-.4-.9-.9-.9-16-.5-28.8-13.6-28.8-29.7 0-16.4 13.3-29.8 29.8-29.8 14.4 0 26.5 10.3 29.2 23.9.1.4.5.8.9.8h7.1c.6 0 1-.5.9-1.1-3.1-18.4-19-32.5-38.2-32.5z"></path><path d="M56 0C27 0 3.1 22 0 50.2c-.1.5.4 1 .9 1h7c.5 0 .9-.4.9-.8C11.8 27 31.8 8.8 56 8.8c24.2 0 44.2 18.2 47.1 41.6.1.5.4.8.9.8h7c.6 0 1-.5.9-1C108.9 22 85 0 56 0zM238.7 45.9c.8-1.1 1.2-2.1 1.2-3.6 0-4.7-3.8-7.8-8.4-7.8h-9.7c-.6 0-.9.3-.9.9v23.1c0 .6.3.9.9.9H233c4.7 0 8.4-3.3 8.4-8 0-2.7-1.4-4.2-2.7-5.5zm-12.2-6.6h5.1c1.5 0 2.8 1.2 2.8 2.7 0 1.4-1.3 2.7-2.8 2.7h-5.1v-5.4zm6.2 15.1h-6.1v-6.1h6.1c1.5 0 2.8 1.5 2.8 3s-1.3 3.1-2.8 3.1zM164.8 40.2c2.7 0 5 1.3 5.9 3.5.2.5.5.7 1 .7h4.1c.6 0 .9-.4.8-1-1.4-5.1-6.2-8.7-11.8-8.7-7.4 0-12.8 5.6-12.8 12.8 0 7.3 5.4 12.8 12.8 12.8 5.7 0 10.5-3.6 11.8-8.7.1-.6-.2-.9-.8-.9h-4.1c-.5 0-.8.2-1 .7-1 2.2-3.3 3.5-5.9 3.5-4.4 0-7.2-2.9-7.2-7.3.1-4.5 2.9-7.4 7.2-7.4zM198.6 34.7c-7.1 0-12.8 5.6-12.8 12.8 0 7.3 5.7 12.8 12.8 12.8 7.1 0 12.8-5.6 12.8-12.8 0-7.3-5.7-12.8-12.8-12.8zm0 20.1c-4 0-7.2-2.9-7.2-7.3s3.2-7.3 7.2-7.3 7.2 2.9 7.2 7.3-3.2 7.3-7.2 7.3zM256.7 34.7h-3.9c-.6 0-.9.3-.9.9v22.9c0 .6.3.9.9.9h3.9c.6 0 .9-.3.9-.9v-23c0-.5-.3-.8-.9-.8zM282.4 50.2c2.6-1.4 4.3-4.1 4.3-7.1 0-4.7-3.8-8.5-8.4-8.5h-8.6c-.6 0-.9.3-.9.9v22.9c0 .6.3.9.9.9h3.9c.6 0 .9-.3.9-.9v-7.2h2.2l6 7.6c.3.4.6.5 1.1.5h4.5c.7 0 1-.5.5-1.1l-6.4-8zm-4.1-3.9h-3.9V40h3.9c1.5 0 2.8 1.4 2.8 3.2.1 1.7-1.2 3.1-2.8 3.1zM308.9 34.7c-7.1 0-12.8 5.6-12.8 12.8 0 7.3 5.7 12.8 12.8 12.8 7.1 0 12.8-5.6 12.8-12.8 0-7.3-5.7-12.8-12.8-12.8zm0 20.1c-4 0-7.2-2.9-7.2-7.3s3.2-7.3 7.2-7.3 7.2 2.9 7.2 7.3-3.2 7.3-7.2 7.3z"></path></svg>
