<?xml version="1.0" encoding="utf-8"?>
<!-- Generator: Adobe Illustrator 22.1.0, SVG Export Plug-In . SVG Version: 6.00 Build 0)  -->
<svg version="1.1" id="Laag_1" xmlns="http://www.w3.org/2000/svg" xmlns:xlink="http://www.w3.org/1999/xlink" x="0px" y="0px"
	 viewBox="0 0 648.3 182.7" style="enable-background:new 0 0 648.3 182.7;" xml:space="preserve">
<style type="text/css">
	.st0{fill:#FFFFFF;}
	.st1{fill:#00366C;}
	.st2{fill:#EB690B;}
	.st3{fill:#51B3DB;}
</style>
<g id="Hypernode_logo_pos">
	<path class="st2" d="M154.7,41.8c-1.8,0-3.3,1.5-3.3,3.3l0,19.1c0,1.4-1.1,2.5-2.5,2.5h-28.4c-1.4,0-2.5-1.1-2.5-2.5l0-19.1
		c0-1.8-1.5-3.3-3.3-3.3c-1.8,0-3.3,1.5-3.3,3.3l0,19.1l0,0v0v0h0c0,5,4.1,9.1,9.1,9.1h10.9v17c0,1.8,1.5,3.3,3.3,3.3
		s3.3-1.5,3.3-3.3v-17h10.9c5,0,9.1-4.1,9.1-9.1l0-19.1C158,43.2,156.5,41.8,154.7,41.8z"/>
	<path id="by_Byte" class="st3" d="M557.6,138.1c0.1-0.7,0.4-2.6,0.3-4.2c-0.1-1.9-0.8-3.7-2.1-5.2c-1.3-1.4-3.1-2.2-5.3-2.2l-0.4,0
		c-5.8,0.2-9.6,4.4-10.6,11c-0.5,3.6,0.1,6.4,1.8,8.3c1.3,1.4,4,2.2,6.3,2.2l0.3,0c4.2-0.1,6.5-1.6,8.9-4.5l0.2-0.2l-3.7-2.3
		l-0.1,0.1c-1.4,1.4-2.6,2.1-4.9,2.1l-0.1,0c-1,0-1.7-0.3-2.3-0.9c-1.6-1.8-0.9-4.4-0.9-4.4H557.6z M545.6,134.2
		c0.6-2.2,2.2-3.5,4.3-3.5l0.2,0c1,0,1.3,0.3,1.9,0.9c0.5,0.5,0.7,1.3,0.8,2.2l0,1h-7.2L545.6,134.2z M499.4,127.5
		c-2,0-3.5,0.5-4.8,1.6l-0.7,0.6l2.5-11h-5.8l-6.5,29.4h7c7,0,14.1-5.1,14.1-13.2C505.1,130.3,502.9,127.5,499.4,127.5z M492,143.5
		c-0.3,0-0.6,0-0.8,0l-0.4-0.1l1.1-4.7c1.1-4.8,3.6-6.1,4.9-6.1c0.9,0,2.3,0.4,2.3,3.4C499.1,140.5,495.4,143.5,492,143.5z
		 M533.6,142.9c-2.3,0.5-1.6-1.7-1.6-1.7l2.2-9.1h4.2l1.1-4.7h-4.4l1.3-5.9H531l-1.4,5.9h-3.9v0l-2,0h-0.1l-3.8,0l-5.6,13.4
		l-2.6-13.4h-6l4.6,19.7l0,0c0,0.9-0.3,1.6-0.9,2.3c-1.3,1.3-3.6,1.8-4.7,1.9l1.6,4.7c7.1-0.2,10.8-7.9,10.8-8l6.8-15.9h4.5l-2.1,9
		c-0.2,0.8-0.3,1.5-0.3,2.2c0,2.8,2.2,4.7,5.4,4.7c2.5,0,4.5-0.2,7.8-1.9l-2-4.2C535,142.5,534.4,142.7,533.6,142.9z M449.4,133.2
		c-1.9,0-3.7,0.8-5,2.1v-6.7c0-0.7-0.5-1.2-1.2-1.2s-1.2,0.5-1.2,1.2v18c0,0.7,0.5,1.2,1.2,1.2s1.2-0.5,1.2-1.2v-0.6
		c1.3,1.3,3,2.1,5,2.1c4,0,7.1-3.4,7.1-7.4C456.5,136.5,453.4,133.2,449.4,133.2z M449.4,145.6c-2.6,0-4.7-2.2-4.7-5
		c0-2.8,2.2-5,4.7-5c2.6,0,4.7,2.2,4.7,5C454.1,143.4,452,145.6,449.4,145.6z M470.9,133.2c-0.6-0.2-1.3,0-1.6,0.7
		c0,0-1.2,3.1-2.6,6.4c-0.6,1.4-1.2,2.9-1.7,4.2l-4.9-10.7c-0.3-0.6-1-0.9-1.6-0.6c-0.6,0.3-0.9,1-0.6,1.6l5.8,12.8
		c-0.1,0.2-0.2,0.4-0.2,0.5l0,0c-0.2,0.6-0.6,1-0.9,1.3c-0.4,0.3-0.8,0.4-1.3,0.4c-0.4,0-0.9-0.1-1.5-0.4c-0.6-0.3-1.3,0-1.6,0.6
		c-0.3,0.6,0,1.3,0.6,1.6c0.9,0.4,1.7,0.6,2.5,0.6c1.1,0,2-0.4,2.8-0.9c0.8-0.6,1.3-1.4,1.7-2.3l0,0c0.8-1.9,5.8-14.2,5.8-14.2
		C471.8,134.2,471.5,133.5,470.9,133.2z"/>
	<path class="st1" d="M577.1,30.6c-4.3,0-7.7,3.5-7.7,7.7c0,4.3,3.5,7.7,7.7,7.7c4.3,0,7.7-3.5,7.7-7.7
		C584.8,34.1,581.3,30.6,577.1,30.6z M577.1,44.8c-3.6,0-6.5-2.9-6.5-6.5c0-3.6,2.9-6.5,6.5-6.5c3.6,0,6.5,2.9,6.5,6.5
		C583.6,41.9,580.6,44.8,577.1,44.8z M577.6,35.3h-2.8l-0.4,0.2l-0.2,0.4v5.6c0,0.3,0.3,0.6,0.6,0.6s0.6-0.3,0.6-0.6v-5h2.2
		c0.6,0,1,0.4,1,1c0,0.6-0.5,1-1,1h-0.8c-0.3,0-0.6,0.3-0.6,0.6s0.3,0.6,0.6,0.6h0.8c0.1,0,0.2,0,0.2,0c0,0,0.1,0,0.1,0
		c0.3,0,0.6,0.2,0.6,0.6v1.3c0,0.3,0.3,0.6,0.6,0.6s0.6-0.3,0.6-0.6v-1.3c0-0.5-0.2-0.9-0.5-1.2c0.4-0.4,0.6-0.9,0.6-1.5
		C579.9,36.2,578.9,35.3,577.6,35.3z M93.1,41.9c-1.8,0-3.3,1.5-3.3,3.3v19.3H61.3V45.2c0-1.8-1.5-3.3-3.3-3.3s-3.3,1.5-3.3,3.3
		v45.1c0,1.8,1.5,3.3,3.3,3.3s3.3-1.5,3.3-3.3V71.1h28.5v19.1c0,1.8,1.5,3.3,3.3,3.3s3.3-1.5,3.3-3.3V45.2
		C96.4,43.4,94.9,41.9,93.1,41.9z M235.2,48.5H261c1.8,0,3.3-1.5,3.3-3.3c0-1.8-1.5-3.3-3.3-3.3h-25.8c-4.6,0-8.4,3.8-8.4,8.4v34.9
		c0,4.6,3.8,8.4,8.4,8.4H261c1.8,0,3.3-1.5,3.3-3.3c0-1.8-1.5-3.3-3.3-3.3h-25.8c-1,0-1.8-0.8-1.8-1.8V70.7H256
		c1.8,0,3.3-1.5,3.3-3.3c0-1.8-1.5-3.3-3.3-3.3h-22.5V50.3C233.4,49.3,234.2,48.5,235.2,48.5z M379.3,41.9c-1.8,0-3.3,1.5-3.3,3.3
		v35.9l-31.2-38c-0.9-1.1-2.3-1.5-3.7-1c-1.3,0.5-2.2,1.7-2.2,3.1v45.1c0,1.8,1.5,3.3,3.3,3.3s3.3-1.5,3.3-3.3l0-35.9l31.2,38
		c0.9,1.1,2.3,1.5,3.7,1c1.3-0.5,2.2-1.7,2.2-3.1V45.2C382.6,43.4,381.1,41.9,379.3,41.9z M531.2,48.5H557c1.8,0,3.3-1.5,3.3-3.3
		c0-1.8-1.5-3.3-3.3-3.3h-25.8c-4.6,0-8.4,3.8-8.4,8.4v34.9c0,4.6,3.8,8.4,8.4,8.4H557c1.8,0,3.3-1.5,3.3-3.3c0-1.8-1.5-3.3-3.3-3.3
		h-25.8c-1,0-1.8-0.8-1.8-1.8V70.7h22.5c1.8,0,3.3-1.5,3.3-3.3c0-1.8-1.5-3.3-3.3-3.3h-22.5V50.3C529.4,49.3,530.2,48.5,531.2,48.5z
		 M202.8,44.1c-3.2-1.6-7-2.2-11.6-2.2h-15.3c0,0,0,0-0.1,0c-1.8,0-3.3,1.5-3.3,3.3v45.1c0,1.8,1.5,3.3,3.3,3.3s3.3-1.5,3.3-3.3v-15
		h11.8c5.6,0,10.6-1.5,14.2-4.4c3.7-2.9,5.8-7.4,5.8-12.3v-0.2c0-2.5-0.4-4.8-1.2-7C208.4,48.3,206,45.7,202.8,44.1z M204.3,58.6
		c0,3.1-1.2,5.3-3.3,7.1c-2.2,1.8-5.6,3-10.1,3h-11.8V48.5h12.1c5.2,0,8.5,1.1,10.3,2.6c0.9,0.8,1.6,1.6,2,2.8
		c0.5,1.2,0.7,2.7,0.7,4.5V58.6z M313.8,44c-3-1.5-6.7-2.1-11-2.1h-18.6c0,0,0,0-0.1,0c-1.8,0-3.3,1.5-3.3,3.3v45.1
		c0,1.8,1.5,3.3,3.3,3.3s3.3-1.5,3.3-3.3V48.5h15.4c4.9,0,7.9,1,9.6,2.4c0.8,0.7,1.4,1.5,1.9,2.6c0.4,1.1,0.7,2.5,0.7,4.2v0.2
		c0,2.9-1.1,4.9-3.1,6.6c-2,1.6-5.2,2.7-9.4,2.7h-6.1c-1.8,0-3.3,1.5-3.3,3.3c0,1.8,1.5,3.3,3.3,3.3h12.3c3.3,0,5.9,2.7,5.9,5.9
		v10.2c0,1.8,1.5,3.3,3.3,3.3s3.3-1.5,3.3-3.3l0-10.2c0-4.2-2.1-7.8-5.2-10.1c0,0,0,0,0,0c3.5-2.8,5.6-7,5.6-11.7v-0.2
		c0-2.4-0.3-4.6-1.2-6.6C319.2,48,316.9,45.5,313.8,44z M422.9,40.4c-7.2,0-13.7,3-18.4,7.9c-4.7,4.8-7.6,11.5-7.6,18.9
		c0,7.3,2.9,14,7.6,18.9c4.7,4.8,11.2,7.9,18.4,7.9c7.2,0,13.7-3,18.4-7.9c4.7-4.8,7.6-11.5,7.6-18.9c0-7.3-2.9-14-7.6-18.9
		C436.6,43.5,430.1,40.4,422.9,40.4z M436.5,81.5c-3.5,3.6-8.3,5.9-13.6,5.9c-5.3,0-10.1-2.2-13.6-5.9c-3.5-3.6-5.7-8.7-5.7-14.3
		c0-5.6,2.2-10.6,5.7-14.3c3.5-3.6,8.3-5.9,13.6-5.9c5.3,0,10.1,2.2,13.6,5.9c3.5,3.6,5.7,8.7,5.7,14.3
		C442.3,72.8,440.1,77.8,436.5,81.5z M482,41.9h-16.6c-0.9,0-1.7,0.4-2.3,1s-1,1.5-1,2.3v45.1c0,0.9,0.4,1.7,1,2.3
		c0.6,0.6,1.5,1,2.3,1H482c14.3,0,25.8-11.6,25.8-25.8C507.8,53.4,496.3,41.9,482,41.9z M495.6,81.3c-3.5,3.5-8.3,5.6-13.6,5.6
		h-13.3V48.5H482c5.3,0,10.1,2.1,13.6,5.6c3.5,3.5,5.6,8.3,5.6,13.6C501.2,73,499.1,77.8,495.6,81.3z"/>
</g>
</svg>
