<?xml version="1.0" encoding="UTF-8" standalone="no"?>
<!-- Created with Inkscape (http://www.inkscape.org/) -->

<svg
   xmlns:dc="http://purl.org/dc/elements/1.1/"
   xmlns:cc="http://creativecommons.org/ns#"
   xmlns:rdf="http://www.w3.org/1999/02/22-rdf-syntax-ns#"
   xmlns:svg="http://www.w3.org/2000/svg"
   xmlns="http://www.w3.org/2000/svg"
   xmlns:sodipodi="http://sodipodi.sourceforge.net/DTD/sodipodi-0.dtd"
   xmlns:inkscape="http://www.inkscape.org/namespaces/inkscape"
   id="svg2"
   version="1.1"
   inkscape:version="0.48.5 r10040"
   width="702.5"
   height="327.5"
   xml:space="preserve"
   sodipodi:docname="logo_name_tagline.eps"><metadata
     id="metadata8"><rdf:RDF><cc:Work
         rdf:about=""><dc:format>image/svg+xml</dc:format><dc:type
           rdf:resource="http://purl.org/dc/dcmitype/StillImage" /><dc:title></dc:title></cc:Work></rdf:RDF></metadata><defs
     id="defs6"><clipPath
       clipPathUnits="userSpaceOnUse"
       id="clipPath16"><path
         d="M 0,262 562,262 562,0 0,0 0,262 z"
         id="path18" /></clipPath></defs><sodipodi:namedview
     pagecolor="#ffffff"
     bordercolor="#666666"
     borderopacity="1"
     objecttolerance="10"
     gridtolerance="10"
     guidetolerance="10"
     inkscape:pageopacity="0"
     inkscape:pageshadow="2"
     inkscape:window-width="1345"
     inkscape:window-height="727"
     id="namedview4"
     showgrid="false"
     inkscape:zoom="0.53238434"
     inkscape:cx="355.00668"
     inkscape:cy="163.75"
     inkscape:window-x="0"
     inkscape:window-y="39"
     inkscape:window-maximized="0"
     inkscape:current-layer="g10" /><g
     id="g10"
     inkscape:groupmode="layer"
     inkscape:label="logo_name_tagline"
     transform="matrix(1.25,0,0,-1.25,0,327.5)"><g
       id="g12"><g
         id="g14"
         clip-path="url(#clipPath16)"><g
           id="g20"
           transform="translate(325.36,200.83)"><path
             d="M 0,0 1.03,3.48 C -11.31,3.49 -9.98,11.7 -9.1,19.66 L 4.52,15.22 8.8,29.63 34.61,7.34 c 0.86,-4.97 -6.76,-12 -3.95,-13.14 7.05,-2.85 6.33,-7.11 0.73,-7.11 -5.87,0 -6.75,-2.16 -8.22,-3.81 L 0,0 z"
             style="fill:#ffffff;fill-opacity:1;fill-rule:evenodd;stroke:none"
             id="path22" /></g><g
           id="g24"
           transform="translate(191.01,171.5)"><path
             d="m 0,0 -1.46,6.16 c -2.12,4.33 -4.84,6.29 -7.92,6.74 1.45,-7.82 1.81,-15.64 -2.35,-23.46 l -6.4,4.12 c -1.86,-1.98 0.86,-4.73 2.75,-7.33 l -8.24,-6.79 c 1.12,-2.75 5.85,-0.48 11.91,3.67 l -5.32,-7.88 1.84,-1.47 c 3.92,2.44 5.96,5.82 6.97,9.72 l 3.29,-4.77 c 1.5,3.41 1.08,7.93 0.37,9.53 -0.63,1.42 2.13,1.58 0.55,2.02 -1.3,0.36 1.39,8.59 4.01,9.74"
             style="fill:#ffffff;fill-opacity:1;fill-rule:evenodd;stroke:none"
             id="path26" /></g><g
           id="g28"
           transform="translate(236.19,174.14)"><path
             d="m 0,0 c -3.85,0.36 -6.19,-0.99 -6.16,-4.99 11.42,-8.6 14.32,-15.5 6.45,-20.24 0.16,-2.73 3.47,0.96 6.99,3.68 0.72,0.56 1.06,-0.77 1.81,-0.16 L 4.98,-33.44 c 1.99,-0.59 5.39,7.66 6.15,8.04 1.14,0.58 0.6,-8.54 2.07,-8.63 1.4,0.69 3.31,4.63 4.71,5.33 1.73,0.87 2.88,-1.31 3.79,2 l -10.56,13.21 6.75,0.29 -2.91,4.67 -6.6,-0.73 C 4.1,-6.17 3.75,1.48 0,0"
             style="fill:#ffffff;fill-opacity:1;fill-rule:evenodd;stroke:none"
             id="path30" /></g><g
           id="g32"
           transform="translate(312.4,128.39)"><path
             d="M 0,0 12.47,-4.58 C 12.31,-6.52 10.43,-7.18 6.42,-6.23 8.53,-19.3 5.46,-22.46 1.47,-23.83 l 1.83,9.72 c -0.39,-0.69 -1.24,-1.22 -1.65,-1.84 -2.36,-3.51 -4.64,-5.89 -7.7,-6.96 l -2.2,2.56 c 3.69,0.42 6.38,2.35 7.15,7.15 -3.39,-0.94 -7.59,-3.79 -8.8,0.37 0.19,1.44 -2.04,1.99 0.92,2.02 0.95,0.01 3.27,-1.19 5.32,-0.92 0.91,0.12 1.55,2.05 2.74,2.2 -3.61,0.65 -6.77,1.83 -7.33,6.05 4.26,-2.09 6.89,-2.72 6.79,-0.92 L 0,0 z"
             style="fill:#ffffff;fill-opacity:1;fill-rule:evenodd;stroke:none"
             id="path34" /></g><g
           id="g36"
           transform="translate(373.82,167.08)"><path
             d="m 0,0 7.33,7.51 -0.18,8.44 c 3.12,-0.73 3.96,-3.74 3.66,-7.89 3.62,4.84 9,8.26 12.47,6.6 -0.93,-0.71 0.96,-0.49 0.18,-1.1 -1.2,-0.94 -4.92,-2.68 -6.05,-3.48 C 14.4,7.92 14.55,7.24 14.85,6.96 18.51,8.9 22.22,10.11 26.4,5.31 25.39,5.35 25.86,3.87 24.93,4.03 21.1,4.69 16.62,5.69 15.4,3.48 c 4.5,0.14 7.63,-1.27 8.25,-5.5 0.02,-0.56 -0.13,-0.59 -1.47,0 -1.5,0.66 -4.27,2.02 -5.68,2.75 -1.56,0.81 -0.95,-0.39 -2.75,0.37 1.93,-2.13 3.59,-4.33 3.48,-6.97 L 12.46,-2.39 1.1,-3.85 0,0 z"
             style="fill:#ffffff;fill-opacity:1;fill-rule:evenodd;stroke:none"
             id="path38" /></g><g
           id="g40"
           transform="translate(320.36,208)"><path
             d="M 0,0 C -0.61,1.61 -1.17,4.85 -0.54,4.8 0,4.68 0.22,4.77 0.41,5 -0.24,6.25 -0.79,8.08 0.14,7.83 L 1.29,7.16 1.69,6.21 C 2.48,5.38 3.23,4.6 3.44,5.13 2.97,6.05 2.68,6.03 2.3,6.61 c -1.37,2.07 -2.79,3.42 -4.05,3.58 -1.64,1.44 -1.68,0.83 -1.68,0.27 0.6,-5.07 1.28,-8.21 2.76,-10.79 C -0.25,-0.75 0.11,-0.65 0,0 m 32.31,-13.89 c 0.17,0.64 0.1,0.83 0.4,1.49 0.37,0.12 0.49,0.02 0.68,-0.41 0.14,-0.37 0.23,-0.68 0.19,-0.87 -0.5,-0.76 0.25,-1.1 0.08,-3.24 0.3,-1.61 0.26,-1.98 2.02,-1.96 2.65,-0.36 4.47,0.55 4.31,1.89 -0.64,1.31 -1.77,1.89 -2.49,2.7 -1.55,1.76 -2.9,1.9 -3.98,2.02 -0.3,0.25 -0.27,0.77 -0.2,1.01 0.42,0.34 0.86,0.49 1.28,0.47 1.77,2.67 2.73,6.23 2.9,10.66 -3.93,3.6 -7.38,7.72 -11.4,11 -3.15,2.56 -6.76,4.51 -10.99,6.54 C 11.74,15.16 10.28,7.62 9.44,-1.88 9.28,-3.75 9.49,-5.09 9.65,-6.6 c 2.3,-3.06 5.19,-5.67 7.96,-7.49 3.22,-2.11 6.08,-4 9.3,-5.53 1.95,1.24 4.63,2.84 5.4,5.73 m -174.46,-46.6 c 1.7,2.22 3.37,4.41 4.31,9.24 0.53,-0.23 0.97,-0.52 1.15,-0.94 0.26,-0.74 -0.08,-1.36 0.2,-2.09 0.35,-0.93 1.32,-1.84 1.82,-1.28 0.91,2.34 0.69,5.11 0,7.75 -0.06,0.22 0.01,2.14 0.47,2.57 0.51,0.47 0.58,0.66 0.41,1.41 -0.25,1 -0.06,2.55 0.07,3.45 0.27,2.04 1.06,2.94 1.88,2.42 0.36,-0.23 0.05,0.44 0.14,0.47 -1.31,3.23 -1.42,5.5 -1.22,6.41 1.2,-0.17 1.42,0.08 1.22,0.27 -0.24,0.43 -0.9,0.94 -0.75,1.28 0.22,0.49 -0.05,0.61 -0.27,0.95 -1.41,2.18 -3.24,3.36 -5.39,3.84 -0.05,-0.2 -0.33,0.03 -0.33,-0.14 -0.05,-0.54 -0.04,-1.19 -0.35,-1.22 0.45,-0.53 0.59,-0.93 0.68,-1.48 0.7,-3.7 0.8,-7.48 0.68,-11.19 -0.98,-6.89 -2.64,-8.53 -4.52,-8.16 -1.42,0.67 -2.13,1.01 -3.18,2.23 -0.38,0.17 -0.66,0.97 -0.94,1.07 -1.52,0.57 -1.61,-0.52 -1.35,-1.14 0.25,-0.75 0.61,-1.44 1.42,-1.82 0.1,-0.2 0.41,-0.88 0.34,-1.08 0.65,-0.72 1.31,-1.3 2.15,-1.82 0.44,-0.14 0.81,-0.3 0.68,-0.82 -0.56,-0.83 -0.84,-1.18 -1.22,-1.27 -3.88,-1.12 -6.38,-2.81 -6.8,-4.12 -0.19,-0.51 -0.12,-0.71 -0.48,-0.88 -0.28,-0.22 -0.3,-0.45 0.13,-0.67 0.2,-0.11 0.41,-0.17 0.61,-0.2 l 0.31,0 c 0.1,0.01 0.2,0.03 0.3,0.07 0.91,0.32 1.87,1.23 2.76,1.61 1.24,0.54 2.37,0.64 3.38,1.83 1.49,1.06 3.89,3.02 3.64,0.67 -0.95,-1.82 -1.87,-2.98 -3.31,-4.99 -0.18,-0.54 -0.37,-1.69 -0.2,-2.23 -0.22,-0.25 -0.64,-0.26 -0.74,-0.47 -0.42,-0.91 1.03,-1.17 2.3,0.47 m 71.27,-5.86 c 2.21,0.68 3.58,2.86 2.71,9.37 0.17,1.74 0.66,1.79 1.14,1.08 1.18,-1.57 2,-3.47 2.29,-5.94 0.08,-0.57 0.22,-1.04 0.88,-0.47 0.13,0.83 0.19,1.95 -0.2,2.91 -0.28,0.67 -0.56,1.09 -1.01,1.89 -2.13,3.72 -6.07,7.59 -7.42,8.63 -0.46,0.34 -0.81,0.13 -0.95,0.2 -1.31,1.22 -1.48,1.89 -1.01,2.23 2.06,1.34 5.59,0 6.61,0.32 0.16,0.14 0.25,0.11 0.07,0.41 -0.9,1.83 -2.36,2.86 -5.06,2.16 -2.02,-0.23 -3.54,-0.81 -3.91,-0.33 -0.24,1.02 -4.77,5.18 -7.62,6.87 -1.07,-0.03 -1.66,-0.21 -2.16,0.14 -0.62,1.66 -0.96,1.9 -1.21,1.55 l -1.35,-1.69 c -0.37,-0.81 -0.38,-1.37 -0.2,-1.82 l 1.41,-0.8 c 6.45,-3.12 9.09,-8.19 9.31,-14.51 -0.61,-2.28 -0.87,-3.05 -3.78,-3.91 -1.3,-0.49 -1.26,-2.25 0.68,-1.01 0.74,0.52 1.74,1.59 3.37,3.17 0.35,0.35 0.9,1.25 1.08,1.96 0.27,0.81 0.39,1.16 0.87,0.74 1.36,-1.39 0.85,-7.27 0.35,-8.77 -0.55,-1.38 -0.98,-1.95 -1.7,-2.97 -0.18,-0.31 0.01,-0.59 0.75,-0.2 1.96,2.75 2.91,5.03 3.1,7.42 -0.05,0.2 0.03,0.86 0,1 -0.31,1.48 -0.22,1.22 0.47,1.02 1.54,-0.09 2.51,-6.53 1.95,-9.91 -0.2,-0.64 -0.15,-1.02 0.54,-0.74 m 66.36,-35.61 c 2.48,1.73 3.73,6.11 3.44,11.8 -0.05,1.14 -0.48,2.22 -0.74,3.51 0.15,1.31 0.36,1.57 0.48,1.61 1.24,-0.18 2.16,-0.96 2.55,-0.93 l 1.36,0 c 1.05,0.45 0.69,1.52 -0.14,1.48 -0.77,0.06 -0.95,-0.32 -1.75,0.19 -1.04,0.67 -2.62,1.91 -4.11,2.37 -1.13,0.2 -1.81,-0.11 -2.3,-0.07 -0.41,0.04 -1.49,0.43 -2.56,0.4 -0.45,0.11 -0.35,-0.47 -0.06,-1.28 -0.11,-0.81 -0.37,-2.57 -1.56,-2.96 -1.39,-0.46 -3.1,0.41 -3.3,0.74 -0.62,0.98 -1.9,1.3 -1.89,0.8 -0.04,-0.83 -0.02,-1.7 1.08,-2.08 1.13,-0.21 2.11,-0.58 3.1,-0.95 1.23,-0.48 2.09,-0.9 2.77,-1.07 0.26,-0.08 0.2,-0.54 0.13,-0.75 -0.7,-1.51 -1.48,-2.12 -2.7,-2.56 -2.89,-0.82 -4.48,-0.14 -6,0.6 -0.43,0.08 -1.02,0.11 -0.27,-1.01 0.15,-0.02 0.43,-1.47 2.63,-1.41 1.73,0.03 4.16,1.12 4.99,1.95 0.29,0.29 0.37,0.13 0.68,0.07 0.19,-0.53 0.66,-1.85 -0.14,-3.16 -0.36,-1.36 -2.96,-4.84 -4.59,-5.33 -1.39,-0.43 -1.69,-0.09 -1.42,-0.88 0.16,-0.81 1.85,-1.73 4.33,0.54 1.86,1.7 4.74,6.31 4.85,7.42 0.07,0.72 1.26,0.69 1.55,0.6 0.68,-0.2 0.1,-3.47 -0.07,-4.18 -0.57,-2.39 -1.79,-3.95 -1.95,-4.18 -1.18,-1.68 1.07,-1.67 1.61,-1.28 m -3.37,0.74 c 0.28,0.6 0.76,0.81 1.55,1.96 0.91,1.3 1.37,3.72 1.29,3.57 -0.21,0.46 -0.5,0.62 -0.95,-0.4 -1.07,-3.67 -6.98,-8.16 -8.56,-6.95 -4.44,3.37 -2.09,4.47 0.07,4.05 1.98,-0.4 4.54,4.33 4.1,4.24 0.1,0.65 -0.17,0.6 -0.46,0.48 -6.23,-2.54 -6.6,0.26 -7.56,2.02 -1.11,2.23 -0.06,3.23 2.9,1.95 3.05,-0.98 4.56,-0.46 5.4,0.41 0.46,0.37 0.02,0.32 -0.33,0.67 -0.81,0.79 -3.96,1.12 -4.12,1.42 -0.99,0.56 -1.77,1.75 -2.22,3.91 0.08,0.87 0.44,1.5 2.02,1.08 1.47,-0.41 2.63,-2.23 3.91,-0.81 0.1,0.23 0.45,0.61 0.34,0.88 -2.07,4.76 -2.4,7.49 -12.42,12.27 -0.25,0.12 -0.71,0.55 -1.68,1.76 l 0.47,0.6 c 0.21,1.94 -1.2,-0.13 -1.75,0.4 -0.65,1.21 1.23,4.52 2.9,8.98 2.87,7.64 3.66,9.1 2.42,15.92 -0.54,2.96 -0.63,6.2 -0.74,8.42 -4.38,-1.03 -8.35,0.46 -16.05,1.22 l -0.74,0.81 c -1.35,-0.18 -2.7,-0.09 -4.05,0.26 -0.29,-0.04 -0.2,0.25 0.14,0.68 0.33,0.42 0.32,0.68 0.4,1.08 -6.77,3.49 -9.96,7.13 -12.81,10.05 1.29,-2.91 15.55,-16.46 14.83,-18.68 0.29,-1.16 -1.8,-3.5 -4.04,-6.21 -0.32,-0.3 -0.28,-0.64 -0.07,-1.48 -0.13,-0.19 -0.61,-0.26 -1.28,-0.27 -10.18,1.18 -16.8,3.91 -23.67,6.55 -3.6,1.43 -7.28,2.43 -10.85,2.42 -0.59,-0.14 -1.04,-0.46 0.87,-1.76 1.02,-0.75 1.92,-1.69 2.77,-2.62 0.56,-0.18 1.43,0.13 2.16,0.27 3.75,0.66 5.67,-0.57 7.95,-3.44 0.69,-0.86 0.12,-1.95 0.14,-2.03 -0.4,-0.76 -1.96,-0.37 -3.85,0.07 -0.48,0.11 -1.05,0.08 -1.55,0.21 -0.36,-0.1 -0.53,-0.36 0.88,-1.42 2.53,-2.42 4.49,-4.66 7.41,-8.83 1.18,-1.7 1.44,-7.72 -1.14,-8.17 -0.8,-0.13 -1.48,0.43 -2.09,1.22 -0.32,0.6 -0.63,0.5 -0.95,-0.34 -1.48,-2.92 -2.76,-3.45 -4.24,-3.44 -3.27,0.2 -1.63,2.56 -2.16,5.66 -0.06,0.07 -0.42,-0.15 -0.47,-0.41 -0.96,-4.04 -4.72,-5.53 -5.53,-4.78 -2.33,1.57 0.11,4.11 1.34,6.48 0.43,0.72 0.61,1.92 0.67,3.37 -0.12,0.44 -0.39,0.57 -1.07,-0.27 -0.87,-1.12 -1.35,-1.61 -2.23,-2.36 -1.62,-1.49 -4.72,-0.82 -4.44,1.62 0.15,0.65 0.8,1.52 1.88,2.16 1.96,1.14 3.73,2.28 2.16,5.72 0.5,0.89 0.45,1.42 -0.13,0.88 -0.08,-0.06 -0.32,-0.22 -0.41,-0.33 -0.87,2.33 -2.13,3.85 -3.84,6.06 -1.09,1.41 -2.7,2.88 -4.46,3.51 -0.75,0.27 -1.33,1 -1.48,1.76 -0.3,1.57 1.03,2.7 1.01,3.23 0.53,1.12 0.71,3.99 3.17,2.9 0.25,-0.15 0.83,0.36 1.62,1.28 0.49,0.99 1.84,0.92 4.46,-0.4 2.09,-0.93 3.91,2.14 15.3,0.13 0.6,0.04 0.28,0.27 -0.2,0.68 -3.54,2 -7.45,1.92 -8.09,3.11 0.04,0.29 -0.45,0.66 -0.07,1.88 -0.27,0.68 -3.12,0.32 -4.85,1 -1.75,0.69 -4.49,4.5 -7.36,7.43 -1.46,1.77 -2.14,3.7 -3.17,5.33 -0.93,1.47 -2.29,2.76 -2.9,4.11 -0.62,1.38 -0.52,1.59 -0.81,2.9 0.04,1.39 -1.05,0.75 -0.87,-1.08 1.04,-5.29 3.8,-9.87 7.89,-13.89 1.61,-1.15 0.07,-4.01 -0.88,-6.55 -6.03,-11.85 -12.16,-20.39 -18.55,-27.37 -0.7,-0.93 -1.46,-1.11 -1.95,-2.1 -1.26,-2.59 -3.63,-4.78 -5.27,-5.59 -0.67,-0.44 -1.54,0.03 -1.54,0.74 0,0.7 -0.56,0.95 -0.88,0.54 -0.27,-0.35 -2.65,-1.92 -3.18,-1.48 -1.07,-0.03 -1.43,0.54 -1.27,1.88 -2.53,4.06 -5.56,7.7 -8.09,11.74 l -0.61,0 c -1.35,2.28 -2.31,4.42 -3.3,6.88 -1.05,0.56 -1.58,-0.06 -0.67,-1.62 1.98,-2.98 0.78,-5.05 -0.35,-4.52 -0.64,0.25 -1.16,0.42 0.54,-3.1 0.27,-0.49 0.34,-0.99 0.07,-1.49 -0.96,-1.82 -0.61,-3.09 -0.61,-4.31 -0.42,-2.17 -3.24,-1.67 -4.79,0.94 -1.98,-3.18 -3.01,-5.04 -5.25,-6.87 -1.9,-1.41 -4.9,-0.24 -3.99,3.03 0.23,0.93 0.56,1.81 1.15,2.56 -0.29,-0.01 -0.28,0.43 -1.07,-0.2 -0.31,-0.24 -1.11,-0.65 -1.29,-0.88 -1.48,-1.9 -3.47,-0.83 -4.78,-0.27 -0.91,0.38 -1.61,2.04 -1.08,2.5 0,0.13 -0.01,0.64 1.14,1.01 1.64,2.06 3.59,4 7.55,4.72 -0.71,0.77 -1.71,1.59 -2.29,2.49 -0.18,0.28 -0.04,0.85 -0.27,1.09 -0.59,0.59 -1,1.43 -1.21,2.21 -0.54,1.41 0.85,3.41 3.37,1.83 1.12,-0.98 2.25,-2.97 3.91,-2.83 2.19,-0.12 2.01,7.6 1.91,17.94 0,0.55 -0.36,0.81 -0.36,0.81 -0.84,1.33 -1.33,1.23 -0.13,3.31 2.3,3.14 7,-0.71 9.37,-4.87 0.76,-1.13 1.57,-1.96 2.7,-2.89 1.72,-1.78 2.87,-5.09 4.65,-7.76 1.72,-2.56 3.83,-4.99 6.95,-7.55 0.75,-0.22 1.01,1.74 1.01,3.98 0,0.29 0.43,0.23 1.69,-0.54 1.1,-0.3 0.21,1.05 -0.81,1.68 -0.65,0.4 0,1.22 1.01,2.16 1.04,0.89 1.74,8.03 2.56,9.3 1.19,2.77 0.31,1.42 2.97,9.18 0.83,2.9 2.3,6.15 3.3,8.97 0.5,1.4 0.67,3.35 1.02,4.45 0.86,2.77 1,2.72 1.75,5.53 -0.07,0.78 -0.69,0.45 -1.35,0.07 -0.91,-0.66 -1.97,-1.23 -3.24,-1.69 -13.69,-5.85 -43.25,-14.99 -65.82,-19.9 -4.46,-0.97 -6.48,-1.97 -8.56,-2.49 -3.17,-0.8 -7.8,-1.58 -10.93,-1.96 -4.78,-0.56 -13.66,-3.04 -19.83,-4.25 -3.61,-0.7 -10.64,-3.75 -15.91,-5.32 -5.45,-1.63 -17.22,-9.7 -19.49,-12.81 -0.3,-0.41 -0.72,-0.24 -0.74,-0.41 -1.13,0.53 -1.94,-0.39 -2.7,-1.55 -1.86,-2.39 -2.74,-4.86 -4.05,-6.54 -1.37,-1.76 -2.73,-3.25 -5.33,-6.95 -0.37,-0.54 -4.74,-6.36 -5.19,-9.44 -0.69,-4.8 -0.15,-11.12 0.95,-15.71 0.47,-2.01 1.36,-3.32 1.89,-4.45 0.42,-0.9 0.52,-1.83 0.67,-1.96 0.23,-0.2 0.31,-0.55 0.81,-1.75 1.7,-4.03 -2.5,-3.92 -3.91,-1.22 -0.15,0.42 -0.72,0.19 -1.28,0 -2.67,2.53 -5,5.49 -6,10.05 -0.18,-0.05 -0.36,0.01 -0.54,0.14 -0.24,0.78 -0.2,1.57 -0.07,2.36 -0.32,-0.15 -0.09,0.11 -0.41,0.33 0.11,1.66 0.42,3.57 1.42,6.48 -0.01,0.5 -0.35,0.49 -1.14,0.61 -1.03,0.1 0.33,4.52 1.54,6.33 0.35,4.32 4.47,10.39 6.48,13.96 1.51,2.69 6.04,8.27 12.14,13.09 5.02,3.96 11.19,7.39 16.05,9.51 2.73,1.19 4.67,2.22 5.53,3.5 0.12,0.2 0.53,0.04 1.01,-0.47 3.64,2.12 10.45,4.91 15.98,6.08 3.85,0.8 3.37,0.75 5.06,1.34 1.32,0.46 8.98,1.28 16.06,2.83 2.74,0.61 8.22,1.74 14.9,3.84 4.42,1.4 11.69,2.44 16.05,3.45 3.56,0.82 6.1,2.56 8.63,3.57 3.17,1.25 4.72,1.47 6.6,2.02 1.09,0.32 3.24,1.25 3.45,1.28 0.42,0.09 0.29,-0.53 0.67,-0.54 4.14,1.21 4.09,1.92 11.27,3.98 0.52,0.15 0.58,0.75 1.14,1.01 1.05,0.51 3.01,0.99 4.04,1.49 1.03,0.49 4.18,1.78 7.75,4.25 2.46,1.68 5.1,4.5 7.43,5.8 4.77,2.63 7.51,2.96 8.09,3.37 0.49,0.23 -0.04,0.71 -0.61,1.14 -0.43,1.18 2.22,2.23 4.72,1.96 -0.03,0.37 0.22,0.62 0,0.8 0.14,0.34 0.78,0.32 2.16,-0.06 0.63,0.32 0.23,1.08 -1.28,1.89 -0.88,0.89 0.32,1.22 2.84,1.22 0.55,-0.14 0.93,-0.24 1.68,-0.75 4.21,0.94 8.49,0.96 12.88,-0.4 0.34,0.53 0.69,1.06 1.42,0.81 3.35,-0.96 5.1,-2.8 9.1,-3.64 0.54,0.07 1.09,0.37 1.62,0.81 0.85,0.39 1.86,0.32 3.45,-1.49 0.31,-0.06 0.62,-0.03 0.93,0.28 l 0.14,0.4 c 0.28,0.09 1.39,-0.74 3.84,-2.56 4.83,-3.01 7.33,-3.49 9.78,-3.91 0.62,0.25 -0.23,-0.9 -0.47,-1.69 2.71,0.33 3.86,0.21 5.26,-0.41 4.31,0.2 6.63,-0.26 10.79,0 8.67,0.55 21.03,1.07 27.59,-0.47 0.22,-0.21 0.29,0.1 0.33,0.47 -0.03,0.25 -0.32,0.47 -0.33,0.68 -0.37,3.3 -0.31,7.85 0.13,10.38 0.11,0.7 0.49,1.04 0.67,1.35 0.31,0.36 0.76,0.45 1.62,-0.27 2.57,-1.75 6.63,-3.18 8.56,-5.26 0.41,-0.27 0.49,0.03 0.54,1.01 2,5.6 2,7.31 7.76,12.82 0.18,0.24 0.27,0.58 0.27,1.01 0.89,0.99 5.54,-2.4 8.76,-4.12 0.52,-2.07 1.65,-3.26 1.89,-1.34 0.04,0.28 0.26,0.52 0.47,0.74 3.59,-1.69 6.45,-4.61 9.18,-8.37 1.09,-1.49 2.94,-3.2 4.32,-4.86 1.71,-2.06 2.43,-3.4 3.91,-5.05 0.35,-0.63 0.47,-1.51 0.47,-2.49 l 0.94,-1.02 c 0.41,-1.62 -0.17,-5.06 -1.88,-12.01 -0.29,-1.49 -0.31,-0.82 1.28,-2.76 1.66,-4.13 -1.96,-4.84 -6.75,-5.46 -0.08,0.43 -0.64,-0.68 -1.89,-1.82 l -3.91,-4.59 c -0.19,-0.36 -0.69,-0.29 -1.41,0.07 -0.25,0.06 -0.7,-0.16 -0.95,-0.47 -0.37,0.04 -0.39,0.22 -0.47,0.61 -0.12,0.59 -0.41,1.71 -0.74,1.62 -0.27,-0.09 -1.58,-0.86 -1.75,-0.74 -0.51,-0.46 -1.3,0.61 -2.5,1.67 -0.43,0.38 -0.82,0.49 -1.28,0.96 -0.93,0.6 -1.06,0.64 -0.88,0 2.12,-3.41 4.63,-6.68 7.82,-9.72 -0.56,-1.43 -0.24,-1.82 1.15,-0.95 7.66,-4.88 17.4,-5.61 28.27,-2.69 0.3,3.29 0.74,2.34 2.76,4.59 0.33,0.36 0.13,3.59 -0.34,6.8 0.04,0.8 0.71,1.06 1.48,1.49 1.47,0.37 2.96,-1.32 4.25,-3.3 0.18,-0.44 0.24,-1.25 0.06,-2.23 -0.07,-0.1 0.13,-0.67 0.54,-0.2 5.12,5.69 9.81,6.24 12.34,4.65 1.44,-1.75 0.69,-3.22 -2.89,-4.31 -1.06,-0.33 -2.12,-1.01 -2.3,-1.21 -0.31,-0.36 0.16,-0.48 0.74,-0.48 3.25,-0.48 6.15,-1.34 7.16,-4.24 0.42,-3.85 -4.81,-0.43 -7.62,-0.95 -0.5,-0.09 -0.54,-0.27 -0.15,-0.54 2.3,-0.8 5.62,-3.51 5,-5.93 -1.52,-3.76 -5.38,2.42 -6.68,1.81 -0.31,0.07 -0.63,0.14 -0.34,-0.4 1.9,-1.33 1.91,-4.92 0.27,-5.59 -1.37,-0.7 -2.9,0.88 -4.65,3.09 -2.95,-1.82 -5.68,-1.81 -8.42,-1.96 -0.69,-0.14 -0.49,1.39 0.26,2.24 5.87,0.02 7.67,0.89 8.23,2.02 0.11,0.22 0.37,0.12 0.67,-0.2 0.42,-1.24 0.73,-2.51 2.23,-3.51 2.19,-0.34 0.13,2.9 -2.23,4.72 -0.91,0.82 -0.33,1.93 1.69,1.55 2.19,-0.4 4.31,-1 5.94,-3.1 1.78,-0.85 1.21,2.19 -1.15,3.5 -1.79,1.11 -3.36,1.13 -5.87,1.02 -0.35,-0.05 -0.85,0.52 0,1.01 2.71,1.49 5.27,1.55 8.36,0.81 2.16,-0.35 2.72,0.69 1.69,1.68 -3.39,1.91 -7.1,1.15 -9.78,-0.74 l -1.42,1.08 c 2.87,3.79 4.87,2.93 8.9,6.27 1.03,0.91 -1.35,1.29 -2.83,0.75 -4.11,-2.05 -5.64,-4.28 -6.95,-6.34 l -2.56,-0.28 c -0.59,2.8 0.87,4.43 -0.2,5.94 -0.96,1.29 -1.75,0.53 -1.28,-1.62 0.06,-1.55 0.21,-2.83 -0.14,-4.79 -2.3,-3.11 -3.82,-5.19 -3.64,-6.67 l -1.13,-0.4 c 1.01,-3.1 0.25,-3.41 -2.44,-4.32 -6.46,-1.3 -12.52,-2.32 -18.82,-1.88 -0.67,0.04 -1.36,0.19 -2.02,0.07 -2.64,-0.53 -5.83,0.39 -9.3,0.99 0.15,0.59 0.41,1.08 0.74,1.5 -1.28,0.33 -2.64,0.95 -3.92,1.13 -0.81,0.21 -1.43,1.01 -2.22,1.83 0.02,0.54 0.1,0.82 0.47,1.01 l -0.07,0.6 c -3.11,1.24 -7.18,4.4 -12.61,10.25 -1.38,-0.43 -3.14,-0.69 -4.92,-0.93 -1.86,0.2 -4.21,-2.27 -6.27,-4.53 -2.25,-2.78 -4.93,-7.78 -5.06,-10.11 -0.08,-1.39 -0.7,-2.02 -1.49,-4.32 -1.1,-3.97 -2.86,-12.52 -2.29,-14.56 -1.3,-0.68 -0.63,-0.89 0.48,-1.89 0.33,-0.15 0.24,-0.62 -0.14,-1.28 1.59,-4.23 5.06,-6.83 7.48,-11.87 0.38,-0.95 2.35,-0.6 3.11,-1.02 1.92,-1.04 3.98,-3.18 5.93,-2.69 1.99,0.64 2.5,-1.85 1.89,-2.76 -1.03,-1.18 -2.9,-1.48 -5.19,-1.22 -0.56,0.2 -0.39,-0.85 0.48,-1.49 1.16,-1.53 -0.02,-1.66 0,-3.64 -0.56,-7.66 -2.85,-10.07 -5.27,-11.73 -2.39,-1 -3.81,0.94 -2.97,2.83"
             style="fill:#000000;fill-opacity:1;fill-rule:evenodd;stroke:none"
             id="path42" /></g><g
           id="g44"
           transform="translate(333.98,204.43)"><path
             d="m 0,0 3.38,9.31 c 0.07,1.59 0.05,2.78 0.26,3.57 0.12,0.39 0.42,0.89 0.62,1.22 1.06,0.44 1.78,0.57 3.03,0.47 0.16,-0.13 0.55,-0.43 0.63,-0.69 1.34,-4.8 3.18,-7.21 3.68,-10.1 0.12,-0.67 0.08,-1.14 0.27,-1.82 0.06,-0.38 3.66,2.01 5.74,3.71 0.33,0.05 1.23,-0.77 2.02,-1.42 0.03,-0.86 -1.14,-1.92 -1.35,-2.49 -0.19,-0.54 -0.52,-2.48 -0.94,-3.92 -0.79,-2.66 -2.18,-5.38 -3.04,-7.55 -0.84,-0.26 -2.73,1.02 -2.76,1.55 -0.26,0.17 2.16,4.69 2.76,7.55 -0.18,0.13 -0.25,0.27 -0.6,-0.13 L 10.66,-3.3 C 9.69,-3.84 9.78,-3.37 9.38,-2.69 9.26,-1.55 9.29,-0.27 9.11,0.88 8.66,3.75 8.1,6.47 6.95,8.91 6.74,8.93 6.65,8.73 6.41,8.23 5.26,6.38 4.05,3.47 3.18,1.35 2.82,0.49 2.55,0.55 2.1,-0.27 1.69,-0.61 1.11,-0.77 0.34,-0.74 0.14,-0.49 0.03,-0.24 0,0"
             style="fill:#000000;fill-opacity:1;fill-rule:evenodd;stroke:none"
             id="path46" /></g><g
           id="g48"
           transform="translate(118.76,82.99)"><path
             d="m 0,0 -8.96,0 -5.4,28.08 -10.48,-28.76 -3.31,0 -10.49,28.76 -5.61,-28.08 -8.92,0 10.48,52.1 4.91,0 11.26,-35.08 11.02,35.08 4.87,0 L 0,0 z"
             style="fill:#000000;fill-opacity:1;fill-rule:nonzero;stroke:none"
             id="path50" /></g><g
           id="g52"
           transform="translate(144.24,100.94)"><path
             d="m 0,0 c -1.52,0.31 -2.66,0.46 -3.41,0.46 -7.02,0 -10.52,-2.3 -10.52,-6.89 0,-3.41 1.98,-5.12 5.93,-5.12 5.33,0 8,2.66 8,8 L 0,0 z m 0.85,-14.11 c -0.8,-1.33 -2.21,-2.41 -4.21,-3.25 -2,-0.84 -4.1,-1.27 -6.28,-1.27 -4.09,0 -7.31,1.03 -9.66,3.08 -2.34,2.05 -3.52,4.96 -3.52,8.73 0,4.4 1.65,7.85 4.96,10.33 3.3,2.5 8,3.74 14.09,3.74 1.04,0 2.27,-0.18 3.69,-0.53 0,4.47 -2.83,6.72 -8.49,6.72 -3.34,0 -6.13,-0.56 -8.38,-1.68 l -1.92,6.9 c 3.05,1.47 6.69,2.2 10.91,2.2 5.8,0 10.05,-1.32 12.75,-3.96 2.7,-2.64 4.06,-7.65 4.06,-15.02 l 0,-8.13 c 0,-5.08 1.02,-8.26 3.05,-9.56 -0.73,-1.29 -1.55,-2.07 -2.45,-2.37 -0.9,-0.3 -1.93,-0.45 -3.09,-0.45 -1.28,0 -2.43,0.48 -3.45,1.43 -1.02,0.95 -1.71,1.97 -2.06,3.09"
             style="fill:#000000;fill-opacity:1;fill-rule:nonzero;stroke:none"
             id="path54" /></g><g
           id="g56"
           transform="translate(179.53,76.91)"><path
             d="m 0,0 c -0.95,-2.53 -2.98,-4.63 -6.1,-6.3 -3.12,-1.68 -6.75,-2.51 -10.89,-2.51 l 0,7.86 c 6.84,0 10.27,1.71 10.27,5.15 0,2.27 -0.95,5.75 -2.85,10.45 l -11.9,29.53 9.2,0 10.38,-26.3 9.35,26.3 9.21,0 L 0,0 z"
             style="fill:#000000;fill-opacity:1;fill-rule:nonzero;stroke:none"
             id="path58" /></g><g
           id="g60"
           transform="translate(225.87,83.03)"><path
             d="m 0,0 -11.19,17.24 -4.27,-4.52 0,-12.72 -8.89,0 0,52.24 8.89,2.13 0,-30.92 12.69,14.61 10.7,0 L -4.94,23.63 10.56,0 0,0 z"
             style="fill:#000000;fill-opacity:1;fill-rule:nonzero;stroke:none"
             id="path62" /></g><g
           id="g64"
           transform="translate(243.79,83.03)"><path
             d="m 0,0 0,30.78 -4.87,0 0,7.28 13.86,0 L 8.99,0 0,0 z M 4.58,52.81 C 6,52.81 7.22,52.3 8.22,51.3 9.23,50.29 9.73,49.07 9.73,47.66 9.73,46.23 9.23,45.02 8.22,44.01 7.22,43 6,42.5 4.58,42.5 c -1.42,0 -2.63,0.5 -3.64,1.51 -1.01,1.01 -1.51,2.22 -1.51,3.65 0,1.41 0.5,2.63 1.51,3.64 1.01,1 2.22,1.51 3.64,1.51"
             style="fill:#000000;fill-opacity:1;fill-rule:nonzero;stroke:none"
             id="path66" /></g><g
           id="g68"
           transform="translate(287.61,83.03)"><path
             d="m 0,0 0,22 c 0,3.25 -0.63,5.61 -1.87,7.1 -1.24,1.5 -3.28,2.25 -6.09,2.25 -1.31,0 -2.7,-0.37 -4.18,-1.11 -1.48,-0.73 -2.63,-1.64 -3.47,-2.73 l 0,-27.51 -8.88,0 0,38.06 6.4,0 1.63,-3.55 c 2.42,2.84 5.98,4.26 10.7,4.26 4.52,0 8.1,-1.36 10.72,-4.07 2.61,-2.71 3.92,-6.5 3.92,-11.35 L 8.88,0 0,0 z"
             style="fill:#000000;fill-opacity:1;fill-rule:nonzero;stroke:none"
             id="path70" /></g><g
           id="g72"
           transform="translate(377.1,82.99)"><path
             d="m 0,0 -8.96,0 -5.4,28.08 -10.49,-28.76 -3.3,0 -10.49,28.76 -5.62,-28.08 -8.91,0 10.48,52.1 4.9,0 11.27,-35.08 11.02,35.08 4.87,0 L 0,0 z"
             style="fill:#000000;fill-opacity:1;fill-rule:nonzero;stroke:none"
             id="path74" /></g><g
           id="g76"
           transform="translate(389.36,106.02)"><path
             d="M 0,0 18.69,0 C 18.07,5.57 14.99,8.36 9.45,8.36 4.38,8.36 1.23,5.57 0,0 m 26.86,-6.68 -27.18,0 c 0.16,-3.03 1.2,-5.39 3.12,-7.07 1.92,-1.69 4.5,-2.53 7.75,-2.53 4.05,0 7.13,1.06 9.24,3.17 l 3.45,-6.79 c -3.13,-2.54 -7.79,-3.81 -14,-3.81 -5.81,0 -10.4,1.71 -13.78,5.11 -3.37,3.39 -5.06,8.14 -5.06,14.23 0,5.99 1.85,10.85 5.56,14.57 3.71,3.72 8.16,5.58 13.34,5.58 5.53,0 9.96,-1.65 13.3,-4.94 3.34,-3.29 5.01,-7.49 5.01,-12.58 0,-1.09 -0.25,-2.74 -0.75,-4.94"
             style="fill:#000000;fill-opacity:1;fill-rule:nonzero;stroke:none"
             id="path78" /></g><g
           id="g80"
           transform="translate(448.57,111.99)"><path
             d="m 0,0 c -1.9,1.52 -3.88,2.28 -5.94,2.28 -3.56,0 -6.29,-1.09 -8.21,-3.25 -1.92,-2.17 -2.88,-5.28 -2.88,-9.33 0,-7.92 3.81,-11.87 11.44,-11.87 0.86,0 1.9,0.25 3.15,0.76 1.24,0.51 2.06,1.02 2.44,1.55 L 0,0 z m 0,-28.96 0,2.31 c -0.74,-0.81 -1.98,-1.52 -3.74,-2.12 -1.75,-0.6 -3.56,-0.91 -5.44,-0.91 -5.3,0 -9.48,1.69 -12.52,5.05 -3.05,3.37 -4.57,8.06 -4.57,14.08 0,6.01 1.75,10.91 5.24,14.69 3.5,3.78 7.87,5.67 13.13,5.67 2.9,0 5.52,-0.59 7.9,-1.78 l 0,15.25 8.88,2.13 0,-54.37 -8.88,0 z"
             style="fill:#000000;fill-opacity:1;fill-rule:nonzero;stroke:none"
             id="path82" /></g><g
           id="g84"
           transform="translate(468.72,83.03)"><path
             d="m 0,0 0,30.78 -4.87,0 0,7.28 13.86,0 L 8.99,0 0,0 z m 4.58,52.81 c 1.42,0 2.64,-0.51 3.65,-1.51 1,-1.01 1.5,-2.23 1.5,-3.64 0,-1.43 -0.5,-2.64 -1.5,-3.65 C 7.22,43 6,42.5 4.58,42.5 c -1.42,0 -2.63,0.5 -3.64,1.51 -1.01,1.01 -1.51,2.22 -1.51,3.65 0,1.41 0.5,2.63 1.51,3.64 1.01,1 2.22,1.51 3.64,1.51"
             style="fill:#000000;fill-opacity:1;fill-rule:nonzero;stroke:none"
             id="path86" /></g><g
           id="g88"
           transform="translate(508.38,100.94)"><path
             d="m 0,0 c -1.52,0.31 -2.66,0.46 -3.41,0.46 -7.02,0 -10.52,-2.3 -10.52,-6.89 0,-3.41 1.98,-5.12 5.93,-5.12 5.33,0 8,2.66 8,8 L 0,0 z m 0.85,-14.11 c -0.8,-1.33 -2.21,-2.41 -4.21,-3.25 -2,-0.84 -4.09,-1.27 -6.28,-1.27 -4.09,0 -7.31,1.03 -9.66,3.08 -2.34,2.05 -3.52,4.96 -3.52,8.73 0,4.4 1.65,7.85 4.96,10.33 3.3,2.5 8,3.74 14.09,3.74 1.04,0 2.27,-0.18 3.7,-0.53 0,4.47 -2.84,6.72 -8.5,6.72 -3.34,0 -6.13,-0.56 -8.38,-1.68 l -1.92,6.9 c 3.05,1.47 6.69,2.2 10.91,2.2 5.8,0 10.05,-1.32 12.75,-3.96 C 7.5,14.26 8.85,9.25 8.85,1.88 l 0,-8.13 c 0,-5.08 1.02,-8.26 3.06,-9.56 -0.74,-1.29 -1.56,-2.07 -2.46,-2.37 -0.9,-0.3 -1.93,-0.45 -3.09,-0.45 -1.28,0 -2.43,0.48 -3.44,1.43 -1.03,0.95 -1.72,1.97 -2.07,3.09"
             style="fill:#000000;fill-opacity:1;fill-rule:nonzero;stroke:none"
             id="path90" /></g><g
           id="g92"
           transform="translate(137.43,43.67)"><path
             d="m 0,0 c -0.54,0.11 -0.95,0.16 -1.22,0.16 -2.5,0 -3.75,-0.81 -3.75,-2.45 0,-1.22 0.71,-1.83 2.12,-1.83 1.9,0 2.85,0.95 2.85,2.85 L 0,0 z m 0.3,-5.03 c -0.28,-0.47 -0.78,-0.86 -1.49,-1.15 -0.71,-0.3 -1.46,-0.45 -2.24,-0.45 -1.46,0 -2.61,0.36 -3.44,1.09 -0.84,0.73 -1.26,1.77 -1.26,3.11 0,1.57 0.59,2.79 1.77,3.68 1.18,0.89 2.85,1.33 5.02,1.33 0.37,0 0.81,-0.06 1.31,-0.19 0,1.59 -1,2.39 -3.02,2.39 -1.19,0 -2.19,-0.2 -2.99,-0.59 l -0.68,2.45 c 1.09,0.53 2.38,0.78 3.88,0.78 2.07,0 3.59,-0.47 4.54,-1.4 C 2.67,5.07 3.15,3.29 3.15,0.67 l 0,-2.9 c 0,-1.81 0.36,-2.94 1.08,-3.4 C 3.97,-6.09 3.68,-6.37 3.37,-6.47 3.04,-6.58 2.68,-6.63 2.26,-6.63 c -0.45,0 -0.86,0.17 -1.23,0.5 -0.36,0.34 -0.6,0.71 -0.73,1.1"
             style="fill:#000000;fill-opacity:1;fill-rule:nonzero;stroke:none"
             id="path94" /></g><g
           id="g96"
           transform="translate(157.31,37.04)"><path
             d="M 0,0 -1.16,0 -4.87,8.32 -8.59,0 l -1.16,0 -5.11,13.8 3.33,0 2.72,-8.08 3.31,8.08 1.15,0 3.42,-8.14 2.94,8.14 3.11,0 L 0,0 z"
             style="fill:#000000;fill-opacity:1;fill-rule:nonzero;stroke:none"
             id="path98" /></g><g
           id="g100"
           transform="translate(166.83,45.47)"><path
             d="M 0,0 6.66,0 C 6.44,1.99 5.34,2.98 3.37,2.98 1.56,2.98 0.44,1.99 0,0 m 9.57,-2.37 -9.68,0 c 0.06,-1.08 0.43,-1.92 1.11,-2.52 0.69,-0.6 1.61,-0.9 2.76,-0.9 1.44,0 2.54,0.37 3.3,1.13 L 8.28,-7.07 C 7.16,-7.98 5.51,-8.43 3.3,-8.43 c -2.07,0 -3.71,0.61 -4.91,1.82 -1.2,1.21 -1.8,2.89 -1.8,5.06 0,2.14 0.66,3.87 1.98,5.19 1.32,1.32 2.9,1.98 4.75,1.98 1.97,0 3.54,-0.58 4.73,-1.75 C 9.24,2.69 9.84,1.2 9.84,-0.61 9.84,-1 9.75,-1.59 9.57,-2.37"
             style="fill:#000000;fill-opacity:1;fill-rule:nonzero;stroke:none"
             id="path102" /></g><g
           id="g104"
           transform="translate(178.36,38.17)"><path
             d="M 0,0 1.13,2.51 C 2.07,1.76 3.14,1.38 4.33,1.38 5.56,1.38 6.18,1.83 6.18,2.7 6.18,3.21 5.99,3.64 5.62,3.97 5.25,4.3 4.53,4.69 3.46,5.13 1.12,6.1 -0.05,7.46 -0.05,9.21 c 0,1.17 0.45,2.08 1.34,2.73 0.9,0.66 2.04,0.98 3.43,0.98 1.41,0 2.73,-0.31 3.98,-0.94 L 7.79,9.52 C 7.09,10.11 6.13,10.41 4.9,10.41 3.79,10.41 3.24,9.97 3.24,9.09 3.24,8.75 3.42,8.43 3.78,8.16 4.15,7.88 4.93,7.5 6.11,7.04 7.3,6.57 8.16,6 8.68,5.33 9.2,4.67 9.47,3.87 9.47,2.92 9.47,1.66 9,0.67 8.07,-0.05 7.14,-0.77 5.87,-1.13 4.27,-1.13 3.36,-1.13 2.64,-1.06 2.1,-0.91 1.56,-0.76 0.86,-0.46 0,0"
             style="fill:#000000;fill-opacity:1;fill-rule:nonzero;stroke:none"
             id="path106" /></g><g
           id="g108"
           transform="translate(192.76,44.1)"><path
             d="m 0,0 c 0,-2.99 1.08,-4.48 3.23,-4.48 0.99,0 1.77,0.39 2.35,1.17 C 6.16,-2.54 6.44,-1.44 6.44,0 6.44,2.94 5.37,4.42 3.23,4.42 2.24,4.42 1.46,4.02 0.88,3.25 0.29,2.47 0,1.39 0,0 m -3.29,0 c 0,2.06 0.61,3.75 1.79,5.04 1.2,1.31 2.77,1.95 4.73,1.95 2.06,0 3.65,-0.62 4.79,-1.87 C 9.16,3.87 9.73,2.17 9.73,0 9.73,-2.16 9.16,-3.88 7.99,-5.15 6.84,-6.42 5.25,-7.06 3.23,-7.06 c -2.06,0 -3.66,0.64 -4.8,1.93 -1.14,1.28 -1.72,2.99 -1.72,5.13"
             style="fill:#000000;fill-opacity:1;fill-rule:nonzero;stroke:none"
             id="path110" /></g><g
           id="g112"
           transform="translate(220.71,37.29)"><path
             d="m 0,0 0,8.49 c 0,1.78 -0.79,2.67 -2.38,2.67 -0.48,0 -0.94,-0.14 -1.37,-0.41 -0.44,-0.28 -0.75,-0.6 -0.93,-0.97 l 0,-9.78 -3.15,0 0,8.98 c 0,0.67 -0.22,1.2 -0.63,1.59 -0.41,0.39 -1,0.59 -1.75,0.59 -0.39,0 -0.82,-0.15 -1.29,-0.44 -0.46,-0.29 -0.81,-0.62 -1.02,-0.98 l 0,-9.74 -3.16,0 0,13.55 2.17,0 0.65,-1.19 c 0.88,0.96 2.01,1.44 3.4,1.44 1.8,0 3.15,-0.48 4.06,-1.46 0.4,0.44 0.95,0.8 1.66,1.07 0.71,0.27 1.42,0.39 2.13,0.39 1.51,0 2.68,-0.43 3.52,-1.29 0.84,-0.87 1.26,-2.06 1.26,-3.56 L 3.17,0 0,0 z"
             style="fill:#000000;fill-opacity:1;fill-rule:nonzero;stroke:none"
             id="path114" /></g><g
           id="g116"
           transform="translate(229.83,45.47)"><path
             d="M 0,0 6.65,0 C 6.43,1.99 5.34,2.98 3.36,2.98 1.55,2.98 0.44,1.99 0,0 m 9.56,-2.37 -9.68,0 c 0.06,-1.08 0.43,-1.92 1.12,-2.52 0.68,-0.6 1.6,-0.9 2.75,-0.9 1.44,0 2.54,0.37 3.3,1.13 L 8.27,-7.07 C 7.15,-7.98 5.5,-8.43 3.29,-8.43 c -2.07,0 -3.71,0.61 -4.91,1.82 -1.2,1.21 -1.8,2.89 -1.8,5.06 0,2.14 0.66,3.87 1.98,5.19 1.32,1.32 2.9,1.98 4.75,1.98 1.97,0 3.54,-0.58 4.73,-1.75 C 9.24,2.69 9.83,1.2 9.83,-0.61 9.83,-1 9.74,-1.59 9.56,-2.37"
             style="fill:#000000;fill-opacity:1;fill-rule:nonzero;stroke:none"
             id="path118" /></g><g
           id="g120"
           transform="translate(263.31,37.04)"><path
             d="M 0,0 -1.15,0 -4.87,8.32 -8.58,0 l -1.16,0 -5.12,13.8 3.33,0 2.72,-8.08 3.31,8.08 1.15,0 3.42,-8.14 2.94,8.14 3.12,0 L 0,0 z"
             style="fill:#000000;fill-opacity:1;fill-rule:nonzero;stroke:none"
             id="path122" /></g><g
           id="g124"
           transform="translate(272.84,45.47)"><path
             d="M 0,0 6.65,0 C 6.43,1.99 5.33,2.98 3.36,2.98 1.56,2.98 0.44,1.99 0,0 m 9.56,-2.37 -9.68,0 c 0.06,-1.08 0.43,-1.92 1.12,-2.52 0.68,-0.6 1.6,-0.9 2.76,-0.9 1.44,0 2.53,0.37 3.28,1.13 L 8.27,-7.07 C 7.16,-7.98 5.5,-8.43 3.29,-8.43 c -2.07,0 -3.71,0.61 -4.91,1.82 -1.2,1.21 -1.8,2.89 -1.8,5.06 0,2.14 0.66,3.87 1.98,5.19 1.32,1.32 2.9,1.98 4.75,1.98 1.97,0 3.54,-0.58 4.73,-1.75 C 9.23,2.69 9.83,1.2 9.83,-0.61 9.83,-1 9.74,-1.59 9.56,-2.37"
             style="fill:#000000;fill-opacity:1;fill-rule:nonzero;stroke:none"
             id="path126" /></g><g
           id="g128"
           transform="translate(288.11,47.62)"><path
             d="m 0,0 0,-7.07 c 0.46,-0.55 1.09,-0.83 1.89,-0.83 1.53,0 2.6,0.36 3.24,1.09 0.64,0.72 0.95,1.88 0.95,3.48 0,2.75 -1.3,4.13 -3.94,4.13 C 1.2,0.8 0.49,0.53 0,0 m -0.67,-9.58 -0.71,-1 -1.78,0 0,18.85 L 0,9.03 0,2.7 c 0.84,0.52 1.76,0.77 2.76,0.77 1.99,0 3.58,-0.62 4.79,-1.88 1.22,-1.25 1.83,-2.85 1.83,-4.81 0,-2.27 -0.62,-4.06 -1.83,-5.38 -1.23,-1.32 -2.89,-1.98 -4.98,-1.98 -1.26,0 -2.34,0.33 -3.24,1"
             style="fill:#000000;fill-opacity:1;fill-rule:nonzero;stroke:none"
             id="path130" /></g><g
           id="g132"
           transform="translate(308.99,47.6)"><path
             d="m 0,0 c -0.68,0.54 -1.38,0.82 -2.12,0.82 -1.26,0 -2.24,-0.39 -2.92,-1.17 -0.68,-0.77 -1.02,-1.87 -1.02,-3.31 0,-2.82 1.36,-4.23 4.07,-4.23 0.3,0 0.68,0.09 1.12,0.27 0.45,0.18 0.73,0.37 0.87,0.55 L 0,0 z m 0,-10.31 0,0.82 c -0.26,-0.28 -0.71,-0.54 -1.33,-0.75 -0.62,-0.21 -1.27,-0.32 -1.93,-0.32 -1.89,0 -3.38,0.59 -4.47,1.8 -1.07,1.19 -1.62,2.86 -1.62,5.01 0,2.14 0.62,3.88 1.87,5.22 1.24,1.35 2.8,2.02 4.67,2.02 1.03,0 1.97,-0.21 2.81,-0.63 l 0,5.43 3.16,0.76 0,-19.36 -3.16,0 z"
             style="fill:#000000;fill-opacity:1;fill-rule:nonzero;stroke:none"
             id="path134" /></g><g
           id="g136"
           transform="translate(317.85,45.47)"><path
             d="M 0,0 6.65,0 C 6.43,1.99 5.34,2.98 3.37,2.98 1.56,2.98 0.44,1.99 0,0 m 9.56,-2.37 -9.68,0 c 0.06,-1.08 0.43,-1.92 1.12,-2.52 0.68,-0.6 1.6,-0.9 2.75,-0.9 1.45,0 2.55,0.37 3.3,1.13 L 8.27,-7.07 C 7.16,-7.98 5.5,-8.43 3.29,-8.43 c -2.06,0 -3.7,0.61 -4.91,1.82 -1.2,1.21 -1.8,2.89 -1.8,5.06 0,2.14 0.66,3.87 1.98,5.19 1.32,1.32 2.9,1.98 4.75,1.98 1.97,0 3.54,-0.58 4.74,-1.75 C 9.24,2.69 9.83,1.2 9.83,-0.61 9.83,-1 9.74,-1.59 9.56,-2.37"
             style="fill:#000000;fill-opacity:1;fill-rule:nonzero;stroke:none"
             id="path138" /></g><g
           id="g140"
           transform="translate(335.83,37.04)"><path
             d="m 0,0 -1.14,0 -6.12,13.8 3.46,0 3.25,-8.27 3.48,8.27 3.35,0 L 0,0 z"
             style="fill:#000000;fill-opacity:1;fill-rule:nonzero;stroke:none"
             id="path142" /></g><g
           id="g144"
           transform="translate(346.41,45.47)"><path
             d="M 0,0 6.66,0 C 6.43,1.99 5.34,2.98 3.36,2.98 1.55,2.98 0.43,1.99 0,0 m 9.56,-2.37 -9.68,0 c 0.06,-1.08 0.43,-1.92 1.12,-2.52 0.68,-0.6 1.6,-0.9 2.76,-0.9 1.44,0 2.53,0.37 3.29,1.13 L 8.27,-7.07 C 7.16,-7.98 5.5,-8.43 3.29,-8.43 c -2.07,0 -3.71,0.61 -4.91,1.82 -1.2,1.21 -1.8,2.89 -1.8,5.06 0,2.14 0.66,3.87 1.98,5.19 1.32,1.32 2.9,1.98 4.75,1.98 1.97,0 3.54,-0.58 4.73,-1.75 C 9.23,2.69 9.83,1.2 9.83,-0.61 9.83,-1 9.74,-1.59 9.56,-2.37"
             style="fill:#000000;fill-opacity:1;fill-rule:nonzero;stroke:none"
             id="path146" /></g><g
           id="g148"
           transform="translate(359.31,55.89)"><path
             d="m 0,0 3.17,0.76 0,-15.24 c 0,-1.66 0.5,-2.66 1.49,-2.98 -0.48,-0.93 -1.33,-1.39 -2.5,-1.39 -1.44,0 -2.16,0.99 -2.16,2.99 L 0,0 z"
             style="fill:#000000;fill-opacity:1;fill-rule:nonzero;stroke:none"
             id="path150" /></g><g
           id="g152"
           transform="translate(368.82,44.1)"><path
             d="m 0,0 c 0,-2.99 1.08,-4.48 3.22,-4.48 0.99,0 1.78,0.39 2.35,1.17 C 6.15,-2.54 6.44,-1.44 6.44,0 6.44,2.94 5.36,4.42 3.22,4.42 2.24,4.42 1.46,4.02 0.87,3.25 0.29,2.47 0,1.39 0,0 m -3.3,0 c 0,2.06 0.61,3.75 1.8,5.04 1.19,1.31 2.77,1.95 4.72,1.95 2.06,0 3.66,-0.62 4.8,-1.87 C 9.16,3.87 9.73,2.17 9.73,0 9.73,-2.16 9.15,-3.88 7.99,-5.15 6.83,-6.42 5.24,-7.06 3.22,-7.06 c -2.05,0 -3.65,0.64 -4.8,1.93 C -2.72,-3.85 -3.3,-2.14 -3.3,0"
             style="fill:#000000;fill-opacity:1;fill-rule:nonzero;stroke:none"
             id="path154" /></g><g
           id="g156"
           transform="translate(383.99,47.53)"><path
             d="m 0,0 0,-7.13 c 0.57,-0.46 1.24,-0.69 2.02,-0.69 1.45,0 2.5,0.34 3.14,1.04 0.63,0.7 0.95,1.8 0.95,3.3 0,1.6 -0.32,2.73 -0.94,3.39 C 4.53,0.56 3.48,0.89 2.03,0.89 1.27,0.89 0.59,0.59 0,0 m 0,-9.9 0,-5.66 -3.16,0 0,18.87 3.16,0 0,-0.91 c 0.8,0.78 1.77,1.16 2.92,1.16 4.32,0 6.48,-2.37 6.48,-7.13 0,-2.22 -0.59,-3.93 -1.79,-5.12 -1.19,-1.21 -2.82,-1.8 -4.89,-1.8 -0.99,0 -1.9,0.2 -2.72,0.59"
             style="fill:#000000;fill-opacity:1;fill-rule:nonzero;stroke:none"
             id="path158" /></g><g
           id="g160"
           transform="translate(411.87,37.29)"><path
             d="m 0,0 0,8.49 c 0,1.78 -0.8,2.67 -2.39,2.67 -0.47,0 -0.93,-0.14 -1.37,-0.41 -0.44,-0.28 -0.74,-0.6 -0.92,-0.97 l 0,-9.78 -3.16,0 0,8.98 c 0,0.67 -0.21,1.2 -0.63,1.59 -0.4,0.39 -0.99,0.59 -1.74,0.59 -0.4,0 -0.83,-0.15 -1.29,-0.44 -0.48,-0.29 -0.82,-0.62 -1.03,-0.98 l 0,-9.74 -3.16,0 0,13.55 2.18,0 0.64,-1.19 c 0.88,0.96 2.02,1.44 3.4,1.44 1.8,0 3.15,-0.48 4.06,-1.46 0.4,0.44 0.96,0.8 1.66,1.07 0.72,0.27 1.42,0.39 2.13,0.39 1.51,0 2.69,-0.43 3.53,-1.29 0.84,-0.87 1.26,-2.06 1.26,-3.56 L 3.17,0 0,0 z"
             style="fill:#000000;fill-opacity:1;fill-rule:nonzero;stroke:none"
             id="path162" /></g><g
           id="g164"
           transform="translate(420.98,45.47)"><path
             d="M 0,0 6.66,0 C 6.44,1.99 5.34,2.98 3.37,2.98 1.56,2.98 0.44,1.99 0,0 m 9.56,-2.37 -9.68,0 c 0.06,-1.08 0.44,-1.92 1.12,-2.52 0.68,-0.6 1.6,-0.9 2.76,-0.9 1.44,0 2.54,0.37 3.29,1.13 L 8.28,-7.07 C 7.16,-7.98 5.5,-8.43 3.29,-8.43 c -2.06,0 -3.71,0.61 -4.91,1.82 -1.2,1.21 -1.8,2.89 -1.8,5.06 0,2.14 0.66,3.87 1.99,5.19 1.31,1.32 2.9,1.98 4.75,1.98 1.96,0 3.54,-0.58 4.73,-1.75 C 9.23,2.69 9.83,1.2 9.83,-0.61 9.83,-1 9.74,-1.59 9.56,-2.37"
             style="fill:#000000;fill-opacity:1;fill-rule:nonzero;stroke:none"
             id="path166" /></g><g
           id="g168"
           transform="translate(442.06,37.29)"><path
             d="m 0,0 0,7.84 c 0,1.15 -0.22,1.99 -0.66,2.52 -0.44,0.54 -1.17,0.8 -2.17,0.8 -0.47,0 -0.96,-0.13 -1.49,-0.39 -0.53,-0.26 -0.94,-0.59 -1.23,-0.97 l 0,-9.8 -3.16,0 0,13.55 2.27,0 0.58,-1.26 c 0.87,1.01 2.13,1.51 3.81,1.51 1.61,0 2.88,-0.48 3.82,-1.45 0.93,-0.96 1.4,-2.3 1.4,-4.04 L 3.17,0 0,0 z"
             style="fill:#000000;fill-opacity:1;fill-rule:nonzero;stroke:none"
             id="path170" /></g><g
           id="g172"
           transform="translate(449.12,48.3)"><path
             d="m 0,0 -1.56,0 0,2.54 1.56,0 0,2.76 3.17,1.16 0,-3.92 3.71,0 0,-2.54 -3.71,0 0,-5.94 c 0,-0.97 0.15,-1.65 0.45,-2.05 0.31,-0.4 0.84,-0.6 1.6,-0.6 0.75,0 1.47,0.2 2.12,0.62 l 0,-2.91 c -0.73,-0.26 -1.78,-0.38 -3.13,-0.38 -1.36,0 -2.4,0.38 -3.12,1.14 C 0.37,-9.35 0,-8.27 0,-6.86 L 0,0 z"
             style="fill:#000000;fill-opacity:1;fill-rule:nonzero;stroke:none"
             id="path174" /></g></g></g></g></svg>