<?xml version="1.0" encoding="UTF-8" standalone="no"?>
<!-- Generator: Adobe Illustrator 23.0.1, SVG Export Plug-In . SVG Version: 6.00 Build 0)  -->

<svg
   xmlns:dc="http://purl.org/dc/elements/1.1/"
   xmlns:cc="http://creativecommons.org/ns#"
   xmlns:rdf="http://www.w3.org/1999/02/22-rdf-syntax-ns#"
   xmlns:svg="http://www.w3.org/2000/svg"
   xmlns="http://www.w3.org/2000/svg"
   xmlns:sodipodi="http://sodipodi.sourceforge.net/DTD/sodipodi-0.dtd"
   xmlns:inkscape="http://www.inkscape.org/namespaces/inkscape"
   version="1.1"
   id="Lag_1"
   x="0px"
   y="0px"
   viewBox="0 0 166.49 67.26"
   style="enable-background:new 0 0 166.49 67.26;"
   xml:space="preserve"
   sodipodi:docname="zibra_logo.svg"
   inkscape:version="0.92.3 (2405546, 2018-03-11)"><metadata
   id="metadata979"><rdf:RDF><cc:Work
       rdf:about=""><dc:format>image/svg+xml</dc:format><dc:type
         rdf:resource="http://purl.org/dc/dcmitype/StillImage" /></cc:Work></rdf:RDF></metadata><defs
   id="defs977" /><sodipodi:namedview
   pagecolor="#ffffff"
   bordercolor="#666666"
   borderopacity="1"
   objecttolerance="10"
   gridtolerance="10"
   guidetolerance="10"
   inkscape:pageopacity="0"
   inkscape:pageshadow="2"
   inkscape:window-width="1299"
   inkscape:window-height="713"
   id="namedview975"
   showgrid="false"
   inkscape:zoom="5.0813861"
   inkscape:cx="83.245003"
   inkscape:cy="33.630001"
   inkscape:window-x="67"
   inkscape:window-y="27"
   inkscape:window-maximized="1"
   inkscape:current-layer="Lag_1" />
<style
   type="text/css"
   id="style917">
	.st0{display:none;}
	.st1{display:inline;fill:#12100B;}
	.st2{font-family:'Avenir-Light';}
	.st3{font-size:64.9556px;}
	.st4{letter-spacing:-3;}
	.st5{letter-spacing:-5;}
	.st6{fill:#FFFFFF;}
	.st7{display:inline;fill:#95C235;}
	.st8{fill:#96C238;}
</style>
<text
   id="zibra_1_"
   transform="matrix(1 0 0 1 0.0327 49.1065)"
   class="st0"><tspan
     x="0"
     y="0"
     class="st1 st2 st3 st4"
     id="tspan919">z</tspan><tspan
     x="23.77"
     y="0"
     class="st1 st2 st3 st5"
     id="tspan921">ibr</tspan><tspan
     x="85.09"
     y="0"
     class="st1 st2 st3"
     id="tspan923">a</tspan></text>

<g
   id="g942"
   style="fill:#000000">
	<path
   class="st6"
   d="M40.98,57.22l2.21,7.46h0.04l2.33-7.46h2.04l2.37,7.46h0.04l2.21-7.46h2.04l-3.24,9.77H49l-2.41-7.34h-0.04   l-2.39,7.34h-2.02l-3.26-9.77H40.98z"
   id="path926"
   style="fill:#000000" />
	<path
   class="st6"
   d="M58.46,53.7c0,0.36-0.13,0.65-0.38,0.89c-0.25,0.23-0.56,0.35-0.91,0.35c-0.35,0-0.65-0.12-0.9-0.36   c-0.25-0.24-0.37-0.53-0.37-0.88c0-0.36,0.12-0.66,0.37-0.9c0.25-0.24,0.54-0.36,0.9-0.36c0.35,0,0.66,0.12,0.91,0.36   C58.33,53.04,58.46,53.34,58.46,53.7z M58.15,66.99h-1.94v-9.77h1.94V66.99z"
   id="path928"
   style="fill:#000000" />
	<path
   class="st6"
   d="M61.51,58.31c-0.01-0.41-0.03-0.78-0.06-1.09h1.83c0.03,0.25,0.05,0.53,0.06,0.86   c0.01,0.32,0.02,0.59,0.02,0.79h0.06c0.27-0.58,0.68-1.04,1.21-1.39c0.53-0.35,1.12-0.53,1.78-0.53c0.3,0,0.56,0.03,0.76,0.08   l-0.08,1.79c-0.27-0.07-0.57-0.1-0.89-0.1c-0.47,0-0.87,0.09-1.22,0.26c-0.34,0.17-0.63,0.4-0.86,0.69c-0.23,0.29-0.4,0.62-0.5,1   c-0.11,0.38-0.17,0.77-0.17,1.18v5.13h-1.94v-7.67C61.53,59.06,61.52,58.73,61.51,58.31z"
   id="path930"
   style="fill:#000000" />
	<path
   class="st6"
   d="M77.75,62.02c0,0.11,0,0.22,0,0.33c0,0.11-0.01,0.22-0.02,0.33h-7.77c0.01,0.41,0.11,0.79,0.28,1.16   c0.17,0.36,0.4,0.68,0.69,0.94c0.29,0.27,0.62,0.47,1,0.62c0.38,0.15,0.78,0.22,1.21,0.22c0.66,0,1.23-0.14,1.71-0.43   s0.86-0.64,1.13-1.05l1.36,1.09c-0.52,0.69-1.14,1.2-1.84,1.53c-0.71,0.33-1.49,0.49-2.36,0.49c-0.74,0-1.43-0.12-2.06-0.37   c-0.63-0.25-1.17-0.59-1.63-1.04c-0.45-0.45-0.81-0.99-1.07-1.62c-0.26-0.63-0.39-1.33-0.39-2.1c0-0.76,0.13-1.45,0.38-2.09   c0.25-0.64,0.61-1.19,1.06-1.64c0.45-0.45,0.99-0.81,1.61-1.06s1.29-0.38,2-0.38c0.72,0,1.37,0.12,1.95,0.35   c0.58,0.23,1.08,0.57,1.49,1.01c0.41,0.44,0.72,0.97,0.94,1.6S77.75,61.24,77.75,62.02z M75.77,61.24   c-0.01-0.38-0.08-0.75-0.2-1.08c-0.12-0.34-0.29-0.63-0.52-0.88c-0.23-0.25-0.51-0.44-0.85-0.59c-0.34-0.14-0.73-0.22-1.19-0.22   c-0.41,0-0.8,0.07-1.16,0.22c-0.36,0.14-0.68,0.34-0.95,0.59s-0.49,0.54-0.66,0.88c-0.17,0.34-0.27,0.7-0.3,1.08H75.77z"
   id="path932"
   style="fill:#000000" />
	<path
   class="st6"
   d="M82.4,66.99h-1.94V51.41h1.94V66.99z"
   id="path934"
   style="fill:#000000" />
	<path
   class="st6"
   d="M94.91,62.02c0,0.11,0,0.22,0,0.33c0,0.11-0.01,0.22-0.02,0.33h-7.77c0.01,0.41,0.11,0.79,0.28,1.16   c0.17,0.36,0.4,0.68,0.69,0.94c0.29,0.27,0.62,0.47,1,0.62c0.38,0.15,0.78,0.22,1.21,0.22c0.66,0,1.23-0.14,1.71-0.43   s0.86-0.64,1.13-1.05l1.36,1.09c-0.52,0.69-1.14,1.2-1.84,1.53c-0.71,0.33-1.49,0.49-2.36,0.49c-0.74,0-1.43-0.12-2.06-0.37   c-0.63-0.25-1.17-0.59-1.63-1.04c-0.45-0.45-0.81-0.99-1.07-1.62c-0.26-0.63-0.39-1.33-0.39-2.1c0-0.76,0.13-1.45,0.38-2.09   c0.25-0.64,0.61-1.19,1.06-1.64c0.45-0.45,0.99-0.81,1.61-1.06s1.29-0.38,2-0.38c0.72,0,1.37,0.12,1.95,0.35   c0.58,0.23,1.08,0.57,1.49,1.01c0.41,0.44,0.72,0.97,0.94,1.6S94.91,61.24,94.91,62.02z M92.93,61.24   c-0.01-0.38-0.08-0.75-0.2-1.08c-0.12-0.34-0.29-0.63-0.52-0.88c-0.23-0.25-0.51-0.44-0.85-0.59c-0.34-0.14-0.73-0.22-1.19-0.22   c-0.41,0-0.8,0.07-1.16,0.22c-0.36,0.14-0.68,0.34-0.95,0.59s-0.49,0.54-0.66,0.88c-0.17,0.34-0.27,0.7-0.3,1.08H92.93z"
   id="path936"
   style="fill:#000000" />
	<path
   class="st6"
   d="M102.87,59.69c-0.22-0.36-0.53-0.65-0.93-0.88c-0.4-0.23-0.85-0.34-1.34-0.34c-0.22,0-0.44,0.02-0.66,0.07   s-0.42,0.12-0.59,0.23c-0.17,0.1-0.31,0.23-0.41,0.39c-0.1,0.16-0.15,0.35-0.15,0.59c0,0.41,0.19,0.72,0.56,0.92   c0.37,0.2,0.93,0.38,1.67,0.55c0.47,0.11,0.9,0.24,1.3,0.39s0.75,0.34,1.04,0.57c0.3,0.23,0.53,0.5,0.69,0.81   c0.16,0.32,0.25,0.69,0.25,1.11c0,0.58-0.11,1.07-0.33,1.46c-0.22,0.4-0.51,0.72-0.88,0.98c-0.36,0.25-0.78,0.44-1.25,0.55   c-0.47,0.11-0.95,0.16-1.44,0.16c-0.74,0-1.47-0.14-2.17-0.43c-0.71-0.29-1.29-0.73-1.76-1.32l1.38-1.17   c0.26,0.38,0.62,0.71,1.08,0.97c0.46,0.26,0.97,0.39,1.51,0.39c0.25,0,0.48-0.02,0.71-0.07c0.23-0.05,0.43-0.13,0.62-0.24   s0.33-0.25,0.44-0.43s0.17-0.41,0.17-0.68c0-0.45-0.22-0.79-0.65-1.01c-0.43-0.22-1.07-0.43-1.91-0.62c-0.33-0.08-0.66-0.18-1-0.3   c-0.34-0.12-0.64-0.28-0.92-0.48c-0.27-0.21-0.5-0.46-0.67-0.77c-0.17-0.31-0.26-0.69-0.26-1.14c0-0.52,0.11-0.97,0.32-1.35   c0.21-0.38,0.49-0.69,0.83-0.93s0.73-0.42,1.17-0.54c0.44-0.12,0.89-0.18,1.36-0.18c0.7,0,1.38,0.14,2.03,0.41   c0.65,0.27,1.16,0.67,1.51,1.2L102.87,59.69z"
   id="path938"
   style="fill:#000000" />
	<path
   class="st6"
   d="M112.02,59.69c-0.22-0.36-0.53-0.65-0.93-0.88c-0.4-0.23-0.85-0.34-1.34-0.34c-0.22,0-0.44,0.02-0.66,0.07   s-0.42,0.12-0.59,0.23c-0.17,0.1-0.31,0.23-0.41,0.39c-0.1,0.16-0.15,0.35-0.15,0.59c0,0.41,0.19,0.72,0.56,0.92   c0.37,0.2,0.93,0.38,1.67,0.55c0.47,0.11,0.9,0.24,1.3,0.39s0.75,0.34,1.04,0.57c0.3,0.23,0.53,0.5,0.69,0.81   c0.16,0.32,0.25,0.69,0.25,1.11c0,0.58-0.11,1.07-0.33,1.46c-0.22,0.4-0.51,0.72-0.88,0.98c-0.36,0.25-0.78,0.44-1.25,0.55   c-0.47,0.11-0.95,0.16-1.44,0.16c-0.74,0-1.47-0.14-2.17-0.43c-0.71-0.29-1.29-0.73-1.76-1.32l1.38-1.17   c0.26,0.38,0.62,0.71,1.08,0.97c0.46,0.26,0.97,0.39,1.51,0.39c0.25,0,0.48-0.02,0.71-0.07c0.23-0.05,0.43-0.13,0.62-0.24   s0.33-0.25,0.44-0.43s0.17-0.41,0.17-0.68c0-0.45-0.22-0.79-0.65-1.01c-0.43-0.22-1.07-0.43-1.91-0.62c-0.33-0.08-0.66-0.18-1-0.3   c-0.34-0.12-0.64-0.28-0.92-0.48c-0.27-0.21-0.5-0.46-0.67-0.77c-0.17-0.31-0.26-0.69-0.26-1.14c0-0.52,0.11-0.97,0.32-1.35   c0.21-0.38,0.49-0.69,0.83-0.93s0.73-0.42,1.17-0.54c0.44-0.12,0.89-0.18,1.36-0.18c0.7,0,1.38,0.14,2.03,0.41   c0.65,0.27,1.16,0.67,1.51,1.2L112.02,59.69z"
   id="path940"
   style="fill:#000000" />
</g>
<g
   id="zibra-outline_1_"
   style="fill:#000000">
	<path
   class="st6"
   d="M19.78,22.6H2.7V19.1h24.2L7.24,45.6h18.71v3.51H0L19.78,22.6z"
   id="path944"
   style="fill:#000000" />
	<path
   class="st6"
   d="M28.68,7.21c0-0.82,0.28-1.52,0.84-2.08c0.56-0.56,1.26-0.84,2.08-0.84c0.82,0,1.52,0.28,2.08,0.84   c0.56,0.56,0.84,1.26,0.84,2.08c0,0.82-0.28,1.52-0.84,2.08c-0.56,0.56-1.26,0.84-2.08,0.84c-0.82,0-1.52-0.28-2.08-0.84   C28.96,8.73,28.68,8.03,28.68,7.21z M29.65,19.1h3.9v30.01h-3.9V19.1z"
   id="path946"
   style="fill:#000000" />
	<path
   class="st6"
   d="M38.55,0h3.9v24.36h0.13c0.61-1.04,1.36-1.94,2.27-2.7c0.91-0.76,1.89-1.39,2.96-1.88   c1.06-0.5,2.18-0.87,3.35-1.1c1.17-0.24,2.32-0.36,3.44-0.36c2.29,0,4.41,0.39,6.33,1.17c1.93,0.78,3.59,1.87,5,3.28   c1.41,1.41,2.5,3.08,3.28,5c0.78,1.93,1.17,4.04,1.17,6.33c0,2.3-0.39,4.41-1.17,6.33c-0.78,1.93-1.87,3.6-3.28,5   c-1.41,1.41-3.08,2.5-5,3.28c-1.93,0.78-4.04,1.17-6.33,1.17c-1.13,0-2.27-0.12-3.44-0.36c-1.17-0.24-2.28-0.61-3.35-1.1   c-1.06-0.5-2.05-1.13-2.96-1.88c-0.91-0.76-1.67-1.66-2.27-2.7h-0.13v5.26h-3.9V0z M42.06,34.1c0,1.69,0.32,3.28,0.97,4.77   c0.65,1.49,1.54,2.79,2.66,3.9c1.13,1.1,2.45,1.98,3.96,2.63c1.52,0.65,3.16,0.97,4.94,0.97c1.82,0,3.46-0.32,4.94-0.97   c1.47-0.65,2.73-1.53,3.77-2.63c1.04-1.1,1.83-2.4,2.37-3.9c0.54-1.49,0.81-3.09,0.81-4.77s-0.27-3.28-0.81-4.77   c-0.54-1.49-1.33-2.79-2.37-3.9c-1.04-1.1-2.3-1.98-3.77-2.63c-1.47-0.65-3.12-0.97-4.94-0.97c-1.78,0-3.42,0.32-4.94,0.97   c-1.52,0.65-2.84,1.53-3.96,2.63c-1.13,1.1-2.01,2.4-2.66,3.9C42.38,30.82,42.06,32.41,42.06,34.1z"
   id="path948"
   style="fill:#000000" />
	<path
   class="st6"
   d="M73.89,27.54c0-0.56-0.02-1.24-0.06-2.05c-0.04-0.8-0.08-1.61-0.1-2.44c-0.02-0.82-0.05-1.59-0.1-2.31   c-0.04-0.71-0.07-1.27-0.07-1.66h3.9c0.04,1.13,0.08,2.21,0.1,3.25c0.02,1.04,0.08,1.71,0.16,2.01c1-1.77,2.27-3.23,3.83-4.35   c1.56-1.13,3.46-1.69,5.72-1.69c0.39,0,0.77,0.03,1.14,0.1c0.37,0.06,0.75,0.14,1.14,0.23l-0.45,3.83   c-0.52-0.17-1.02-0.26-1.49-0.26c-1.69,0-3.15,0.27-4.38,0.81c-1.23,0.54-2.25,1.29-3.05,2.24c-0.8,0.95-1.4,2.07-1.79,3.35   c-0.39,1.28-0.58,2.65-0.58,4.12v16.37h-3.9V27.54z"
   id="path950"
   style="fill:#000000" />
	<path
   class="st6"
   d="M113.64,36.5c0,1.47,0.01,2.79,0.03,3.96c0.02,1.17,0.05,2.25,0.1,3.25c0.04,1,0.1,1.93,0.16,2.79   c0.06,0.87,0.16,1.73,0.29,2.6h-3.64c-0.26-1.47-0.39-3.1-0.39-4.87h-0.13c-1.13,1.95-2.52,3.38-4.19,4.29   c-1.67,0.91-3.78,1.36-6.33,1.36c-1.3,0-2.58-0.16-3.83-0.49c-1.26-0.33-2.38-0.85-3.38-1.56c-1-0.71-1.81-1.63-2.44-2.76   c-0.63-1.12-0.94-2.49-0.94-4.09c0-2.29,0.58-4.11,1.75-5.46c1.17-1.34,2.61-2.35,4.32-3.02c1.71-0.67,3.53-1.1,5.46-1.3   c1.93-0.2,3.63-0.29,5.1-0.29h4.55V29.1c0-2.6-0.8-4.46-2.4-5.59c-1.6-1.13-3.62-1.69-6.04-1.69c-3.46,0-6.52,1.13-9.16,3.38   l-2.27-2.66c1.43-1.39,3.2-2.44,5.33-3.15c2.12-0.71,4.16-1.07,6.11-1.07c3.64,0,6.54,0.86,8.7,2.57c2.17,1.71,3.25,4.47,3.25,8.28   V36.5z M105.84,34.04c-1.65,0-3.24,0.11-4.77,0.33c-1.54,0.22-2.92,0.58-4.16,1.1c-1.23,0.52-2.22,1.21-2.96,2.08   c-0.74,0.87-1.1,1.95-1.1,3.25c0,0.91,0.21,1.72,0.62,2.44c0.41,0.71,0.94,1.3,1.59,1.75c0.65,0.46,1.37,0.8,2.18,1.04   c0.8,0.24,1.61,0.36,2.44,0.36c2.08,0,3.79-0.3,5.13-0.91c1.34-0.61,2.41-1.4,3.22-2.37c0.8-0.97,1.35-2.08,1.66-3.31   c0.3-1.23,0.45-2.48,0.45-3.74v-2.01H105.84z"
   id="path952"
   style="fill:#000000" />
</g>
<g
   id="zibra-icon_1_"
   class="st0">
	<polygon
   class="st7"
   points="127.9,52.54 149.9,52.54 138.9,63.54  "
   id="polygon955" />
	<polygon
   class="st7"
   points="153.37,27.08 142.37,38.07 131.37,49.07 153.37,49.07 164.37,38.07  "
   id="polygon957" />
	<polygon
   class="st7"
   points="134.24,19.11 123.24,30.11 134.24,41.1 145.24,30.11 156.23,19.11  "
   id="polygon959" />
	<polygon
   class="st7"
   points="159.7,15.64 137.71,15.64 148.71,4.64  "
   id="polygon961" />
</g>
<g
   id="g970">
	<path
   class="st8"
   d="M154.9,20.93c-7.43-7.43-17.29-11.54-27.78-11.59l0,5.56c8.65,0.05,17.28,3.36,23.86,9.95   c6.68,6.68,10,15.48,9.95,24.25h5.56c0-0.07,0-0.13,0-0.2C166.49,38.34,162.37,28.41,154.9,20.93z"
   id="path964" />
	<path
   class="st8"
   d="M147.06,28.78c-5.5-5.5-12.71-8.28-19.94-8.32V26c5.81,0.05,11.6,2.28,16.02,6.7   c4.52,4.52,6.75,10.47,6.7,16.41h5.54C155.43,41.75,152.66,34.38,147.06,28.78z"
   id="path966" />
	<path
   class="st8"
   d="M139.21,36.62c-3.34-3.34-7.71-5.03-12.09-5.08v5.55c2.96,0.05,5.91,1.2,8.17,3.46   c2.36,2.36,3.51,5.47,3.46,8.56h5.55C144.34,44.59,142.65,40.06,139.21,36.62z"
   id="path968" />
</g>
<circle
   class="st8"
   cx="128.83"
   cy="47.39"
   r="4.72"
   id="circle972" />
</svg>
