<?xml version="1.0" encoding="utf-8"?>
<!-- Generator: Adobe Illustrator 19.1.0, SVG Export Plug-In . SVG Version: 6.00 Build 0)  -->
<svg version="1.1" id="Ebene_1" xmlns="http://www.w3.org/2000/svg" xmlns:xlink="http://www.w3.org/1999/xlink" x="0px" y="0px"
	 viewBox="0 0 190.4 19.5" style="enable-background:new 0 0 190.4 19.5;" xml:space="preserve">
<style type="text/css">
	.st0{fill:#0B4A32;}
</style>
<g>
	<g>
		<path class="st0" d="M90.4,2.6h2.5v11.6c-1.3,0.2-2.2,0.3-3.3,0.3c-3.1,0-4.7-1.4-4.7-4c0-2.6,1.7-4.2,4.3-4.2
			c0.4,0,0.7,0,1.1,0.1V2.6z M90.4,8.5c-0.3-0.1-0.5-0.1-0.8-0.1c-1.3,0-2,0.8-2,2.2c0,1.3,0.7,2.1,2,2.1c0.3,0,0.5,0,0.9-0.1V8.5z"
			/>
		<path class="st0" d="M96.9,6.5v5.8c0,2-0.1,3-0.6,3.8c-0.4,0.8-0.9,1.3-2.1,1.9l-2.3-1.1c1.1-0.5,1.6-1,2-1.7
			c0.4-0.7,0.5-1.6,0.5-3.7v-5H96.9z M94.4,2.6h2.5v2.6h-2.5V2.6z"/>
		<path class="st0" d="M98.4,7.1c1.1-0.5,2.2-0.8,3.3-0.8c1.3,0,2.1,0.3,2.5,1c0.2,0.4,0.3,0.9,0.3,1.9v5.1
			c-1.1,0.2-2.5,0.3-3.6,0.3c-2.1,0-3.1-0.7-3.1-2.4c0-1.8,1.3-2.6,4.3-2.8V8.9c0-0.5-0.2-0.6-0.9-0.6c-0.9,0-2,0.3-3,0.8V7.1z
			 M102.3,11.1c-1.7,0.2-2.2,0.4-2.2,1.1c0,0.5,0.3,0.7,1,0.7c0.4,0,0.7,0,1.2-0.1V11.1z"/>
		<path class="st0" d="M105.7,6.9c1.5-0.4,2.7-0.6,4-0.6c1.3,0,2.2,0.3,2.8,0.9c0.5,0.5,0.7,1.1,0.7,2.4v4.9h-2.5V9.7
			c0-1-0.3-1.3-1.2-1.3c-0.3,0-0.7,0-1.2,0.2v6h-2.5V6.9z"/>
		<path class="st0" d="M114.1,15.9c0.9,0.5,1.8,0.7,2.7,0.7c1.6,0,2.4-0.7,2.4-2.3c0,0,0,0,0,0c-0.5,0.2-1,0.3-1.6,0.3
			c-2.2,0-3.6-1.5-3.6-3.8c0-2.9,2.1-4.5,5.7-4.5c1.1,0,2.1,0.1,3.3,0.4l-0.9,1.8c-0.7-0.1-0.1,0-0.6-0.1v0.3l0,1.1l0,1.4
			c0,0.3,0,0.7,0,1c0,0.3,0,0.5,0,0.7c0,2.2-0.2,3.2-0.7,4c-0.8,1.2-2.1,1.8-4.1,1.8c-1,0-1.8-0.1-2.7-0.5V15.9z M119.1,8.3
			C119.1,8.3,119.1,8.3,119.1,8.3h-0.3c-0.5,0-1.1,0.1-1.5,0.4c-0.6,0.3-0.9,1-0.9,1.8c0,1.3,0.6,2,1.7,2c0.3,0,0.6-0.1,0.9-0.2
			v-0.2v-0.7c0-0.3,0-0.6,0-1l0-1.2l0-0.8V8.3z"/>
		<path class="st0" d="M126.9,6.3c2.5,0,4,1.6,4,4.1c0,2.6-1.6,4.3-4.1,4.3c-2.5,0-4.1-1.6-4.1-4.1C122.7,7.9,124.3,6.3,126.9,6.3z
			 M126.8,12.7c1,0,1.5-0.8,1.5-2.2c0-1.4-0.6-2.2-1.5-2.2c-1,0-1.6,0.8-1.6,2.2C125.3,11.9,125.8,12.7,126.8,12.7z"/>
	</g>
	<g>
		<path class="st0" d="M136.5,6.8l0,0.2c0.4,1.5,1.1,3.9,1.7,5.6l0.1,0.3l0.1,0.6l0.1-0.6l0.1-0.3c0.8-1.8,1.5-4.1,1.9-5.6l0-0.2
			h1.5l-0.1,0.3c-0.7,2.4-1.7,4.8-2.9,7.2l-0.1,0.3h-1.5l-0.1-0.3c-1.1-2.5-2-5-2.7-7.5H136.5z"/>
		<path class="st0" d="M143.8,10.8c0,0.1,0,0.2,0,0.2c0,1.6,1,2.5,2.6,2.5c1,0,1.7-0.3,2.6-0.9V14c-0.8,0.5-1.7,0.8-2.7,0.8
			c-2.4,0-3.8-1.4-3.8-3.9c0-2.5,1.5-4.2,3.7-4.2c1.2,0,2.2,0.5,2.7,1.4c0.4,0.6,0.5,1.3,0.5,2.4c0,0.1,0,0.2,0,0.4H143.8z
			 M147.9,9.7c-0.1-1.2-0.7-1.8-1.8-1.8c-1.1,0-1.9,0.7-2.1,1.8H147.9z"/>
		<path class="st0" d="M150.5,7.3c0.9-0.4,2.1-0.6,3.1-0.6c0.5,0,0.9,0.1,1.3,0.2v1.3c-0.4-0.2-0.8-0.3-1.3-0.3
			c-0.6,0-1.1,0.1-1.6,0.4v6.4h-1.5V7.3z"/>
		<path class="st0" d="M156.4,10.8c0,0.1,0,0.2,0,0.2c0,1.6,1,2.5,2.6,2.5c1,0,1.7-0.3,2.6-0.9V14c-0.8,0.5-1.7,0.8-2.7,0.8
			c-2.4,0-3.8-1.4-3.8-3.9c0-2.5,1.5-4.2,3.7-4.2c1.2,0,2.2,0.5,2.7,1.4c0.4,0.6,0.5,1.3,0.5,2.4c0,0.1,0,0.2,0,0.4H156.4z
			 M160.5,9.7c-0.1-1.2-0.7-1.8-1.8-1.8c-1.1,0-1.9,0.7-2.1,1.8H160.5z"/>
		<path class="st0" d="M163.1,3.5h1.6v1.7h-1.6V3.5z M163.1,6.8h1.5v7.8h-1.5V6.8z"/>
		<path class="st0" d="M166.5,7.2c1.2-0.4,2.2-0.5,3.3-0.5c1.2,0,2,0.3,2.5,0.8c0.4,0.5,0.6,1,0.6,2.1v5.1h-1.5V9.7
			c0-1.3-0.5-1.8-1.8-1.8c-0.6,0-1,0.1-1.6,0.3v6.5h-1.5V7.2z"/>
	</g>
	<g>
		<path class="st0" d="M23.4,2.4h1.5v11.8c-1.1,0.2-1.9,0.3-2.8,0.3c-2.7,0-4.1-1.4-4.1-3.8c0-2.5,1.6-4.2,4.2-4.2
			c0.4,0,0.8,0,1.2,0.2V2.4z M23.4,8c-0.4-0.1-0.7-0.2-1.2-0.2c-1.7,0-2.7,1.1-2.7,2.9c0,1.8,0.9,2.8,2.6,2.8c0.4,0,0.8,0,1.3-0.1V8
			z"/>
		<path class="st0" d="M27.7,10.7c0,0.1,0,0.2,0,0.2c0,1.6,1,2.5,2.6,2.5c1,0,1.7-0.3,2.6-0.9v1.3c-0.8,0.5-1.7,0.8-2.7,0.8
			c-2.4,0-3.8-1.4-3.8-3.9c0-2.5,1.5-4.2,3.7-4.2c1.2,0,2.2,0.5,2.7,1.4c0.4,0.6,0.5,1.3,0.5,2.4c0,0.1,0,0.2,0,0.4H27.7z M31.7,9.6
			c-0.1-1.2-0.7-1.8-1.8-1.8c-1.1,0-1.9,0.7-2.1,1.8H31.7z"/>
		<path class="st0" d="M35.8,6.7v4.8c0,1.4,0.5,1.9,1.9,1.9c0.5,0,0.9,0,1.5-0.1V6.7h1.5v7.6c-1.3,0.2-2.2,0.3-3.2,0.3
			c-1.2,0-2-0.2-2.5-0.7c-0.5-0.5-0.7-1.1-0.7-2.3V6.7H35.8z"/>
		<path class="st0" d="M41.6,6.9h1.3V4.8h1.3v2.1h1.8V8h-1.8v4.1c0,1.1,0.2,1.4,1.1,1.4c0.2,0,0.3,0,0.6-0.1v1.1
			c-0.3,0.1-0.7,0.1-1,0.1c-0.8,0-1.4-0.2-1.7-0.7c-0.3-0.4-0.3-0.6-0.3-1.7V8h-1.2V6.9z"/>
		<path class="st0" d="M46.5,12.8c0.6,0.5,1.3,0.7,2,0.7c0.9,0,1.4-0.4,1.4-1c0-0.4-0.2-0.7-0.6-0.9c-0.2-0.1-0.4-0.2-1-0.5
			c-1.4-0.7-1.8-1.2-1.8-2.2c0-1.4,1.1-2.3,2.8-2.3c0.7,0,1.2,0.1,1.9,0.4v1.4c-0.6-0.4-1.1-0.6-1.8-0.6c-0.8,0-1.4,0.4-1.4,1
			c0,0.5,0.2,0.7,1.4,1.3c0.8,0.4,1.2,0.6,1.5,0.9c0.4,0.4,0.6,0.9,0.6,1.5c0,1.4-1.1,2.3-2.9,2.3c-0.7,0-1.3-0.1-2-0.5V12.8z"/>
		<path class="st0" d="M58.2,8.4c-0.6-0.4-1.1-0.6-1.8-0.6c-1.6,0-2.6,1.1-2.6,2.9s1,2.8,2.6,2.8c0.7,0,1.2-0.2,1.9-0.7v1.3
			c-0.7,0.4-1.3,0.5-2.2,0.5c-2.4,0-3.9-1.5-3.9-3.9c0-2.5,1.6-4.2,4-4.2c0.7,0,1.3,0.1,1.9,0.5V8.4z"/>
		<path class="st0" d="M59,2.4h1.5v4.5c0.7-0.3,1.3-0.4,2-0.4c1,0,1.9,0.3,2.3,0.8c0.4,0.5,0.6,1,0.6,2.1v5.1h-1.5V9.6
			c0-1.3-0.5-1.8-1.7-1.8c-0.5,0-1.1,0.1-1.7,0.4v6.3H59V2.4z"/>
		<path class="st0" d="M68.1,10.7c0,0.1,0,0.2,0,0.2c0,1.6,1,2.5,2.6,2.5c1,0,1.7-0.3,2.6-0.9v1.3c-0.8,0.5-1.7,0.8-2.7,0.8
			c-2.4,0-3.8-1.4-3.8-3.9c0-2.5,1.5-4.2,3.7-4.2c1.2,0,2.2,0.5,2.7,1.4c0.4,0.6,0.5,1.3,0.5,2.4c0,0.1,0,0.2,0,0.4H68.1z M72.2,9.6
			c-0.1-1.2-0.7-1.8-1.8-1.8c-1.1,0-1.9,0.7-2.1,1.8H72.2z"/>
		<path class="st0" d="M74.8,7.2c0.9-0.4,2.1-0.6,3.1-0.6c0.5,0,0.9,0.1,1.4,0.2V8c-0.4-0.2-0.8-0.3-1.3-0.3c-0.6,0-1.1,0.1-1.6,0.4
			v6.4h-1.5V7.2z"/>
	</g>
	<g>
		<path class="st0" d="M0.9,9.4c1.2-0.1,1.7-0.6,1.7-1.7c0-0.5,0-1-0.1-1.7C2.4,5.4,2.4,4.8,2.4,4.3c0-2,1.2-3.3,3.2-3.3
			c0.1,0,0.2,0,0.4,0V2C5.9,2,5.9,2,5.7,2c-1.3,0-2,0.8-2,2.3c0,0.5,0,1.1,0.1,1.7c0,0.6,0.1,1.2,0.1,1.7c0,1.2-0.5,1.9-1.6,2.3
			c1.1,0.3,1.6,1.1,1.6,2.3c0,0.5,0,1-0.1,1.7c0,0.6-0.1,1.2-0.1,1.7c0,1.5,0.7,2.3,2,2.3c0,0,0.1,0,0.2,0v0.9c-0.2,0-0.3,0-0.4,0
			c-1.9,0-3.2-1.3-3.2-3.3c0-0.5,0-1.1,0.1-1.7c0.1-0.6,0.1-1.2,0.1-1.7c0-1.1-0.5-1.6-1.7-1.7V9.4z"/>
		<path class="st0" d="M6.7,9.4c1.2-0.1,1.7-0.6,1.7-1.7c0-0.5,0-1-0.1-1.7C8.2,5.4,8.2,4.8,8.2,4.3c0-2,1.2-3.3,3.2-3.3
			c0.1,0,0.2,0,0.4,0V2c-0.1,0-0.1,0-0.2,0c-1.3,0-2,0.8-2,2.3c0,0.5,0,1.1,0.1,1.7c0,0.6,0.1,1.2,0.1,1.7c0,1.2-0.5,1.9-1.6,2.3
			c1.1,0.3,1.6,1.1,1.6,2.3c0,0.5,0,1-0.1,1.7c0,0.6-0.1,1.2-0.1,1.7c0,1.5,0.7,2.3,2,2.3c0,0,0.1,0,0.2,0v0.9c-0.2,0-0.3,0-0.4,0
			c-1.9,0-3.2-1.3-3.2-3.3c0-0.5,0-1.1,0.1-1.7c0.1-0.6,0.1-1.2,0.1-1.7c0-1.1-0.5-1.6-1.7-1.7V9.4z"/>
	</g>
	<g>
		<path class="st0" d="M178.6,17.8c0.1,0,0.2,0,0.2,0c1.3,0,2-0.8,2-2.3c0-0.5,0-1.1-0.1-1.7c0-0.6-0.1-1.2-0.1-1.7
			c0-1.2,0.5-1.9,1.6-2.3c-1.1-0.3-1.6-1-1.6-2.2c0-0.5,0-1,0.1-1.7c0-0.6,0.1-1.2,0.1-1.7c0-1.5-0.7-2.3-2.1-2.3c0,0-0.1,0-0.2,0
			V1.1c0.2,0,0.2,0,0.4,0c1.9,0,3.2,1.3,3.2,3.3c0,0.5,0,1.1-0.1,1.7c0,0.6-0.1,1.2-0.1,1.7c0,1.1,0.5,1.6,1.7,1.7v0.9
			c-1.2,0.1-1.7,0.6-1.7,1.7c0,0.4,0,1,0.1,1.7c0.1,0.6,0.1,1.2,0.1,1.7c0,2-1.2,3.3-3.2,3.3c-0.1,0-0.2,0-0.4,0V17.8z"/>
		<path class="st0" d="M184.4,17.8c0.1,0,0.2,0,0.2,0c1.3,0,2-0.8,2-2.3c0-0.5,0-1.1-0.1-1.7c0-0.6-0.1-1.2-0.1-1.7
			c0-1.2,0.5-1.9,1.6-2.3c-1.1-0.3-1.6-1-1.6-2.2c0-0.5,0-1,0.1-1.7c0-0.6,0.1-1.2,0.1-1.7c0-1.5-0.7-2.3-2.1-2.3c0,0-0.1,0-0.2,0
			V1.1c0.2,0,0.2,0,0.4,0c1.9,0,3.2,1.3,3.2,3.3c0,0.5,0,1.1-0.1,1.7c0,0.6-0.1,1.2-0.1,1.7c0,1.1,0.5,1.6,1.7,1.7v0.9
			c-1.2,0.1-1.7,0.6-1.7,1.7c0,0.4,0,1,0.1,1.7c0.1,0.6,0.1,1.2,0.1,1.7c0,2-1.2,3.3-3.2,3.3c-0.1,0-0.2,0-0.4,0V17.8z"/>
	</g>
</g>
</svg>
