<svg id="Layer_1" data-name="Layer 1" xmlns="http://www.w3.org/2000/svg" viewBox="0 0 500 96.11"><defs><style>.cls-1{fill:#78a0db;}.cls-2{fill:#2c66c4;}.cls-3{fill:#4f4f4f;}</style></defs><title>3YOURMIND_Logo</title><polygon class="cls-1" points="0 15.53 32.53 15.53 48.05 0 15.53 0 0 15.53"/><polygon class="cls-2" points="32.53 15.53 32.53 48.05 48.05 32.53 48.05 0 32.53 15.53"/><polygon class="cls-1" points="17 63.58 49.53 63.58 65.05 48.05 32.52 48.05 17 63.58"/><polygon class="cls-2" points="49.53 63.58 49.53 96.11 65.05 80.58 65.05 48.05 49.53 63.58"/><polygon class="cls-1" points="48.05 32.53 80.58 32.53 96.11 17 63.58 17 48.05 32.53"/><polygon class="cls-2" points="80.58 32.53 80.58 65.06 96.11 49.53 96.11 17 80.58 32.53"/><path class="cls-3" d="M184.75,32.77l-.24.42q-.26.45-1,1.84l-8.43,16.61c-.72,1.41-1.35,2.65-1.92,3.76v0l0-.08q-.82-1.58-1.9-3.7T169,47.19l-2.41-4.63-2.22-4.25c-.68-1.29-1.26-2.39-1.75-3.3s-.82-1.53-1-1.83l-.24-.41H150.48l.93,1.3c.11.15.45.7,1.53,2.73q1.27,2.38,3.11,5.72t3.86,7.09q2,3.78,3.87,7.11t3.1,5.69c.93,1.74,1.3,2.39,1.49,2.68V80.62h9.44V65l17.61-32.28Z" transform="translate(0 0)"/><path class="cls-3" d="M234.54,39.54a25.54,25.54,0,0,0-7.79-5.3,23.74,23.74,0,0,0-19,0,25,25,0,0,0-13,13.1,24.12,24.12,0,0,0,0,18.94A25.06,25.06,0,0,0,200.08,74a24.58,24.58,0,0,0,7.74,5.21,24.47,24.47,0,0,0,18.93,0,24.61,24.61,0,0,0,13.07-12.95,24.1,24.1,0,0,0,0-18.94A25.08,25.08,0,0,0,234.54,39.54Zm-17.25,1.85a14.45,14.45,0,0,1,5.85,1.2,15.11,15.11,0,0,1,4.78,3.31,16.25,16.25,0,0,1,3.26,4.92,15.06,15.06,0,0,1,1.2,6,15.39,15.39,0,0,1-1.17,6A15.7,15.7,0,0,1,228,67.66a15,15,0,0,1-4.75,3.27,14.28,14.28,0,0,1-5.78,1.2,14.6,14.6,0,0,1-5.91-1.2,15.74,15.74,0,0,1-4.82-3.28,15.1,15.1,0,0,1-3.25-4.87,15.89,15.89,0,0,1,0-12,16,16,0,0,1,3.19-4.91,14.72,14.72,0,0,1,4.74-3.3A14.44,14.44,0,0,1,217.29,41.39Z" transform="translate(0 0)"/><path class="cls-3" d="M275.41,63.13a8.45,8.45,0,0,1-.72,3.47,9,9,0,0,1-2,2.85,10,10,0,0,1-3,2,9.8,9.8,0,0,1-7.37,0,9.7,9.7,0,0,1-2.95-2,9.21,9.21,0,0,1-2-2.85,8.44,8.44,0,0,1-.72-3.47V32.77h-9.38V63.32a17.79,17.79,0,0,0,1.46,7.27,16.87,16.87,0,0,0,4,5.63,18.16,18.16,0,0,0,5.94,3.62A20.51,20.51,0,0,0,266,81.12a20.81,20.81,0,0,0,7.32-1.29,18.45,18.45,0,0,0,6-3.62,16.67,16.67,0,0,0,4-5.63,17.8,17.8,0,0,0,1.47-7.27V32.77h-9.38Z" transform="translate(0 0)"/><rect class="cls-3" x="391" y="32.77" width="9.44" height="47.85"/><path class="cls-3" d="M498.6,48.59A21.5,21.5,0,0,0,494,40.65,23.73,23.73,0,0,0,485.85,35a30.39,30.39,0,0,0-12.15-2.19H460.9V80.62H476a26.46,26.46,0,0,0,9.19-1.6,23,23,0,0,0,7.66-4.63A22.3,22.3,0,0,0,498.06,67,23.42,23.42,0,0,0,500,57.36,28.92,28.92,0,0,0,498.6,48.59Zm-8,8.27a16.13,16.13,0,0,1-1.17,6.36,13.07,13.07,0,0,1-3.25,4.59,14,14,0,0,1-5,2.84,20.15,20.15,0,0,1-6.39,1h-4.44V41.89h5.39a17.36,17.36,0,0,1,5.08.82,14,14,0,0,1,4.79,2.57,13.82,13.82,0,0,1,3.55,4.61A15.66,15.66,0,0,1,490.56,56.85Z" transform="translate(0 0)"/><path class="cls-3" d="M379,33.11c-.76,1.05-1.7,2.34-2.81,3.86s-2.35,3.22-3.68,5.08-2.69,3.73-4.08,5.63-2.75,3.77-4.06,5.62l-3.52,4.91-2.57,3.59-.48.67-.7-.94Q356,60,354.47,57.83t-3.55-4.92l-8.08-11.06q-2-2.72-3.61-5t-2.69-3.79l-.82-1.18h-2.07v48.7h9.44V57.41l2.41,3.32q1.67,2.31,3.57,5t3.62,5l2.95,4.05c.84,1.16,1.36,1.86,1.59,2.14l.69.83L372,57.44V80.62H382V31.91h-2.09Z" transform="translate(0 0)"/><path class="cls-3" d="M442.52,60.89c-.36-.39-.87-.91-1.55-1.58q-1.49-1.46-3.72-3.53l-4.88-4.56q-2.66-2.5-5.46-5.07l-5.48-5q-2.69-2.46-4.9-4.55T412.8,33l-.82-.81-.24-.25h-2.31v48.7h9.38V51.8c.36.41.89,1,1.61,1.67q1.49,1.49,3.69,3.62T429,61.76l5.45,5.17,5.48,5.19,4.91,4.69q2.21,2.12,3.72,3.63l.77.78.24.25h2.36V32.77h-9.38Z" transform="translate(0 0)"/><path class="cls-3" d="M321.2,59.52a14.35,14.35,0,0,0,2.86-5.25,20.17,20.17,0,0,0,.86-5.78,16.6,16.6,0,0,0-1.27-6.6,13.75,13.75,0,0,0-3.61-5,15.94,15.94,0,0,0-5.61-3.08,23.44,23.44,0,0,0-7.2-1.05H293.34V80.62h9.4V64.72h3.78l10.32,15.71H329l-11.84-17.7A14.23,14.23,0,0,0,321.2,59.52Zm-5.69-10.84a8.43,8.43,0,0,1-.35,2.21A6.78,6.78,0,0,1,314,53.2,6.7,6.7,0,0,1,311.72,55a7.83,7.83,0,0,1-3.6.73h-5.37v-14h5.43a8,8,0,0,1,3.67.73,6.6,6.6,0,0,1,2.22,1.79,6.33,6.33,0,0,1,1.12,2.26A9.11,9.11,0,0,1,315.51,48.68Z" transform="translate(0 0)"/><path class="cls-3" d="M125.43,57.51l9.33-16h-17V32.77h31L148.08,34c-1.56,2.83-3.19,5.63-4.84,8.35-1.53,2.5-3,5-4.4,7.57a18.6,18.6,0,0,1,6.27,5.74,16.38,16.38,0,0,1,1.33,15.41,16.69,16.69,0,0,1-8.93,8.78,16.46,16.46,0,0,1-6.44,1.29,15.8,15.8,0,0,1-6.71-1.48l-.45-.23-.25-.13-.58-.3-.46-.27c-.35-.21-.69-.43-1-.66l-.24-.16c-.41-.29-.79-.6-1.16-.92l-.07-.06c-.38-.33-.73-.68-1.07-1l-.68-.7,0,0A16.45,16.45,0,0,1,115.17,69l-.18-.64,8-4.17.18,1.12a8.6,8.6,0,0,0,8,7.15,7.27,7.27,0,0,0,2.95-.62,8.14,8.14,0,0,0,2.48-1.68,8.23,8.23,0,0,0,1.68-2.48,7.52,7.52,0,0,0,.63-3.06,7.34,7.34,0,0,0-.63-3,8.23,8.23,0,0,0-1.68-2.48,7.79,7.79,0,0,0-5.47-2.24,8.75,8.75,0,0,0-4.29,1l-.62.34-.81-.78.35-.62" transform="translate(0 0)"/></svg>
