<?xml version="1.0" encoding="UTF-8" standalone="no"?>
<svg
   xmlns:dc="http://purl.org/dc/elements/1.1/"
   xmlns:cc="http://creativecommons.org/ns#"
   xmlns:rdf="http://www.w3.org/1999/02/22-rdf-syntax-ns#"
   xmlns:svg="http://www.w3.org/2000/svg"
   xmlns="http://www.w3.org/2000/svg"
   height="22.41"
   width="143.96001"
   version="1.1"
   viewBox="0 0 143.96001 22.41"
   data-name="Ebene 1"
   id="Ebene_1">
  <metadata
     id="metadata79">
    <rdf:RDF>
      <cc:Work
         rdf:about="">
        <dc:format>image/svg+xml</dc:format>
        <dc:type
           rdf:resource="http://purl.org/dc/dcmitype/StillImage" />
        <dc:title>logo-positiv-#14B3EC</dc:title>
      </cc:Work>
    </rdf:RDF>
  </metadata>
  <defs
     id="defs4">
    <style
       id="style2">.cls-1{fill:#22b1e7;}</style>
  </defs>
  <title
     id="title6">logo-positiv-#14B3EC</title>
  <path
     style="fill:#22b1e7"
     id="path8"
     d="m 7.07,12.79 6.81,-4.22 v 4.25 H 7.07 Z m 6,-7.27 -9.07,5.5 v 4.64 h 9.86 v 2.54 h 3.68 v -2.54 h 1.88 v -2.84 h -1.88 v -7.3 z"
     class="cls-1" />
  <path
     id="path10"
     d="m 22.85,9.57 h -2.2 V 8.2 h 2.2 V 5.82 h 1.69 V 8.2 h 6.69 v 1.37 h -6.69 v 5 c 0,1.87 0.65,2.43 2.49,2.43 h 0.53 c 2.24,0 2.59,-0.47 2.59,-2.56 v -0.75 h 1.37 v 1.1 c 0,2 -0.19,3.59 -3.84,3.59 h -0.92 c -3.16,0 -3.91,-1.53 -3.91,-3.16 z" />
  <path
     id="path12"
     d="m 33.07,12.08 c 0,-3.63 2.51,-4 4.9,-4 h 2.7 c 3,0 5.2,0.77 5.2,4.34 v 1.11 H 34.75 v 0.63 c 0,2.28 1.1,2.86 4,2.86 h 2.32 c 2.12,0 3,-0.27 3.08,-1.8 h 1.72 v 0.19 c 0,2.29 -1.9,3 -5,3 h -3.1 c -2.2,0 -4.71,-0.41 -4.71,-4.1 z m 11.11,-0.67 c 0,-1 -0.76,-2 -3.51,-2 H 38.2 c -2.67,0 -3.3,0.43 -3.45,2.71 h 9.43 z" />
  <path
     id="path14"
     d="m 58.37,17.2 v 0 c -0.45,0.9 -1,1.16 -3.57,1.16 h -4 c -2.55,0 -3.22,-1.12 -3.22,-3 v -0.67 c -0.08,-2.28 1.49,-2.55 4.49,-2.55 h 2.71 c 2.19,0 3,0.24 3.57,1.2 v 0 -1.93 c 0,-1.8 -1.14,-2 -3.73,-2 h -2.45 c -2.12,0 -2.53,0.51 -2.53,1.34 v 0.35 h -1.69 v -0.49 c 0,-1.82 1.16,-2.57 4.18,-2.57 h 2.67 c 3.13,0 5.25,0.47 5.25,3.45 v 6.71 h -1.68 z m 0,-2.14 c 0,-1.37 -1.22,-1.55 -3.81,-1.55 h -2.59 c -2.18,0 -2.78,0.32 -2.78,1.57 v 0.33 c 0,1.11 0.39,1.58 2.7,1.58 h 2.24 c 3.06,0 4.24,-0.21 4.24,-1.47 z" />
  <path
     id="path16"
     d="m 62.41,8.2 h 1.57 v 1.21 0 c 0.7,-1 1.32,-1.33 3,-1.33 h 2.38 a 2.78,2.78 0 0 1 2.89,1.84 c 0.63,-1.35 1.63,-1.84 3.36,-1.84 h 1.69 c 2.71,0 4,1.18 4,3.45 v 6.71 h -1.62 v -6.55 c 0,-1.16 -0.16,-2.28 -2.85,-2.28 h -0.85 c -3,0 -3.1,1.26 -3.1,2.87 v 5.92 h -1.69 v -6.06 c 0,-1.94 -0.26,-2.73 -3,-2.73 H 66.9 c -2.15,0 -2.83,0.91 -2.83,2.51 v 6.28 h -1.66 z" />
  <polygon
     transform="translate(4,4)"
     id="polygon18"
     points="89.06,4.2 92.24,12.83 96.14,4.2 97.93,4.2 93.38,14.2 91.05,14.2 87.85,5.57 84.65,14.2 82.31,14.2 77.76,4.2 79.55,4.2 83.45,12.83 86.63,4.2 " />
  <path
     id="path20"
     d="m 102,12.1 c 0,-3.29 2.2,-4.06 5.4,-4.06 h 2.06 c 3.2,0 5.39,0.77 5.39,4.06 v 2.2 c 0,3.29 -2.19,4.06 -5.39,4.06 h -2.06 c -3.2,0 -5.4,-0.77 -5.4,-4.06 z m 11.17,0.1 c 0,-2.34 -1.24,-2.79 -3.2,-2.79 h -3.08 c -2,0 -3.2,0.45 -3.2,2.79 v 2 c 0,2.33 1.23,2.78 3.2,2.78 h 3.08 c 2,0 3.2,-0.45 3.2,-2.78 z" />
  <path
     id="path22"
     d="m 116.65,8.2 h 1.57 v 1.45 0 a 3.11,3.11 0 0 1 3.06,-1.61 h 1.38 c 3.16,0 3.85,1 3.85,3.47 v 1.2 h -1.57 v -0.43 c 0,-2.47 -0.16,-2.87 -3.16,-2.87 h -0.83 a 2.39,2.39 0 0 0 -2.65,2.44 v 6.35 h -1.69 z" />
  <polygon
     transform="translate(4,4)"
     id="polygon24"
     points="131.98,4.2 134.6,4.2 134.64,4.24 127.74,8.67 135.96,14.16 135.92,14.2 133.29,14.2 126.05,9.36 125.33,9.36 125.33,14.2 123.64,14.2 123.64,0 125.33,0 125.33,7.98 126.15,7.98 " />
</svg>
