<?xml version="1.0" encoding="UTF-8"?>
<svg width="196px" height="32px" viewBox="0 0 196 32" version="1.1" xmlns="http://www.w3.org/2000/svg" xmlns:xlink="http://www.w3.org/1999/xlink">
    <!-- Generator: Sketch 52.1 (67048) - http://www.bohemiancoding.com/sketch -->
    <title>logo black@2x</title>
    <desc>Created with Sketch.</desc>
    <g id="Main" stroke="none" stroke-width="1" fill="none" fill-rule="evenodd">
        <g id="blog_main_design_2018_v6_final" transform="translate(-80.000000, -78.000000)">
            <g id="Head">
                <g id="menu" transform="translate(80.000000, 24.000000)">
                    <g id="logo-black" transform="translate(0.000000, 54.000000)">
                        <path d="M134.571573,22.8681922 C132.989462,22.8681922 131.320198,22.4297799 130.773702,22.4297799 C130.169516,22.4297799 129.594175,22.8681922 129.594175,24.4428912 C129.594175,24.4428912 131.665713,25.3766403 134.772864,25.3766403 C140.038087,25.3766403 141.361837,23.2179156 141.361837,20.5047283 C141.361837,17.2373929 139.692573,16.4495716 136.672265,15.3991433 C133.852629,14.4075263 132.644568,14.0861078 132.644568,12.5110942 C132.644568,11.1398764 133.564493,10.5269168 134.917087,10.5269168 C136.902091,10.5269168 139.031628,11.1980588 139.377143,11.1980588 C139.894485,11.1980588 140.527205,10.4982974 140.527205,9.36012363 C140.527205,9.36012363 138.340909,8.10621408 135.435049,8.10621408 C130.831701,8.10621408 129.651864,10.4982974 129.651864,12.5985251 C129.651864,15.3113979 130.745478,16.3328923 132.586259,17.0622167 C135.837943,18.3456892 138.081618,18.6086108 138.081618,20.5336623 C138.081618,22.022503 137.420053,22.8681922 134.571573,22.8681922 L134.571573,22.8681922 Z M47.3936123,8.71854463 C46.386533,8.36819217 45.1778517,8.10621408 43.6239658,8.10621408 C38.5318105,8.10621408 36,11.2854896 36,17.0332827 C36,22.1681163 37.8125567,25.3766403 42.530973,25.3766403 C44.9762497,25.3766403 46.5878248,24.0051079 47.3647677,23.0723024 L47.3936123,23.8604381 C47.4513015,24.3850233 47.6525933,25.0561653 48.7164313,25.0561653 L50.4719192,25.0561653 L50.4719192,3.14592777 L48.7164313,3.14592777 C47.6237487,3.14592777 47.3936123,3.78750678 47.3936123,4.37121787 L47.3936123,8.71854463 Z M47.3936123,19.8040234 C47.3936123,19.8040234 45.552211,22.8974406 42.7034203,22.8974406 C39.8840944,22.8974406 39.1648406,20.7094675 39.1648406,16.7703611 C39.1648406,13.0941763 39.9417836,10.5564798 44.0271697,10.5564798 C45.1204727,10.5564798 46.2711546,10.8769548 47.3936123,11.3439866 L47.3936123,19.8040234 Z M88.9685889,25.0561653 L92.0186714,25.0561653 L92.0186714,13.5027112 C92.0186714,9.30162672 89.8317554,8.10621408 85.4296991,8.10621408 C81.2869339,8.10621408 77.9778703,10.2938727 77.9778703,10.2938727 L77.9778703,25.0561653 L81.0276427,25.0561653 L81.0276427,11.5188483 C81.0276427,11.5188483 83.1565594,10.5564798 84.7681345,10.5564798 C88.1919561,10.5564798 88.9685889,11.402169 88.9685889,13.1819217 L88.9685889,25.0561653 Z M153.100964,24.5306366 C153.100964,24.0051079 153.043275,23.3927774 152.669225,22.6055851 C152.669225,22.6055851 151.345476,22.8681922 149.677142,22.8681922 C148.008188,22.8681922 147.546985,22.3719119 147.546985,21.0299425 L147.546985,10.7895239 L150.396086,10.7895239 C151.029426,10.7895239 151.690991,10.6143477 151.690991,9.56423381 L151.690991,8.39744062 L147.490226,8.39744062 L147.490226,3.26260709 L145.793048,3.26260709 C144.699125,3.26260709 144.497523,3.84600369 144.497523,4.43002928 L144.497523,21.379666 C144.497523,24.1224162 146.051719,25.3766403 149.273628,25.3766403 C151.74837,25.3766403 152.956741,24.7058128 152.956741,24.7058128 L153.100964,24.5306366 Z M173.097397,8.57230235 L173.097397,25.0561653 L176.147169,25.0561653 L176.147169,13.0363084 L181.843821,10.9357662 C182.419161,10.731656 182.677832,10.4108665 182.677832,9.88502332 C182.677832,9.41830604 182.476851,8.71854463 182.103112,7.90116039 C182.103112,7.90116039 178.218397,9.24344431 176.147169,10.4687344 L176.147169,9.68154213 C176.147169,9.09751654 175.945257,8.57230235 174.852265,8.57230235 L173.097397,8.57230235 Z M166.048462,19.8040234 C166.048462,19.8040234 164.235595,22.8974406 161.329425,22.8974406 C158.596013,22.8974406 157.877069,20.7094675 157.877069,16.7703611 C157.877069,13.0941763 158.653392,10.5564798 162.738778,10.5564798 C163.832391,10.5564798 164.954539,10.8769548 166.048462,11.3439866 L166.048462,19.8040234 Z M127.03383,16.7703611 C127.03383,11.2854896 124.702691,8.10621408 119.408624,8.10621408 C114.2014,8.10621408 111.812882,11.2854896 111.812882,16.7703611 C111.812882,22.1681163 114.2014,25.3766403 119.408624,25.3766403 C124.645312,25.3766403 127.03383,22.1681163 127.03383,16.7703611 L127.03383,16.7703611 Z M123.86868,16.7703611 C123.86868,20.9711311 122.631774,22.954994 119.408624,22.954994 C116.272938,22.954994 114.978033,20.9711311 114.978033,16.7703611 C114.978033,12.5110942 116.301472,10.5269168 119.408624,10.5269168 C122.516396,10.5269168 123.86868,12.5110942 123.86868,16.7703611 L123.86868,16.7703611 Z M110.575977,8.36819217 L104.879636,8.36819217 C104.131227,8.19364494 102.749479,8.10621408 102.002621,8.10621408 C97.9743035,8.10621408 95.5854754,10.0312656 95.5854754,13.3574124 C95.5854754,14.7280013 95.9024557,16.187279 97.2550497,17.3540722 C96.1034373,18.0837111 95.9024557,18.9583342 95.9024557,19.9798287 C95.9024557,20.9135777 96.1329022,21.8174493 97.1393612,22.4889058 C96.0466786,23.0430539 94.8094629,24.5023316 94.8094629,26.6899902 C94.8094629,30.1617504 97.3124288,31.9411886 102.06,31.9411886 C106.893484,31.9411886 109.309916,30.1617504 109.309916,26.6899902 C109.309916,23.2764125 106.778106,21.4966598 101.829553,21.4966598 C99.1535199,21.4966598 98.6358681,21.0299425 98.6358681,19.9798287 C98.6358681,18.8712179 99.47019,18.5501139 102.002621,18.5501139 C107.49705,18.5501139 108.44644,15.6620649 108.44644,13.3574124 C108.44644,12.3947294 108.188079,11.5188483 107.756341,10.731656 L109.281692,10.731656 C109.943257,10.731656 110.575977,10.5564798 110.575977,9.5063659 L110.575977,8.36819217 Z M102.06,23.8604381 C105.167151,23.8604381 106.260144,24.3850233 106.260144,26.6899902 C106.260144,29.0531396 105.080928,29.5777248 102.06,29.5777248 C99.1535199,29.5777248 97.8592353,29.0531396 97.8592353,26.6899902 C97.8592353,24.3850233 98.8954694,23.8604381 102.06,23.8604381 L102.06,23.8604381 Z M105.368753,13.3574124 C105.368753,15.1950331 104.821637,16.3328923 101.944311,16.3328923 C99.0961409,16.3036439 98.6358681,15.1950331 98.6358681,13.3574124 C98.6358681,11.5773452 99.1535199,10.4687344 102.002621,10.4687344 C104.879636,10.4687344 105.368753,11.5773452 105.368753,13.3574124 L105.368753,13.3574124 Z M74.4960494,25.0561653 L74.4960494,10.2938727 C74.4960494,10.2938727 71.8491707,8.10621408 67.6490265,8.10621408 C62.5844751,8.10621408 60.0532849,11.2854896 60.0532849,17.0332827 C60.0532849,22.1681163 61.8655315,25.3766403 66.584258,25.3766403 C69.0010003,25.3766403 70.6122652,24.0051079 71.3888979,23.0723024 L71.4468973,23.8604381 C71.4751215,24.3850233 71.7055681,25.0561653 72.741492,25.0561653 L74.4960494,25.0561653 Z M71.4468973,19.8040234 C71.4468973,19.8040234 69.5766514,22.8974406 66.7275505,22.8974406 C63.9947583,22.8974406 63.2175053,20.7094675 63.2175053,16.7703611 C63.2175053,13.0941763 63.9947583,10.5564798 68.0801445,10.5564798 C69.2311366,10.5564798 70.295595,10.8769548 71.4468973,11.3439866 L71.4468973,19.8040234 Z M54.0973427,6.79286411 L55.3919375,6.79286411 C56.7439112,6.79286411 57.2621833,6.00535734 57.2621833,4.83762065 C57.2621833,3.70039041 56.830445,3 55.4490063,3 C54.3563237,3 54.0973427,3.6418935 54.0973427,4.2252901 L54.0973427,6.79286411 Z M54.0396536,24.1802841 C54.0396536,26.9522828 50.7597447,30.3073636 50.7597447,30.3073636 C50.9325021,31.0662509 51.8533578,31.7373929 52.5723014,32 C52.5723014,32 57.089426,28.2659473 57.089426,25.0266023 L57.089426,10.2353758 C57.089426,9.68154213 56.830445,9.09751654 55.7377624,9.09751654 L54.0396536,9.09751654 L54.0396536,24.1802841 Z M169.097614,25.0561653 L169.097614,10.2938727 C169.097614,10.2938727 166.507804,8.10621408 162.30766,8.10621408 C157.18604,8.10621408 154.711608,11.2854896 154.711608,17.0332827 C154.711608,22.1681163 156.524475,25.3766403 161.243202,25.3766403 C163.688789,25.3766403 165.271209,23.9475545 166.048462,22.984557 L166.048462,23.8604381 C166.048462,24.4428912 166.306823,25.0561653 167.400436,25.0561653 L169.097614,25.0561653 Z M189.208805,22.8681922 C187.627005,22.8681922 185.957741,22.4297799 185.411245,22.4297799 C184.807369,22.4297799 184.231408,22.8681922 184.231408,24.4428912 C184.231408,24.4428912 186.303256,25.3766403 189.410407,25.3766403 C194.67563,25.3766403 196,23.2179156 196,20.5047283 C196,17.2373929 194.330426,16.4495716 191.309498,15.3991433 C188.490172,14.4075263 187.281491,14.0861078 187.281491,12.5110942 C187.281491,11.1398764 188.202346,10.5269168 189.55463,10.5269168 C191.539944,10.5269168 193.668861,11.1980588 194.014376,11.1980588 C194.532028,11.1980588 195.165368,10.4982974 195.165368,9.36012363 C195.165368,9.36012363 192.978452,8.10621408 190.071972,8.10621408 C185.468934,8.10621408 184.289718,10.4982974 184.289718,12.5985251 C184.289718,15.3113979 185.38271,16.3328923 187.224112,17.0622167 C190.475486,18.3456892 192.719161,18.6086108 192.719161,20.5336623 C192.719161,22.022503 192.057596,22.8681922 189.208805,22.8681922 L189.208805,22.8681922 Z" id="djangostars" fill="#1B1B1B"></path>
                        <path d="M12.8365822,0.296349292 C12.9331591,0.148492617 12.8845571,0 12.6907761,0 L3.30587928,0 C2.09051476,0 1.84719101,0.394602436 1.84719101,1.38094954 L9.96749412,4.9797492 C10.2105043,5.12760587 10.4532009,5.0296707 10.5507186,4.83189253 L12.8365822,0.296349292 Z M26.4987719,27.7105666 C27.4237784,27.7105666 30,25.5404122 30,17.8493213 C30,17.552972 29.8055918,17.4553548 29.4656911,17.552972 L24.262451,19.4757447 C24.0191273,19.5752698 24.0683564,19.7231265 24.1169585,19.9196327 L26.4987719,27.7105666 Z M24.3107395,2.61277052 C24.3107395,1.52848824 20.6157303,0 15.0729031,0 C14.8784949,0 14.8295793,0.148492617 14.9270969,0.296349292 L17.3584531,4.88181403 C17.4553436,5.07863829 17.5525477,5.12760587 17.796185,5.0296707 L24.3107395,2.61277052 Z M5.49422524,11.883225 C5.68926052,11.7843359 5.73723543,11.6860828 5.63971779,11.5382261 L1.31288215,4.14189471 C0.388502744,4.14189471 0,4.29038733 0,5.62141537 L0,14.6448061 C0,14.7923448 0.0965769532,14.9402015 0.291612229,14.8413124 L5.49422524,11.883225 Z M0.291612229,17.0114668 C0.0965769532,16.9125778 0,17.0604344 0,17.2079731 L0,26.2310459 C0,27.5627099 0.388502744,27.7105666 1.31288215,27.7105666 L5.63971779,20.3142352 C5.73723543,20.1670144 5.68926052,20.0674894 5.49422524,19.9695542 L0.291612229,17.0114668 Z M10.5507186,27.1677895 C10.4532009,26.9712832 10.2105043,26.8717582 9.96749412,27.0199328 L1.84719101,30.6200044 C1.84719101,31.6050796 2.09051476,32 3.30587928,32 L12.6907761,32 C12.8845571,32 12.9331591,31.8527793 12.8365822,31.7039687 L10.5507186,27.1677895 Z M15.0729031,32 C20.6157303,32 24.3107395,30.4721477 24.3107395,29.3865935 L17.7469558,26.9712832 C17.5042592,26.8717582 17.4067416,26.9219977 17.3092239,27.1194579 L14.9270969,31.7039687 C14.8295793,31.8527793 14.8784949,32 15.0729031,32 L15.0729031,32 Z M24.0683564,11.9318746 C24.0191273,12.1299708 23.9708388,12.2778275 24.2144761,12.3757626 L29.5622681,14.3487748 C29.8055918,14.447028 29.9510844,14.2985353 29.9510844,14.002822 C30.2433238,9.81227767 28.7360334,3.69864266 26.4504834,4.14189471 L24.0683564,11.9318746 Z" id="D" fill="#6CBD45"></path>
                    </g>
                </g>
            </g>
        </g>
    </g>
</svg>
