<svg id="Layer_1" data-name="Layer 1" xmlns="http://www.w3.org/2000/svg" viewBox="0 0 640 240"><defs><style>.cls-1{fill:#36c0c8;}.cls-2{fill:#f68d5e;}</style></defs><title>JamBonSWLogoLong</title><path class="cls-1" d="M326.6,221.53c0-2.43-3.19-4.25-6.07-5.54-4.1-1.82-8.73-3.95-8.73-9.18,0-7.06,5.09-12.37,15.64-12.37a15,15,0,0,1,11,5.62l-5.62,4.55a8.82,8.82,0,0,0-6.91-3.11c-3.26,0-6.3,1.37-6.3,4,0,1.75,2.81,3.26,5.62,4.63,4.33,2.12,9.26,4.48,9.26,10.1,0,7.44-7,12.9-16.32,12.9A15,15,0,0,1,307,227.52l5.62-4.55a9,9,0,0,0,7.06,3.19C323.71,226.16,326.6,224.11,326.6,221.53Z"/><path class="cls-1" d="M374.87,210.14c0,12.22-10.4,23-21.56,23-6.91,0-13-7-13-15.71,0-12.3,10.25-23,21.25-23C368.64,194.43,374.87,201.34,374.87,210.14ZM348.3,216.6c0,5.46,2.73,9.49,6.53,9.49,5.92,0,12.07-6.91,12.07-15.18,0-5.39-2.73-9.41-6.83-9.41C354.6,201.49,348.3,208.32,348.3,216.6Z"/><path class="cls-1" d="M412.82,202.17h-4.93l1.52-7h4.93l1.9-9.11h7.51l-1.9,9.11h9l-1.52,7h-9l-3.87,18.37a7,7,0,0,0-.23,1.82c0,1.9.61,3.8,2.28,3.8,1.52,0,3.64-1.06,6.3-3l2.28,6.91a19.72,19.72,0,0,1-10.1,3c-6.15,0-8.42-4.4-8.42-9.11a17.46,17.46,0,0,1,.38-3.42Z"/><path class="cls-1" d="M455,211.21c-3.11,6.76-6.3,14.42-9.41,21.18h-7l-2.35-37.19h7.14l1,26.19,11.08-26.19h6l-.15,26.26,12.3-26.26h7.14l-18.29,37.19h-7.06Z"/><path class="cls-1" d="M482.34,200.28c4.86-3.72,11.31-5.84,15.94-5.84,8.88,0,11.61,6,11.61,10.55a30,30,0,0,1-.68,5.84l-3.26,14.73c.08,1.44,1.06,1.82,2.2,1.82a10.24,10.24,0,0,0,2.2-.38v5.46a11.66,11.66,0,0,1-4.48.68c-4.48,0-6.68-2-7.21-5.31a15.26,15.26,0,0,1-11.39,5.31c-6.83,0-9.72-4.48-9.72-9,0-12,14.5-14.19,24.59-14.8a18.79,18.79,0,0,0,.15-2c0-4.17-1.37-5.84-5.77-5.84-3.19,0-6.91,2.66-9.64,4.33Zm2.88,22.16c0,2.35,2,3.64,4.33,3.64,4,0,8.8-4.48,9.64-5.69a13.62,13.62,0,0,0,1.52-4.78C496.84,215.76,485.22,216.06,485.22,222.44Z"/><path class="cls-1" d="M529.28,202.93c3.64-6.45,7.29-8.5,11.23-8.5a11.06,11.06,0,0,1,6.38,2.35l-4.63,6.76a7.86,7.86,0,0,0-3.87-1.44c-4.63,0-10.1,5.09-11.31,10.85l-4,19.43h-7.59l7.89-37.19h7.21Z"/><path class="cls-1" d="M578.05,207c0,7.29-5.09,8.58-9.79,8.58h-16.7v1c0,5.46,2.81,9.49,7.14,9.49,3.57,0,7.51-1.9,10.7-5.84l4.48,5c-5,5.46-10.93,7.89-16.7,7.89-7.44,0-13.51-7-13.51-15.71,0-12.3,10.25-23,21.25-23C572.05,194.43,578.05,198.76,578.05,207Zm-9.34,2.28c1.29,0,1.44-1.06,1.44-2.2,0-3.95-3-5.62-6.75-5.62s-7.89,3.19-10.17,7.82Z"/><path class="cls-1" d="M392.93,202.17h9.64l1.52-7h-9.64l.3-1.44c1.29-4.71,3.57-6.68,6.15-6.68a7.34,7.34,0,0,1,4.63,1.06l4.48-5.69c-2.28-2-5.09-2.43-8-2.43-6.3,0-13,4.78-14.88,13.82l-.3,1.37h-4.93l-1.52,7h4.93l-6.4,30.2h7.53Z"/><path class="cls-2" d="M19.68,84H53V142.5c0,11.21-8.18,17.42-17,17.42-8.48,0-16.67-5.91-16.67-17.12v-4.55H4.22v4.55c0,20,12.73,31.36,32.12,31.36,19.55,0,31.82-11.52,31.82-32.88V69.62H19.68Z"/><path class="cls-2" d="M117.76,69.62l-38,103H95.95l11.51-32.12h32.42l11.51,32.12h16.21l-38.18-103Zm-5,56.51L123.67,97c1.67,4.24,3.18,8.79,10.91,29.09Z"/><path class="cls-2" d="M262.55,69.62l-26.67,75-26.82-75H191.79l-9.09,103h15.15c2.42-23.33,5.15-46.51,7.58-69.85l25.15,69.85h10.3l25.45-70,7.42,70h15l-8.94-103Z"/><path class="cls-2" d="M364.51,116.13a28.33,28.33,0,0,0,7.88-19.54c0-15.91-11.21-27-32.42-27H310.88v103h34.85c17.88,0,32.42-13,32.42-31.36C378.15,125.53,369.82,119,364.51,116.13ZM326,84h16.82c11.67,0,13.48,9.39,13.48,12.88,0,5-2.42,13.33-10.45,13.33H326Zm19.7,74.24H326V124.62h19.85c7.42,0,16.21,5.3,16.21,16.51C362.09,152.5,354.06,158.26,345.73,158.26Z"/><path class="cls-2" d="M439.6,68.11c-25.91,0-46.36,23.79-46.36,53,0,29.09,20.45,53,46.36,53s46.51-23.94,46.51-53C486.12,91.89,465.51,68.11,439.6,68.11Zm0,91.82c-17,0-30.3-17-30.3-38.79,0-21.67,13.33-38.64,30.3-38.64s30.45,17,30.45,38.64C470.06,143,456.57,159.92,439.6,159.92Z"/><path class="cls-2" d="M613.17,25.07c-10.4-1.73-20.7,2.94-28.2,9.83-.62-8.34,7.17-21.1,16.39-25.32C605,8,608,4,600.63,4.82c-7.73,1.19-14.52,6.53-19.1,13.7A41.7,41.7,0,0,0,576,32a37.87,37.87,0,0,0-.38,13.63,11.48,11.48,0,0,1-1.21,1.16c-7.17,7.58-11.44,12.63-11.55,22.92-.06,5.65-.12,13.56-.12,20.59,0,5.92.05,12,.05,17.91v34.12L520.08,69.62H506v103h15.15V100.53l42.73,72.12H578l.25-96.76c.18-4.61.1-10,2.1-14.09,1.58-3.19,3.24,1.21,4.71,2.84a35.26,35.26,0,0,0,4.44,4.16,28.79,28.79,0,0,0,11.39,5.42,27.67,27.67,0,0,0,21.82-3.94,25.87,25.87,0,0,0,10.4-17.47A24.16,24.16,0,0,0,613.17,25.07Zm1.53,35.28c-7.65,5-20.56,1.73-26.62-10.27,4.51-8.34,14.7-13.19,23-12C622.26,39.92,623.36,54.68,614.71,60.35Z"/></svg>
