<?xml version="1.0" encoding="UTF-8" standalone="no"?>
<!-- Created with Inkscape (http://www.inkscape.org/) -->

<svg
   xmlns:dc="http://purl.org/dc/elements/1.1/"
   xmlns:cc="http://creativecommons.org/ns#"
   xmlns:rdf="http://www.w3.org/1999/02/22-rdf-syntax-ns#"
   xmlns:svg="http://www.w3.org/2000/svg"
   xmlns="http://www.w3.org/2000/svg"
   xmlns:sodipodi="http://sodipodi.sourceforge.net/DTD/sodipodi-0.dtd"
   xmlns:inkscape="http://www.inkscape.org/namespaces/inkscape"
   version="1.1"
   id="svg4569"
   xml:space="preserve"
   width="564.21521"
   height="141.43675"
   viewBox="0 0 564.21521 141.43676"
   sodipodi:docname="prosa.svg"
   inkscape:version="0.92.3 (2405546, 2018-03-11)"><metadata
     id="metadata4575"><rdf:RDF><cc:Work
         rdf:about=""><dc:format>image/svg+xml</dc:format><dc:type
           rdf:resource="http://purl.org/dc/dcmitype/StillImage" /><dc:title></dc:title></cc:Work></rdf:RDF></metadata><defs
     id="defs4573" /><sodipodi:namedview
     pagecolor="#ffffff"
     bordercolor="#666666"
     borderopacity="1"
     objecttolerance="10"
     gridtolerance="10"
     guidetolerance="10"
     inkscape:pageopacity="0"
     inkscape:pageshadow="2"
     inkscape:window-width="1488"
     inkscape:window-height="826"
     id="namedview4571"
     showgrid="false"
     inkscape:zoom="0.81162576"
     inkscape:cx="282.10666"
     inkscape:cy="70.713335"
     inkscape:window-x="67"
     inkscape:window-y="27"
     inkscape:window-maximized="0"
     inkscape:current-layer="g4577"
     fit-margin-top="10"
     fit-margin-left="40"
     fit-margin-right="40"
     fit-margin-bottom="10" /><g
     id="g4577"
     inkscape:groupmode="layer"
     inkscape:label="ink_ext_XXXXXX"
     transform="matrix(1.3333333,0,0,-1.3333333,40,131.43675)"><g
       id="g4579"
       transform="scale(0.1)"><path
         d="M 2.70703,526.324 3.06641,8.10547 C 99.082,8.18359 184.047,7.92969 252.75,8.13672 l 0.164,290.19528 c 89.25,2.625 149.625,5.254 228.375,44.629 91.875,57.754 149.625,157.5 144.375,267.746 -2.621,102.375 -60.375,191.629 -144.375,246.75 -52.891,28.481 -90.828,44.422 -134.961,50.965 L 0,907.379 0.152344,655.75 2.03516,650.363 H 249.824 l 69.86,-0.515 c 22.988,-1.563 32.363,-10 47.511,-36.043 18.602,-31.614 2.907,-67.114 -27.652,-84.473 -7.691,-2.32 -12.063,-1.32 -16.582,-1.656 l -1.613,0.004"
         style="fill:#ef3220;fill-opacity:1;fill-rule:nonzero;stroke:none"
         id="path4581"
         inkscape:connector-curvature="0" /><path
         d="m 2878.04,632.625 c -49.88,-2.625 -105,5.25 -136.5,-31.5 C 2689.04,504 2723.16,367.5 2712.67,257.258 2704.79,165.383 2631.28,76.125 2547.29,42.0039 2450.17,18.3711 2337.29,21.0078 2255.91,23.625 v 246.758 c 55.13,0 115.51,-10.508 152.25,34.121 52.5,94.492 15.76,230.996 31.5,335.996 7.87,102.375 78.75,207.375 178.5,238.875 86.63,21 181.13,18.375 259.88,13.125 V 632.625"
         style="fill:#ef3220;fill-opacity:1;fill-rule:nonzero;stroke:none"
         id="path4583"
         inkscape:connector-curvature="0" /><path
         d="m 2878.04,632.625 c -49.88,-2.625 -105,5.25 -136.5,-31.5 C 2689.04,504 2723.16,367.5 2712.67,257.258 2704.79,165.383 2631.28,76.125 2547.29,42.0039 2450.17,18.3711 2337.29,21.0078 2255.91,23.625 v 246.758 c 55.13,0 115.51,-10.508 152.25,34.121 52.5,94.492 15.76,230.996 31.5,335.996 7.87,102.375 78.75,207.375 178.5,238.875 86.63,21 181.13,18.375 259.88,13.125 z"
         style="fill:none;stroke:#ef3220;stroke-width:26.25;stroke-linecap:square;stroke-linejoin:miter;stroke-miterlimit:2;stroke-dasharray:none;stroke-opacity:1"
         id="path4585"
         inkscape:connector-curvature="0" /><path
         d="m 1012.05,527.031 c 16.78,7.035 34.16,23.762 38.86,42.594 10.51,36.75 -18.37,63 -44.62,81.375 l -330.747,-0.02 -0.117,241.52 325.214,-0.098 c 51.49,-3.824 101.5,-12.855 150.02,-34.027 97.13,-49.875 154.88,-149.625 157.5,-254.625 0,-105 -47.25,-199.5 -139.12,-259.871 C 1116.54,315 1050.91,293.996 990.543,296.633 1085.04,194.25 1195.29,110.246 1287.16,13.125 H 948.539 L 678.164,291.379 V 527.18 l 333.886,-0.149"
         style="fill:#ef3220;fill-opacity:1;fill-rule:nonzero;stroke:none"
         id="path4587"
         inkscape:connector-curvature="0" /><path
         d="m 1012.05,527.031 c 16.78,7.035 34.16,23.762 38.86,42.594 10.51,36.75 -18.37,63 -44.62,81.375 l -330.747,-0.02 -0.117,241.52 325.214,-0.098 c 51.49,-3.824 101.5,-12.855 150.02,-34.027 97.13,-49.875 154.88,-149.625 157.5,-254.625 0,-105 -47.25,-199.5 -139.12,-259.871 C 1116.54,315 1050.91,293.996 990.543,296.633 1085.04,194.25 1195.29,110.246 1287.16,13.125 H 948.539 L 678.164,291.379 V 527.18 Z"
         style="fill:none;stroke:#ef3220;stroke-width:26.25;stroke-linecap:square;stroke-linejoin:miter;stroke-miterlimit:2;stroke-dasharray:none;stroke-opacity:1"
         id="path4589"
         inkscape:connector-curvature="0" /><path
         d="M 2204.41,651 C 2277.92,517.125 2251.67,325.5 2167.67,207.375 2057.42,52.5 1876.28,-7.87891 1708.29,23.625 1548.16,52.5 1409.04,186.379 1364.41,349.133 c -39.37,160.117 10.51,338.617 144.38,446.242 149.62,120.75 364.88,136.5 530.25,36.75 68.25,-42 131.25,-112.875 165.37,-181.125 z m -427.87,-10.5 c -60.37,-13.125 -115.5,-39.375 -144.38,-99.75 -23.62,-49.875 -26.25,-120.75 2.63,-168.004 28.88,-52.5 81.38,-81.367 136.5,-94.492 60.38,-10.508 115.5,15.742 160.13,49.871 49.86,52.5 68.24,139.125 36.74,204.75 C 1936.67,609 1852.67,643.125 1776.54,640.5"
         style="fill:#ef3220;fill-opacity:1;fill-rule:nonzero;stroke:none"
         id="path4591"
         inkscape:connector-curvature="0" /><path
         d="M 2204.41,651 C 2277.92,517.125 2251.67,325.5 2167.67,207.375 2057.42,52.5 1876.28,-7.87891 1708.29,23.625 1548.16,52.5 1409.04,186.379 1364.41,349.133 c -39.37,160.117 10.51,338.617 144.38,446.242 149.62,120.75 364.88,136.5 530.25,36.75 68.25,-42 131.25,-112.875 165.37,-181.125 z m -427.87,-10.5 c -60.37,-13.125 -115.5,-39.375 -144.38,-99.75 -23.62,-49.875 -26.25,-120.75 2.63,-168.004 28.88,-52.5 81.38,-81.367 136.5,-94.492 60.38,-10.508 115.5,15.742 160.13,49.871 49.86,52.5 68.24,139.125 36.74,204.75 C 1936.67,609 1852.67,643.125 1776.54,640.5 Z"
         style="fill:none;stroke:#ef3220;stroke-width:26.25;stroke-linecap:square;stroke-linejoin:miter;stroke-miterlimit:2;stroke-dasharray:none;stroke-opacity:1"
         id="path4593"
         inkscape:connector-curvature="0" /><path
         d="m 3010.33,5.32422 177.4,532.18778 c 5.42,0 166.37,-533.22294 166.37,-533.22294 l 274,0.01953 L 3315.32,905.191 3065.81,904.098 2749.69,5.32422 h 260.64"
         style="fill:#ef3220;fill-opacity:1;fill-rule:nonzero;stroke:none"
         id="path4595"
         inkscape:connector-curvature="0" /><path
         d="m 3010.33,5.32422 177.4,532.18778 c 5.42,0 166.37,-533.22294 166.37,-533.22294 l 274,0.01953 L 3315.32,905.191 3065.81,904.098 2749.69,5.32422 Z"
         style="fill:none;stroke:#ef3220;stroke-width:5;stroke-linecap:butt;stroke-linejoin:miter;stroke-miterlimit:4;stroke-dasharray:none;stroke-opacity:1"
         id="path4597"
         inkscape:connector-curvature="0" /></g></g></svg>
