<?xml version="1.0" encoding="UTF-8"?>
<svg width="421px" height="54px" viewBox="0 0 421 54" version="1.1" xmlns="http://www.w3.org/2000/svg" xmlns:xlink="http://www.w3.org/1999/xlink">
    <!-- Generator: Sketch 53.2 (72643) - https://sketchapp.com -->
    <title>Logo black Copy 3</title>
    <desc>Created with Sketch.</desc>
    <defs>
        <polygon id="path-1" points="0.12280339 0.0252145853 57.3911932 0.0252145853 57.3911932 18.1727885 0.12280339 18.1727885"></polygon>
    </defs>
    <g id="Logo-black-Copy-3" stroke="none" stroke-width="1" fill="none" fill-rule="evenodd">
        <path d="M91.3720801,22.870977 L86.7987495,22.870977 C85.7337502,22.870977 85.7337502,16.4521759 86.7987495,16.4521759 L91.3720801,16.4521759 L91.3720801,7.01536948 C91.3720801,6.00936769 98.3365204,6.00936769 98.3365204,7.01536948 L98.3365204,16.4521759 L104.824294,16.4521759 C105.887627,16.4521759 105.887627,22.870977 104.824294,22.870977 L98.3365204,22.870977 L98.3365204,42.2763969 C98.3365204,45.0850032 100.570408,44.8739423 103.388184,44.8739423 L104.824294,44.8739423 C105.887627,44.8739423 105.887627,51.8190108 104.824294,51.8190108 L103.388184,51.8190108 C95.6787442,51.8190108 91.3720801,50.5991782 91.3720801,42.7522535 L91.3720801,22.870977 Z M111.092571,16.3741393 C111.092571,15.5601516 117.906697,15.5601516 117.906697,16.3741393 L117.906697,51.3693761 C117.906697,52.179396 111.092571,52.179396 111.092571,51.3693761 L111.092571,16.3741393 Z M139.370235,51.9762968 C131.132749,51.9762968 124.000172,44.8784428 124.000172,35.7305353 L124.000172,31.2950282 C124.000172,23.1452112 130.084292,15.0521631 139.315976,14.9936564 L140.628054,14.9936564 C147.028411,14.9936564 151.696867,19.0995561 153.898463,23.0896008 C154.843334,24.8094677 148.917058,28.4687465 147.971638,26.6932693 C146.765885,24.5319951 144.092402,22.2033104 140.680669,22.2560244 L139.370235,22.2560244 C134.227698,22.2560244 130.87132,26.8056486 130.87132,31.2950282 L130.87132,35.7305353 C130.87132,40.7215669 134.804815,44.7139288 139.315976,44.7139288 L140.680669,44.7139288 C144.092402,44.7701184 146.765885,42.4953063 147.971638,40.3340321 C148.917058,38.5597134 154.843334,42.2155166 153.898463,43.9348042 C151.696867,47.9300624 147.028411,52.033645 140.628054,51.9762968 L139.370235,51.9762968 Z M159.000151,1.81348297 C159.000151,0.72883901 165.83352,0.72883901 165.83352,1.81348297 L165.83352,27.4008853 L169.121037,27.4008853 L180.126478,16.2871079 C181.222498,14.552244 186.698786,18.2927081 185.916692,19.4883652 L174.857295,30.8706132 L186.907525,50.5471308 C187.95286,52.1721144 179.81473,52.3380677 179.293153,51.417678 L168.85834,34.5040289 L165.83352,34.5040289 L165.83352,51.1984836 C165.83352,52.2281874 159.000151,52.2281874 159.000151,51.1984836 L159.000151,1.81348297 Z M205.366952,51.976891 C197.13277,51.9183833 190.000133,44.8221531 190.000133,35.7308685 L190.000133,31.2390996 C190.000133,22.2561411 196.869714,14.9936564 205.366952,14.9936564 L205.629459,14.9936564 C214.127244,14.9936564 221.000114,22.2561411 221.000114,31.2390996 L221.000114,33.0157639 C221.000114,34.842826 220.630741,36.839039 219.581807,36.839039 L196.921778,36.839039 C197.499403,41.2746173 201.171218,44.7144063 205.366952,44.7144063 L206.677844,44.7144063 C210.089344,44.7144063 212.763192,42.4407162 213.969959,40.2770901 C214.914218,38.560092 220.841733,42.1620805 219.894734,43.9352692 C217.7459,47.8720839 213.0257,51.976891 206.626329,51.976891 L205.366952,51.976891 Z M205.366952,22.2561411 C201.014481,22.2561411 197.394729,25.7515413 196.921778,30.2421517 L214.075729,30.2421517 C213.601681,25.7515413 209.983026,22.2561411 205.629459,22.2561411 L205.366952,22.2561411 Z M228.474991,22.7613413 L223.814315,22.7613413 C222.728712,22.7613413 222.728712,16.2832225 223.814315,16.2832225 L228.474991,16.2832225 L228.474991,6.75920829 C228.474991,5.74390979 235.574734,5.74390979 235.574734,6.75920829 L235.574734,16.2832225 L242.188022,16.2832225 C243.270794,16.2832225 243.270794,22.7613413 242.188022,22.7613413 L235.574734,22.7613413 L235.574734,42.3460915 C235.574734,45.1806528 237.851839,44.9676414 240.724129,44.9676414 L242.188022,44.9676414 C243.270794,44.9676414 243.270794,51.976891 242.188022,51.976891 L240.724129,51.976891 C232.864407,51.976891 228.474991,50.7457857 228.474991,42.8263456 L228.474991,22.7613413 Z M278.00008,35.3986988 C278.00008,44.0126426 271.019106,50.9773441 262.385169,50.9773441 L261.160339,50.9773441 C258.980698,50.9773441 256.845597,50.5512853 254.981629,49.698612 L254.981629,50.1774422 C254.981629,51.2417561 248.000098,51.2417561 248.000098,50.1774422 L248.000098,1.79781884 C248.000098,0.734060387 254.981629,0.734060387 254.981629,1.79781884 L254.981629,16.1516144 C257.061056,15.7299994 259.351488,15.5133593 262.385169,15.5133593 C271.019106,15.5133593 278.00008,22.4775054 278.00008,31.0914492 L278.00008,35.3986988 Z M254.981629,41.4085174 C256.525471,43.0022109 258.712906,44.0126426 261.160339,44.0126426 L262.385169,44.0126426 C267.127488,44.0126426 271.019106,40.1847786 271.019106,35.3986988 L271.019106,31.0914492 C271.019106,26.3592516 267.127488,22.4775054 262.385169,22.4775054 L261.160339,22.4775054 C258.496334,22.6391522 256.899044,23.1713092 254.981629,23.9151069 L254.981629,41.4085174 Z M283.000077,15.6145596 C283.000077,14.7866886 289.982592,14.7866886 289.982592,15.6145596 L289.982592,35.8080399 C289.982592,40.7752659 293.815125,44.7485855 298.610245,44.7485855 L299.841176,44.7485855 C302.236788,44.7485855 304.419728,43.7010635 306.019772,42.0453215 L306.019772,15.6145596 C306.072661,14.7866886 313.000059,14.7866886 313.000059,15.6145596 L313.000059,51.1484435 C313.000059,52.0305066 306.072661,52.0305066 306.072661,51.1484435 L306.072661,50.6514903 C304.102392,51.5352829 302.022447,51.976891 299.841176,51.976891 L298.610245,51.976891 C289.982592,51.976891 283.000077,44.7485855 283.000077,35.8080399 L283.000077,15.6145596 Z M324.473491,22.7613413 L319.815911,22.7613413 C318.728104,22.7613413 318.728104,16.2832225 319.815911,16.2832225 L324.473491,16.2832225 L324.473491,6.75920829 C324.473491,5.74390979 331.573965,5.74390979 331.573965,6.75920829 L331.573965,16.2832225 L338.188011,16.2832225 C339.270722,16.2832225 339.270722,22.7613413 338.188011,22.7613413 L331.573965,22.7613413 L331.573965,42.3460915 C331.573965,45.1806528 333.851507,44.9676414 336.722502,44.9676414 L338.188011,44.9676414 C339.270722,44.9676414 339.270722,51.976891 338.188011,51.976891 L336.722502,51.976891 C328.864357,51.976891 324.473491,50.7457857 324.473491,42.8263456 L324.473491,22.7613413 Z M344,2.63742007 C344,1.78752664 351.499598,1.78752664 351.499598,2.63742007 L351.499598,39.3761465 C351.499598,42.8857064 351.899003,43.7355998 352.300799,44.2155397 C352.874794,44.9037867 354.987812,44.9604462 355.448801,44.9604462 C357.451803,44.9604462 357.621012,51.9773441 355.332208,51.9773441 C352.526212,51.9217955 348.524393,52.2423109 346.231404,50.4358708 C344.686402,48.8921754 344,46.9246444 344,44.3221929 L344,2.63742007 Z M372.367677,51.976891 C364.132544,51.9183833 357.000033,44.8221531 357.000033,35.7308685 L357.000033,31.2390996 C357.000033,22.2561411 363.871686,14.9936564 372.367677,14.9936564 L372.630179,14.9936564 C381.128362,14.9936564 388.000015,22.2561411 388.000015,31.2390996 L388.000015,33.0157639 C388.000015,34.842826 387.63284,36.839039 386.581733,36.839039 L363.922652,36.839039 C364.501364,41.2746173 368.173661,44.7144063 372.367677,44.7144063 L373.679094,44.7144063 C377.087793,44.7144063 379.764883,42.4407162 380.969984,40.2770901 C381.916967,38.560092 387.841636,42.1620805 386.896846,43.9352692 C384.750242,47.8720839 380.028481,51.976891 373.626484,51.976891 C366.307815,51.976891 379.686161,52.0288862 372.367677,51.976891 Z M372.367677,22.2561411 C368.012543,22.2561411 364.393403,25.7515413 363.922652,30.2421517 L381.0763,30.2421517 C380.602809,25.7515413 376.984217,22.2561411 372.630179,22.2561411 C368.275594,22.2561411 376.722262,22.2561411 372.367677,22.2561411 Z M394.000011,17.934727 C403.642727,13.6111034 412.113365,15.3315163 412.280472,15.3315163 C414.119814,15.7729152 412.002154,22.648195 410.718283,22.4274956 C410.216962,22.3151184 409.606177,22.2589299 409.046631,22.2589299 L407.767418,22.2589299 C404.980748,22.4274956 403.306766,22.9824301 401.303229,23.7580641 L401.303229,51.1444892 C401.303229,52.2543583 394.000011,52.2543583 394.000011,51.1444892 L394.000011,17.934727 Z M110.00018,6.44700349 C110.00018,3.94892278 111.925179,1.99954688 114.266482,1.99954688 L114.735503,1.99954688 C117.075719,1.99954688 119.000175,3.94892278 119.000175,6.44700349 L119.000175,8.02169562 C119.000175,10.513541 117.075719,12.5230024 114.735503,12.5230024 L114.266482,12.5230024 C111.925179,12.5230024 110.00018,10.513541 110.00018,8.02169562 L110.00018,6.44700349 Z" id="Combined-Shape-Copy" fill="#000000" fill-rule="nonzero"></path>
        <g id="Butler" transform="translate(10.500000, 7.000000)">
            <path d="M11.2463068,22.8831058 C11.2748322,23.9746442 10.4141712,24.8830096 9.32328983,24.9109904 C8.23298475,24.9404135 7.32564576,24.0787788 7.29567966,22.9869519 C7.2668661,21.8942596 8.12752712,20.9858942 9.21840847,20.957625 C10.3090017,20.9270481 11.2163407,21.7886827 11.2463068,22.8831058" id="Fill-1" fill="#000000"></path>
            <path d="M6.86840339,30.1864904 C6.89750508,31.2783173 6.03655593,32.1869712 4.94625085,32.2132212 C3.85508136,32.2440865 2.94860678,31.3824519 2.91979322,30.2923558 C2.88925085,29.1982212 3.75048814,28.2895673 4.84079322,28.261875 C5.93109831,28.2307212 6.83987797,29.0940865 6.86840339,30.1864904" id="Fill-3" fill="#000000"></path>
            <path d="M3.95074237,38.9504712 C3.98070847,40.0422981 3.11803051,40.9492212 2.02801356,40.9786442 C0.937420339,41.0080673 0.0300813559,40.1464327 0.00126779661,39.0563365 C-0.0286983051,37.9633558 0.831962712,37.0552788 1.92197966,37.024125 C3.01314915,36.9964327 3.92192881,37.8580673 3.95074237,38.9504712" id="Fill-5" fill="#000000"></path>
            <path d="M35.0844559,11.5243846 C35.0844559,17.7436154 30.0487102,22.7839038 23.8367949,22.7839038 C17.6248797,22.7839038 12.589422,17.7436154 12.589422,11.5243846 C12.589422,5.30544231 17.6248797,0.264865385 23.8367949,0.264865385 C30.0487102,0.264865385 35.0844559,5.30544231 35.0844559,11.5243846 Z" id="Stroke-7" stroke="#000000" stroke-width="2.25360009"></path>
            <path d="M23.0857407,4.23398077 C27.5227407,4.23398077 31.1201136,7.83426923 31.1201136,12.2780192" id="Stroke-9" stroke="#000000" stroke-width="2.25360009" stroke-linecap="round"></path>
            <path d="M59.8187932,14.2658942 C59.8853525,16.7417596 57.9346746,18.8002212 55.4618949,18.8671442 C52.9891153,18.9337788 50.9324034,16.9806058 50.8658441,14.5064712 C50.7989966,12.0297404 52.7516915,9.96925962 55.2233186,9.90522115 C57.6958102,9.83858654 59.7522339,11.7903173 59.8187932,14.2658942" id="Fill-11" fill="#000000"></path>
            <path d="M51.3024847,6.41573077 C55.6637051,4.08986538 61.0812305,5.74246154 63.4036034,10.1083269" id="Stroke-13" stroke="#000000" stroke-width="2.25360009" stroke-linecap="round"></path>
            <g id="Group-17" transform="translate(10.084746, 26.538750)">
                <mask id="mask-2" fill="white">
                    <use xlink:href="#path-1"></use>
                </mask>
                <g id="Clip-16"></g>
                <path d="M43.9623458,4.03675962 C38.1670746,-3.37958654 32.2043966,1.02435577 28.7574305,4.982625 C25.3093119,1.02435577 19.3474983,-3.37958654 13.5507864,4.03675962 C13.5507864,4.03675962 7.92378644,12.636375 0.12280339,9.47425962 C0.12280339,9.47425962 11.1814475,22.3249327 23.4251932,16.787625 C23.4251932,16.787625 25.9005661,15.7944519 28.7574305,12.8264712 C31.6137186,15.7944519 34.0888034,16.787625 34.0888034,16.787625 C46.3337017,22.3249327 57.3911932,9.47425962 57.3911932,9.47425962 C49.5902102,12.636375 43.9623458,4.03675962 43.9623458,4.03675962" id="Fill-15" fill="#000000" mask="url(#mask-2)"></path>
            </g>
        </g>
    </g>
</svg>
