<?xml version="1.0" encoding="UTF-8" standalone="no"?>
<svg
   xmlns:dc="http://purl.org/dc/elements/1.1/"
   xmlns:cc="http://creativecommons.org/ns#"
   xmlns:rdf="http://www.w3.org/1999/02/22-rdf-syntax-ns#"
   xmlns:svg="http://www.w3.org/2000/svg"
   xmlns="http://www.w3.org/2000/svg"
   viewBox="0 0 731.90668 154.67999"
   height="154.67999"
   width="731.90668"
   xml:space="preserve"
   id="svg2"
   version="1.1"><metadata
     id="metadata8"><rdf:RDF><cc:Work
         rdf:about=""><dc:format>image/svg+xml</dc:format><dc:type
           rdf:resource="http://purl.org/dc/dcmitype/StillImage" /><dc:title></dc:title></cc:Work></rdf:RDF></metadata><defs
     id="defs6" /><g
     transform="matrix(1.3333333,0,0,-1.3333333,0,154.68)"
     id="g10"><g
       transform="scale(0.1)"
       id="g12"><path
         id="path14"
         style="fill:#ed1561;fill-opacity:1;fill-rule:nonzero;stroke:none"
         d="M 614.398,348.359 308.426,1160.07 H 0 L 481.156,0 H 742.703 L 1228.8,1160.07 H 917.895 L 614.398,348.359" /><path
         id="path16"
         style="fill:#ed1561;fill-opacity:1;fill-rule:nonzero;stroke:none"
         d="M 3813.59,348.359 3507.63,1160.07 H 3199.19 L 3680.34,0 H 3941.9 L 4428,1160.07 H 4117.1 L 3813.59,348.359" /><path
         id="path18"
         style="fill:#ed1561;fill-opacity:1;fill-rule:nonzero;stroke:none"
         d="m 3021.83,1160.07 c -78.96,0 -154.8,-15.27 -225.42,-45.36 -70.27,-30.01 -132.87,-71.76 -186.02,-124.077 -53.31,-52.442 -95.56,-114.297 -125.61,-183.828 -30.14,-69.754 -45.43,-146.055 -45.43,-226.778 V 0 h 283.99 v 580.027 c 0,41.094 7.77,80.11 23.11,115.911 15.45,36.054 37.05,68.105 64.22,95.261 27.13,27.149 59.17,48.75 95.24,64.219 35.78,15.344 74.78,23.117 115.92,23.117 h 140.96 l -117.56,281.535 h -23.4" /><path
         id="path20"
         style="fill:#ed1561;fill-opacity:1;fill-rule:nonzero;stroke:none"
         d="m 1809.13,1159.68 c -185.62,-4.13 -349.92,-94.63 -453.99,-233.176 h 934.27 0.93 v 233.566 h -481.21 v -0.39" /><path
         id="path22"
         style="fill:#ed1561;fill-opacity:1;fill-rule:nonzero;stroke:none"
         d="m 2056.54,696.836 -806.48,-0.02 c -7.66,-37.734 -11.7,-76.789 -11.7,-116.789 0,-40 4.04,-79.05 11.7,-116.797 h 806.48 v 233.606" /><path
         id="path24"
         style="fill:#ed1561;fill-opacity:1;fill-rule:nonzero;stroke:none"
         d="M 1795.89,0.789063 V 0 h 494.45 v 233.563 h -935.2 C 1456.73,98.332 1615.71,8.82031 1795.89,0.789063" /><path
         id="path26"
         style="fill:#ed1561;fill-opacity:1;fill-rule:nonzero;stroke:none"
         d="m 5008.13,1160.07 v -0.39 c -185.62,-4.13 -349.92,-94.63 -453.99,-233.176 h 934.28 0.92 v 233.566 h -481.21" /><path
         id="path28"
         style="fill:#ed1561;fill-opacity:1;fill-rule:nonzero;stroke:none"
         d="m 5255.55,696.836 -806.48,-0.02 c -7.66,-37.734 -11.71,-76.789 -11.71,-116.789 0,-40 4.05,-79.05 11.71,-116.797 h 806.48 v 233.606" /><path
         id="path30"
         style="fill:#ed1561;fill-opacity:1;fill-rule:nonzero;stroke:none"
         d="M 4994.9,0.789063 V 0 h 494.44 v 233.563 h -935.2 C 4655.73,98.332 4814.72,8.82031 4994.9,0.789063" /></g></g></svg>
