<svg xmlns="http://www.w3.org/2000/svg" viewBox="0 0 214.31 61.34"><defs><style>.cls-1{fill:#fff;}</style></defs><title>logo-mark</title><g id="Layer_2" data-name="Layer 2"><g id="Layer_1-2" data-name="Layer 1"><path class="cls-1" d="M16.56,1.74V1.08a2.24,2.24,0,0,1,.81-.15q.81-.09,2-.12t2.49,0A14.49,14.49,0,0,1,24.12,1V5q0,10,.3,19.8t.06,18.42q-1.86,0-4.08.09a23.44,23.44,0,0,1-4-.15,1,1,0,0,1-.06-.42c0-.4,0-.72,0-1s0-.58,0-1a1.35,1.35,0,0,0-.27-.45c-.1-.1-.21,0-.33.21a4.27,4.27,0,0,1-2.4,2.31,6.76,6.76,0,0,1-3.18.27,9.77,9.77,0,0,1-5.4-1.77,9.43,9.43,0,0,1-3-3.9A19.26,19.26,0,0,1,.39,32.1Q.06,29.16,0,26.16a30.08,30.08,0,0,1,.27-4.08,18.88,18.88,0,0,1,.84-3.63,9.42,9.42,0,0,1,1.5-2.82A5,5,0,0,1,4.86,14a13.16,13.16,0,0,1,3.57-.75,22.8,22.8,0,0,1,3.69,0,12.21,12.21,0,0,1,2.94.57q1.2.42,1.32,1-.06-2.82-.06-4.56V7.41q0-1,0-1.62t.06-1.08c0-.34,0-.72.06-1.14S16.52,2.54,16.56,1.74ZM7.26,24.36A6.38,6.38,0,0,0,6.9,26.1q-.06.9-.06,1.74a11.7,11.7,0,0,0,.36,2.91,8.4,8.4,0,0,0,1.08,2.52A5.85,5.85,0,0,0,10,35a4.1,4.1,0,0,0,2.28.66A3.83,3.83,0,0,0,14.67,35,4.07,4.07,0,0,0,16,33.24a8.79,8.79,0,0,0,.54-2.73q.09-1.59.09-3.51,0-2.34-.09-3.69a5.58,5.58,0,0,0-.45-2.07A1.72,1.72,0,0,0,15,20.31a7.75,7.75,0,0,0-2-.21A6.49,6.49,0,0,0,9,21.18,4.54,4.54,0,0,0,7.26,24.36Z"/><path class="cls-1" d="M28.8,21.48v-8a11,11,0,0,0,2,.06q1-.06,2.07-.15l1.95-.15a8,8,0,0,1,1.71.06,28.3,28.3,0,0,1,.18,3.45q0,2,0,4t-.09,3.84a21.34,21.34,0,0,0,.06,2.91q0,2.94,0,5.61t0,5.28c0,1.74-.1,10.5-.24,12.28s-.37,3.63-.69,5.55c-.52,1.24-1.37,1.22-2.55,1.94a13.84,13.84,0,0,1-4.05,1.62,28.19,28.19,0,0,1-4.86.69,46.35,46.35,0,0,1-5,0,8.5,8.5,0,0,1-.39-2,15.64,15.64,0,0,1,0-2.16,9.19,9.19,0,0,1,.18-1.1q.12-1,.24-1.86,1,.06,2.37,0A17.11,17.11,0,0,0,24.36,53a13.06,13.06,0,0,0,2.46-.75c.76-.32,1.34-1.76,1.74-2.32,0-1.68.06-4.5.06-6.46V32.58q0-3,0-5.88T28.8,21.48ZM28.44,0l8,.18c0,.24,0,.67,0,1.29s0,1.3.06,2l.06,2.28q0,1.17,0,2.07a1.52,1.52,0,0,1-1.08.48,11.6,11.6,0,0,1-2,.09q-1.11,0-2.43-.12a20.65,20.65,0,0,0-2.46,0q0-1.74-.15-3.63T28.44,0Z"/><path class="cls-1" d="M65.1,13.38q.06.36.09.72c0,.24,0,.48,0,.72v.6q-.18,6.48.06,12.75a122.66,122.66,0,0,1-.18,12.69q0,.78,0,1.56a.84.84,0,0,1-.75.9H63.6q-1,0-2-.09c-.66-.06-1.31-.09-1.95-.09a9.09,9.09,0,0,0-1.29.09,9.18,9.18,0,0,1-1.29.09.82.82,0,0,1-.57-.48A2.16,2.16,0,0,1,56.4,42a4,4,0,0,1,.12-1.08,3.75,3.75,0,0,0,.12-1A12.58,12.58,0,0,1,53,42.36a10.11,10.11,0,0,1-4.29,1,5.49,5.49,0,0,1-4-1.62,13.06,13.06,0,0,1-2.73-4,22.26,22.26,0,0,1-1.59-5.22,29.39,29.39,0,0,1-.51-5.22,18.58,18.58,0,0,1,.78-5.52,14.48,14.48,0,0,1,2.13-4.35A10.21,10.21,0,0,1,46,14.55a8.44,8.44,0,0,1,4-1.11c.72,0,1.39,0,2,0a5.81,5.81,0,0,1,1.71.3,3.79,3.79,0,0,1,1.38.84,4.56,4.56,0,0,1,1,1.59,6.09,6.09,0,0,1,.09-1.65,6.64,6.64,0,0,0,.15-1.41s.13-.07.39-.09a6.45,6.45,0,0,1,.87,0c.32,0,.64,0,1,0h.66l2.49.12Q63.18,13.26,65.1,13.38ZM47.64,25.32a7.13,7.13,0,0,0-.3,1.59q-.06.81-.06,1.59a7.46,7.46,0,0,0,1.41,4.59A4.62,4.62,0,0,0,52.62,35a4,4,0,0,0,2.25-.51A2.83,2.83,0,0,0,56,33a7.41,7.41,0,0,0,.36-2.28q0-1.35,0-3,0-2.1,0-3.33A5.57,5.57,0,0,0,56,22.5a1.35,1.35,0,0,0-.9-.84,7.37,7.37,0,0,0-1.89-.18,5.88,5.88,0,0,0-3.87,1.17A4.65,4.65,0,0,0,47.64,25.32Z"/><path class="cls-1" d="M77.46,16.5l.75-.42A4.75,4.75,0,0,0,79,15.6a11.23,11.23,0,0,1,6-2,10.83,10.83,0,0,1,3.21.36A7.14,7.14,0,0,1,91,15.42a4.18,4.18,0,0,1,.93,2.25,27.47,27.47,0,0,1,.42,4.11q.09,2.4.06,5.25t-.09,5.76q-.06,2.91-.12,5.61t.06,4.74a23.79,23.79,0,0,1-3.75.27q-1.65,0-3.75,0-.12-1.38-.12-3.12t0-3.6q0-1.86,0-3.72t-.15-3.48q-.06-.72-.12-1.59a16.13,16.13,0,0,0-.21-1.71,7.36,7.36,0,0,0-.42-1.5,2.35,2.35,0,0,0-.75-1,.18.18,0,0,0-.12-.06.17.17,0,0,1-.12-.06,5.16,5.16,0,0,0-1.41-.39,4,4,0,0,0-1.83.12,3.51,3.51,0,0,0-1.62,1.08,4,4,0,0,0-.84,2.43Q77,28.86,77,30.87t.15,4q.09,2,.09,4a33.05,33.05,0,0,1-.24,4v.24a9,9,0,0,1-1.77.36,13.26,13.26,0,0,1-1.53,0L72,43.38a16.84,16.84,0,0,0-2.4.06q0-7.38-.15-14.76t.09-15.3l1.2.09.9,0,.9,0,1.2-.09a6.68,6.68,0,0,0,.84-.09l1.2-.15a6.83,6.83,0,0,1,1.08,0c.32,0,.48.09.48.21A10.8,10.8,0,0,1,77.43,15,12.86,12.86,0,0,0,77.46,16.5Z"/><path class="cls-1" d="M112.8,61.26a10.85,10.85,0,0,1-2.16.06q-1.56-.06-4-.06a10.43,10.43,0,0,1-5-1.2A10,10,0,0,1,98,56.82a5.51,5.51,0,0,1-.45-1.11q-.21-.69-.36-1.41A8.71,8.71,0,0,1,97,52.92a6.77,6.77,0,0,1,0-1.14,5.86,5.86,0,0,1,1.62-.33,18.4,18.4,0,0,1,2.13-.06q1.11,0,2.16.12t1.77.21a3.26,3.26,0,0,0,1,2.49,3.72,3.72,0,0,0,2.22,1,3.8,3.8,0,0,0,2.4-.6,3.52,3.52,0,0,0,1.53-2.4L112,51c0-.42,0-6.79,0-7.11a9.21,9.21,0,0,1,0-2.1,3.55,3.55,0,0,1-1.41,1,7.86,7.86,0,0,1-1.74.42,14.86,14.86,0,0,1-1.89.12q-1,0-1.8.06a15.15,15.15,0,0,1-2.31-.18,10.08,10.08,0,0,1-2.22-.6,6.69,6.69,0,0,1-1.89-1.14,5.51,5.51,0,0,1-1.38-1.86,12.92,12.92,0,0,1-1.2-3.39,26.68,26.68,0,0,1-.48-3.63q0-2.82.12-6.06a22.12,22.12,0,0,1,1-6.09,11.41,11.41,0,0,1,3-4.8,9,9,0,0,1,5.88-2.19,8.43,8.43,0,0,1,3.57.51,4.09,4.09,0,0,1,2.37,2.31q.24.12.27-.21a6,6,0,0,0,0-.84q0-.51-.06-1a1.4,1.4,0,0,1,.15-.81,24.45,24.45,0,0,1,4-.15q2,.09,4.08.09.24,7.5.27,15.69c0,5.46-.09,17.07-.33,22.83q-.06,1.44,0,2.85a4.06,4.06,0,0,1-.54,2.37,10.09,10.09,0,0,1-1.71,2.1A8.9,8.9,0,0,1,116,60.39a6.38,6.38,0,0,1-1.68.63A12.5,12.5,0,0,1,112.8,61.26ZM102.42,29v.54a7.89,7.89,0,0,0,1.8,5.22,4.42,4.42,0,0,0,2.88,1.59,7.49,7.49,0,0,0,3.36-.21,1.71,1.71,0,0,0,.84-.57,3.24,3.24,0,0,0,.48-.9,6.11,6.11,0,0,0,.27-1.08q.09-.57.15-1.11,0-2.4-.09-4.89a21.8,21.8,0,0,0-.69-4.77,2.89,2.89,0,0,0-1.17-1.41,4.29,4.29,0,0,0-1.77-.63,4.65,4.65,0,0,0-1.89.15,4.52,4.52,0,0,0-1.65.87,10.9,10.9,0,0,0-1.53,2.25,9.1,9.1,0,0,0-.87,2.61,6,6,0,0,0-.12,1.17Z"/><path class="cls-1" d="M125,15.9a4,4,0,0,1,1.35-1.56,9.13,9.13,0,0,1,2.16-1.11c.82-.3.7-.51,1.64-.63a22.56,22.56,0,0,1,2.85-.18,4.13,4.13,0,0,0,1.31,0,13.5,13.5,0,0,1,2.37,0,7.15,7.15,0,0,1,2.66.75,8.49,8.49,0,0,1,3,1.83,3.56,3.56,0,0,1,1.32,1.74,12.65,12.65,0,0,1,.72,2.79,29.9,29.9,0,0,1,.3,3.48q.06,1.89.12,3.87-.06,1.74-.15,4t-.3,4.26q-.21,2-.54,3.66a4.45,4.45,0,0,1-.93,2.22,5.51,5.51,0,0,1-2.67,2,7.14,7.14,0,0,1-2.57.75,14.69,14.69,0,0,1-3,0q-2-.15-3.72-.15c-2-.36-2.76-1.24-4.16-2.64a7.33,7.33,0,0,1-2.22-3.6,20.79,20.79,0,0,1-.72-4.53q-.12-2.37,0-4.77a34.65,34.65,0,0,0-.09-4.38q0-1.08.06-2.13a21.87,21.87,0,0,1,.24-2.19,8.58,8.58,0,0,1,.42-1.77Q124.86,16.56,125,15.9Zm6.5,7.08a1.86,1.86,0,0,0-.54,1.2,30.68,30.68,0,0,0-.24,3.81q0,1.89-.12,4a2.65,2.65,0,0,0,.72,2.13,4,4,0,0,0,1.89,1,2.08,2.08,0,0,0,1.31.12,5.66,5.66,0,0,0,2-.57,2.71,2.71,0,0,0,1.38-2q.24-1.92.39-3.87a13.17,13.17,0,0,0-.21-3.69,4.17,4.17,0,0,0-1.74-3.06c-1-.64-1.22-.78-2.78-.42A4,4,0,0,0,131.54,23Z"/><path class="cls-1" d="M154.36,20.49a.7.7,0,0,0-.15.27,2.34,2.34,0,0,1-.11.27A6.41,6.41,0,0,0,154,22.5q-.06,1.35-.11,3.2t0,3.85q0,2,.13,3.47a7.59,7.59,0,0,0,.65,2.38,2.59,2.59,0,0,0,1.75,1.49,3.49,3.49,0,0,0,1.74-.27,2.46,2.46,0,0,0,1.24-1.2,4.09,4.09,0,0,0,.4-2,8.29,8.29,0,0,1,.15-2.12,6.68,6.68,0,0,0,1.32,0q.74,0,1.49,0t1.49,0a6.14,6.14,0,0,1,1.32.21,9.27,9.27,0,0,1,.38,4.35,9.69,9.69,0,0,1-1.47,3.89,9.27,9.27,0,0,1-3,2.84,8.1,8.1,0,0,1-4.14,1.16,12.16,12.16,0,0,1-3.11,0,9.62,9.62,0,0,1-3-.84,6.48,6.48,0,0,1-2.33-1.83,5.4,5.4,0,0,1-1.11-2.94q-.08-1.51-.13-3.15t-.06-3.68q0-2,0-4.62t.06-6a4.6,4.6,0,0,1,.06-1.45,7.84,7.84,0,0,1,.4-1.37,10.33,10.33,0,0,1,.95-2,7.35,7.35,0,0,1,1.37-1.64,5.07,5.07,0,0,1,1-.57,10,10,0,0,1,1.14-.4,10.08,10.08,0,0,1,3.83-.5,10.41,10.41,0,0,1,3.55.86,11.23,11.23,0,0,1,3,2,9.62,9.62,0,0,1,2.14,2.8,9.4,9.4,0,0,1,1,3.43,9,9,0,0,1-.5,3.78,10.74,10.74,0,0,1-3,.23,27.66,27.66,0,0,1-3.09-.4,13.38,13.38,0,0,1-.15-1.81,8.72,8.72,0,0,0-.23-1.87,2.85,2.85,0,0,0-.78-1.41,2.38,2.38,0,0,0-1.79-.5c-.36.06-.75.13-1.16.21A1.83,1.83,0,0,0,154.36,20.49Z"/><path class="cls-1" d="M200.33,16.37l.75-.42a4.75,4.75,0,0,0,.75-.48,11.23,11.23,0,0,1,6-2,5.22,5.22,0,0,1,2.21.36,7.14,7.14,0,0,1,2.82,1.5,4.18,4.18,0,0,1,.93,2.25,27.47,27.47,0,0,1,.42,4.11q.09,2.4.06,5.25t-.09,5.76q-.06,2.91-.12,5.61t.06,4.74a23.79,23.79,0,0,1-3.75.27c-1.1,0-1.35,0-2.75,0q-.12-1.38-.12-3.12t0-3.6q0-1.86,0-3.72t-.15-3.48q-.06-.72-.12-1.59a16.13,16.13,0,0,0-.21-1.71,7.36,7.36,0,0,0-.42-1.5,2.35,2.35,0,0,0-.75-1,.18.18,0,0,0-.12-.06.17.17,0,0,1-.12-.06,5.16,5.16,0,0,0-1.41-.39,4,4,0,0,0-1.83.12,3.51,3.51,0,0,0-1.62,1.08,4,4,0,0,0-.84,2.43q-.12,2.1-.06,4.11t.15,4q.09,2,.09,4a33.05,33.05,0,0,1-.24,4v.24a9,9,0,0,1-1.77.36c-.5,0,0,0-.53,0l-1.74-.09a16.84,16.84,0,0,0-2.4.06q0-7.38-.15-14.76t.09-15.3l1.2.09.9,0,.9,0,1.2-.09a6.68,6.68,0,0,0,.84-.09c.4-.06-.2-.11.2-.15a6.83,6.83,0,0,1,1.08,0c.32,0,.48.09.48.21a10.8,10.8,0,0,1,.09,1.68A12.86,12.86,0,0,0,200.33,16.37Z"/><path class="cls-1" d="M170.33,16a4,4,0,0,1,1.35-1.56,9.13,9.13,0,0,1,2.16-1.11c.82-.3.7-.51,1.64-.63a22.56,22.56,0,0,1,2.85-.18,12.74,12.74,0,0,0,2.31,0,4.55,4.55,0,0,1,1.37,0,13.11,13.11,0,0,1,3.66.75c1.16.42,1.16,1,2,1.83A3.56,3.56,0,0,1,189,16.93a12.65,12.65,0,0,1,.72,2.79,29.9,29.9,0,0,1,.3,3.48q.06,1.89.12,3.87-.06,1.74-.15,4t-.3,4.26q-.21,2-.54,3.66a4.45,4.45,0,0,1-.93,2.22,5.51,5.51,0,0,1-2.67,2A7.14,7.14,0,0,1,183,44a14.69,14.69,0,0,1-3,0q-2-.15-3.72-.15c-2-.36-2.76-1.24-4.16-2.64a7.33,7.33,0,0,1-2.22-3.6,20.79,20.79,0,0,1-.72-4.53q-.12-2.37,0-4.77a34.65,34.65,0,0,0-.09-4.38q0-1.08.06-2.13a21.87,21.87,0,0,1,.24-2.19,8.58,8.58,0,0,1,.42-1.77Q170.15,16.69,170.33,16Zm6.5,7.08a1.86,1.86,0,0,0-.54,1.2,30.68,30.68,0,0,0-.24,3.81q0,1.89-.12,4a2.65,2.65,0,0,0,.72,2.13,4,4,0,0,0,1.89,1,6.36,6.36,0,0,0,2.31.12c.8-.1.46-.29,1-.57a2.71,2.71,0,0,0,1.38-2q.24-1.92.39-3.87a13.17,13.17,0,0,0-.21-3.69,4.17,4.17,0,0,0-1.74-3.06c-1-.64-1.22-.78-2.78-.42A4,4,0,0,0,176.83,23.11Z"/></g></g></svg>