<svg xmlns="http://www.w3.org/2000/svg" viewBox="0 0 267.28 66.64"><path fill="#203341" d="M10.15,10.44A7.78,7.78,0,0,1,17,14V3.17h8.33V34.46H17v-3.3a7.62,7.62,0,0,1-6.93,3.59C4.48,34.75,0,30.14,0,22.58S4.48,10.44,10.15,10.44Zm2.62,7.23c-2.37,0-4.31,1.69-4.31,4.9s1.94,4.95,4.31,4.95,4.31-1.73,4.31-4.95S15.09,17.67,12.77,17.67Z"/><path fill="#203341" d="M38.39,10.74v26c0,6.76-3.8,9-9,9h-3V38.73h1.77c1.44,0,2-.55,2-1.82V10.74Zm-9-6.43C29.39,1.9,31.29,0,34.25,0s4.82,1.9,4.82,4.31-1.9,4.23-4.82,4.23S29.39,6.68,29.39,4.31Z"/><path fill="#203341" d="M51.84,10.44c3.38,0,5.75,1.48,7,3.59v-3.3H67.1V34.46H58.81v-3.3a7.7,7.7,0,0,1-7,3.59c-5.62,0-10.1-4.61-10.1-12.18S46.22,10.44,51.84,10.44Zm2.66,7.23c-2.37,0-4.31,1.69-4.31,4.9s1.94,4.95,4.31,4.95,4.31-1.73,4.31-4.95S56.83,17.67,54.5,17.67Z"/><path fill="#203341" d="M88,21.73c0-2.75-1.52-4.35-3.89-4.35s-4,1.61-4,4.35V34.46H71.84V10.74h8.29v3.38a8.56,8.56,0,0,1,7.23-3.59c5.49,0,8.92,3.89,8.92,10.1V34.46H88Z"/><path fill="#203341" d="M109.6,10.44a7.7,7.7,0,0,1,7,3.59v-3.3h8.29V34.2c0,6.34-3.47,11.92-12,11.92-7.4,0-12-3.72-12.56-9.6h8.16c.34,1.52,1.78,2.41,3.89,2.41,2.32,0,4.23-1.06,4.23-4.73v-3a7.7,7.7,0,0,1-7,3.59c-5.62,0-10.1-4.61-10.1-12.18S104,10.44,109.6,10.44Zm2.66,7.23c-2.37,0-4.31,1.69-4.31,4.9s1.94,4.95,4.31,4.95,4.31-1.73,4.31-4.95S114.59,17.67,112.26,17.67Z"/><path fill="#203341" d="M140.63,34.75c-7.06,0-12.39-4.61-12.39-12.18s5.37-12.13,12.43-12.13,12.43,4.61,12.43,12.13S147.69,34.75,140.63,34.75Zm0-7.19c2.12,0,4.06-1.56,4.06-5s-1.9-4.95-4-4.95-4,1.56-4,4.95S138.48,27.56,140.63,27.56Z"/><path fill="#203341" d="M167.15,10.44c6,0,10.4,3.42,11.58,9.39h-8.79a3,3,0,0,0-3-2.33c-2,0-3.38,1.69-3.38,5.07s1.35,5.12,3.38,5.12a2.91,2.91,0,0,0,3-2.33h8.79c-1.18,5.88-5.58,9.39-11.58,9.39-7.06,0-12-4.61-12-12.18S160.08,10.44,167.15,10.44Z"/><path fill="#203341" d="M193.19,34.75c-7.06,0-12.39-4.61-12.39-12.18s5.37-12.13,12.43-12.13,12.43,4.61,12.43,12.13S200.25,34.75,193.19,34.75Zm0-7.19c2.11,0,4.06-1.56,4.06-5s-1.9-4.95-4-4.95-4,1.56-4,4.95S191,27.56,193.19,27.56Z"/><path fill="#203341" d="M225.2,21.73c0-2.75-1.52-4.35-3.89-4.35s-4,1.61-4,4.35V34.46h-8.29V10.74h8.29v3.38a8.56,8.56,0,0,1,7.23-3.59c5.5,0,8.92,3.89,8.92,10.1V34.46H225.2Z"/><path fill="#203341" d="M243.91,13.38h-3.19v-2h5.48V34.46h-2.29Z"/><path fill="#203341" d="M254.22,28.3c.45,2.74,2.09,4.35,5.06,4.35,3.87,0,6-2.64,5.83-10.22-.84,2.38-3.38,3.8-6.28,3.8-4.45,0-7.48-2.77-7.48-7.67,0-4.22,2.42-7.64,7.57-7.64,6.51,0,8.19,4.77,8.19,11.54,0,7.61-1.87,12.09-7.93,12.09-4.48,0-6.67-2.74-7.06-6.25Zm10.57-9.41c0-3.32-1.87-6.06-5.8-6.06-3.32,0-5.48,2.22-5.48,5.67s2,5.8,5.67,5.8A5.27,5.27,0,0,0,264.79,18.89Z"/><path fill="#EE585B" d="M147.35,48.62h-8.16v4.47h7.21v4.16h-7.21V62.1h8.16v4.32H133.8V44.3h13.55Z"/><path fill="#EE585B" d="M153.9,44.3h5.39V57.53c0,2.61,1.29,4.13,3.84,4.13S167,60.15,167,57.53V44.3h5.39V57.5c0,6.11-4.28,9.14-9.39,9.14s-9.14-3-9.14-9.14Z"/><path fill="#EE585B"  d="M188.38,44.3c5.42,0,8.13,3.12,8.13,7a6.44,6.44,0,0,1-4.92,6.39l5.1,8.76h-6.08L186,58.07h-1.29v8.35h-5.39V44.3Zm-.32,4.47h-3.34v5.48h3.34c2,0,3-1,3-2.77S190.08,48.77,188.07,48.77Z"/><path fill="#EE585B" d="M213.49,66.64A11.33,11.33,0,1,1,224.8,55.3,11.13,11.13,0,0,1,213.49,66.64Zm0-4.91c3.53,0,5.83-2.55,5.83-6.43s-2.3-6.43-5.83-6.43-5.86,2.49-5.86,6.43S209.9,61.72,213.49,61.72Z"/><path fill="#EE585B" d="M239.66,58.48h-3.34v7.94h-5.39V44.3h8.73c5.42,0,8.13,3.06,8.13,7.12C247.79,55.07,245.3,58.48,239.66,58.48Zm-.41-4.29c2.14,0,3.06-1.07,3.06-2.77s-.91-2.77-3.06-2.77h-2.93v5.54Z"/><path fill="#EE585B" d="M267.28,48.62h-8.16v4.47h7.21v4.16h-7.21V62.1h8.16v4.32H253.73V44.3h13.55Z"/></svg>
