<svg xmlns="http://www.w3.org/2000/svg" fill-rule="evenodd" stroke-miterlimit="1.414" viewBox="0 0 446 226" clip-rule="evenodd" stroke-linejoin="round"><g class="logo__svg" fill="#2890d1" fill-rule="nonzero"><path d="M443.044 116.965c.87-4.32 2.26-15.655 1.897-25.2-.43-11.518-4.91-22.556-12.61-31.083-7.68-8.518-18.75-13.023-32-13.023-.754 0-1.52.01-2.31.04-34.73 1.05-57.86 26.43-63.73 66.21-3.173 21.5.48 38.81 10.56 50.053 7.806 8.704 23.92 13.303 37.87 13.303.66 0 1.325-.01 1.998-.03 25.296-.77 39.08-9.354 53.308-27.024l1.038-1.28-22.42-13.97-.853.836c-8.623 8.496-15.782 12.445-29.394 12.862-.294.007-.585.012-.873.012-5.824 0-10.408-1.837-13.7-5.388-9.82-10.587-5.155-26.333-5.155-26.333h76.39zM370.87 93.528c3.86-13.15 13.226-20.912 25.69-21.293.316-.008.63-.013.94-.013 5.874 0 8.09 1.725 11.228 5.13 2.916 3.157 4.407 7.64 4.652 13.32.03.72.042 4.97-.025 6.005H369.95l.92-3.15zM92.48 53.083c-12.015 0-20.946 2.92-28.963 9.463l-4.353 3.556L73.994 0H39.137L0 177.147h41.86c42.075 0 85.037-30.746 85.037-79.624 0-27.413-13.19-44.44-34.418-44.44m-44.04 96.64c-1.83 0-3.41 0-4.86-.29l-2.39-.476 6.38-28.47c6.462-29 21.503-36.735 29.37-36.735 5.166 0 13.833 2.622 13.833 20.187 0 27.38-21.894 45.78-42.343 45.78"></path><path d="M298.26 145.774c-13.792 2.998-9.607-9.974-9.607-9.974l13.51-54.512h25.524l6.58-28.208H307.98l7.79-35.572h-33.05l-8.217 35.572H250.98l.003-.01-11.86.01h-.868l-22.846.022-33.59 80.42-15.76-80.388h-36.1L157.4 171.62l.002.27c.03 5.196-1.89 9.77-5.704 13.615-7.77 7.818-21.574 10.55-28.33 11.257l9.37 28.244c42.58-1.226 64.69-47.327 64.95-47.986l41.155-95.725h26.97L253.17 135.7c-.973 4.877-1.712 9.02-1.712 13.395 0 16.6 13.47 28.3 32.226 28.057 14.96-.195 27.357-1.376 46.885-11.672l-11.87-25.37c-11.628 3.593-15.17 4.52-20.45 5.668"></path></g></svg>